<svg width="423" height="122" viewBox="0 0 423 122" fill="none" xmlns="http://www.w3.org/2000/svg">
<rect width="423" height="122" rx="6" fill="#F5F5F5"/>
<path d="M22.152 29.16C20.7653 29.16 19.72 28.7547 19.016 27.944C18.312 27.1333 17.96 26.0453 17.96 24.68C17.96 24.008 18.0347 23.3307 18.184 22.648C18.344 21.9547 18.5787 21.2987 18.888 20.68C19.208 20.0507 19.608 19.4907 20.088 19C20.568 18.4987 21.1387 18.1093 21.8 17.832C22.472 17.544 23.2293 17.4 24.072 17.4C24.7973 17.4 25.4107 17.4693 25.912 17.608C26.424 17.736 26.9307 17.9387 27.432 18.216L26.504 20.168C26.1413 19.9547 25.7627 19.7787 25.368 19.64C24.984 19.4907 24.552 19.416 24.072 19.416C23.432 19.416 22.8773 19.576 22.408 19.896C21.9493 20.216 21.5707 20.632 21.272 21.144C20.9733 21.656 20.7493 22.2107 20.6 22.808C20.4613 23.4053 20.392 23.9867 20.392 24.552C20.392 25.416 20.568 26.0613 20.92 26.488C21.2827 26.9147 21.8533 27.128 22.632 27.128C23.0693 27.128 23.5067 27.0693 23.944 26.952C24.392 26.8347 24.8347 26.6907 25.272 26.52V28.552C24.952 28.68 24.5253 28.8133 23.992 28.952C23.4587 29.0907 22.8453 29.16 22.152 29.16ZM27.0849 29L29.6609 16.84H32.0129L31.5649 18.952C31.5222 19.1867 31.4582 19.4587 31.3729 19.768C31.2875 20.0773 31.2022 20.3813 31.1169 20.68C31.0315 20.968 30.9515 21.2187 30.8769 21.432H30.9409C31.2609 21.0267 31.6182 20.7067 32.0129 20.472C32.4075 20.2267 32.8662 20.104 33.3889 20.104C34.1462 20.104 34.7115 20.3333 35.0849 20.792C35.4582 21.24 35.6449 21.848 35.6449 22.616C35.6449 23 35.5862 23.4693 35.4689 24.024L34.4289 29H32.0769L33.1489 23.896C33.2342 23.5227 33.2769 23.2133 33.2769 22.968C33.2769 22.328 32.9942 22.008 32.4289 22.008C32.0769 22.008 31.7569 22.1627 31.4689 22.472C31.1809 22.7707 30.9302 23.176 30.7169 23.688C30.5142 24.2 30.3435 24.7653 30.2049 25.384L29.4369 29H27.0849ZM40.6131 29.16C39.5891 29.16 38.7571 28.8827 38.1171 28.328C37.4771 27.7627 37.1571 26.9147 37.1571 25.784C37.1571 25.048 37.2585 24.344 37.4611 23.672C37.6745 22.9893 37.9838 22.3813 38.3891 21.848C38.8051 21.3147 39.3171 20.8933 39.9251 20.584C40.5331 20.264 41.2371 20.104 42.0371 20.104C43.0185 20.104 43.7491 20.328 44.2291 20.776C44.7198 21.224 44.9651 21.7947 44.9651 22.488C44.9651 23.4053 44.5491 24.1413 43.7171 24.696C42.8958 25.2507 41.6371 25.528 39.9411 25.528H39.5411C39.5305 25.592 39.5251 25.6507 39.5251 25.704C39.5251 25.7467 39.5251 25.7947 39.5251 25.848C39.5251 26.3173 39.6585 26.6907 39.9251 26.968C40.2025 27.2453 40.5865 27.384 41.0771 27.384C41.5358 27.384 41.9518 27.3307 42.3251 27.224C42.6985 27.1173 43.1411 26.9467 43.6531 26.712V28.488C43.1945 28.712 42.7305 28.8827 42.2611 29C41.7918 29.1067 41.2425 29.16 40.6131 29.16ZM40.1491 23.944C41.0558 23.944 41.7065 23.8053 42.1011 23.528C42.5065 23.24 42.7091 22.9093 42.7091 22.536C42.7091 22.0453 42.4371 21.8 41.8931 21.8C41.6051 21.8 41.3171 21.8907 41.0291 22.072C40.7411 22.2533 40.4851 22.504 40.2611 22.824C40.0478 23.144 39.8931 23.5173 39.7971 23.944H40.1491ZM45.6474 29L47.5034 20.264H49.2954L49.1354 21.88H49.1994C49.5407 21.3573 49.93 20.9307 50.3674 20.6C50.8154 20.2693 51.3434 20.104 51.9514 20.104C52.5487 20.104 53.0127 20.264 53.3434 20.584C53.674 20.8933 53.8927 21.3253 53.9994 21.88H54.0634C54.394 21.3573 54.7887 20.9307 55.2474 20.6C55.706 20.2693 56.2394 20.104 56.8474 20.104C57.5727 20.104 58.1167 20.3333 58.4794 20.792C58.842 21.24 59.0234 21.848 59.0234 22.616C59.0234 23 58.9647 23.4693 58.8474 24.024L57.8074 29H55.4554L56.5274 23.896C56.6127 23.5227 56.6554 23.2133 56.6554 22.968C56.6554 22.328 56.3994 22.008 55.8874 22.008C55.5354 22.008 55.2154 22.1573 54.9274 22.456C54.6394 22.7547 54.3887 23.16 54.1754 23.672C53.962 24.1733 53.7914 24.7387 53.6634 25.368L52.9114 29H50.5594L51.6314 23.896C51.7167 23.5227 51.7594 23.2133 51.7594 22.968C51.7594 22.328 51.5034 22.008 50.9914 22.008C50.6394 22.008 50.3194 22.1627 50.0314 22.472C49.7434 22.7707 49.4927 23.176 49.2794 23.688C49.0767 24.2 48.906 24.7653 48.7674 25.384L47.9994 29H45.6474ZM63.5398 19.176C63.2091 19.176 62.9264 19.1067 62.6918 18.968C62.4678 18.8187 62.3558 18.568 62.3558 18.216C62.3558 17.768 62.4784 17.4267 62.7238 17.192C62.9798 16.9573 63.3318 16.84 63.7798 16.84C64.0891 16.84 64.3611 16.9093 64.5958 17.048C64.8304 17.1867 64.9478 17.432 64.9478 17.784C64.9478 18.2 64.8304 18.536 64.5958 18.792C64.3718 19.048 64.0198 19.176 63.5398 19.176ZM60.1318 29L61.9878 20.264H64.3398L62.4838 29H60.1318ZM68.5458 29.16C67.9484 29.16 67.3991 29.0533 66.8978 28.84C66.4071 28.616 66.0178 28.2693 65.7298 27.8C65.4418 27.3307 65.2978 26.712 65.2978 25.944C65.2978 25.1547 65.3991 24.4133 65.6018 23.72C65.8044 23.016 66.1031 22.392 66.4978 21.848C66.8924 21.304 67.3778 20.8773 67.9538 20.568C68.5298 20.2587 69.1858 20.104 69.9218 20.104C70.4444 20.104 70.9084 20.152 71.3138 20.248C71.7298 20.344 72.1191 20.4827 72.4818 20.664L71.7618 22.456C71.4844 22.3387 71.2071 22.2373 70.9298 22.152C70.6631 22.056 70.3591 22.008 70.0178 22.008C69.5271 22.008 69.1058 22.1947 68.7538 22.568C68.4018 22.9307 68.1351 23.4 67.9538 23.976C67.7724 24.5413 67.6818 25.1333 67.6818 25.752C67.6818 26.2427 67.7991 26.616 68.0338 26.872C68.2684 27.128 68.5991 27.256 69.0258 27.256C69.4204 27.256 69.7831 27.1973 70.1138 27.08C70.4551 26.952 70.8071 26.7973 71.1698 26.616V28.536C70.8071 28.728 70.4124 28.8827 69.9858 29C69.5698 29.1067 69.0898 29.16 68.5458 29.16ZM75.4961 29.16C75.0801 29.16 74.6801 29.0587 74.2961 28.856C73.9228 28.6427 73.6188 28.3067 73.3841 27.848C73.1495 27.3787 73.0321 26.76 73.0321 25.992C73.0321 25.2773 73.1281 24.5733 73.3201 23.88C73.5121 23.1867 73.7841 22.5573 74.1361 21.992C74.4881 21.416 74.9095 20.9573 75.4001 20.616C75.9015 20.2747 76.4615 20.104 77.0801 20.104C77.6348 20.104 78.0828 20.2213 78.4241 20.456C78.7761 20.6907 79.0481 21 79.2401 21.384H79.3041L79.7521 20.264H81.5601L79.7041 29H77.9441L78.0561 27.864H77.9921C77.6828 28.248 77.3255 28.5627 76.9201 28.808C76.5255 29.0427 76.0508 29.16 75.4961 29.16ZM76.4241 27.256C76.7441 27.256 77.0428 27.128 77.3201 26.872C77.5975 26.616 77.8321 26.2853 78.0241 25.88C78.2268 25.4747 78.3708 25.048 78.4561 24.6C78.5308 24.216 78.5681 23.7787 78.5681 23.288C78.5681 22.9147 78.4721 22.6107 78.2801 22.376C78.0881 22.1307 77.8215 22.008 77.4801 22.008C77.1921 22.008 76.9201 22.1253 76.6641 22.36C76.4188 22.584 76.2001 22.8827 76.0081 23.256C75.8268 23.6293 75.6828 24.0453 75.5761 24.504C75.4695 24.9627 75.4161 25.4213 75.4161 25.88C75.4161 26.7973 75.7521 27.256 76.4241 27.256ZM82.1161 29L84.6921 16.84H87.0441L84.4681 29H82.1161ZM89.3781 29.16C88.8235 29.16 88.3381 29.1173 87.9221 29.032C87.5061 28.9573 87.1168 28.8293 86.7541 28.648V26.712C87.1488 26.936 87.5541 27.112 87.9701 27.24C88.3861 27.3573 88.8128 27.416 89.2501 27.416C89.6235 27.416 89.9541 27.3413 90.2421 27.192C90.5301 27.032 90.6741 26.792 90.6741 26.472C90.6741 26.2587 90.5888 26.0667 90.4181 25.896C90.2475 25.7253 89.8955 25.4907 89.3621 25.192C88.8181 24.8827 88.3968 24.5627 88.0981 24.232C87.8101 23.8907 87.6661 23.4427 87.6661 22.888C87.6661 21.9813 87.9595 21.2933 88.5461 20.824C89.1435 20.344 89.9595 20.104 90.9941 20.104C91.4955 20.104 91.9808 20.1627 92.4501 20.28C92.9195 20.3867 93.3781 20.5733 93.8261 20.84L93.0581 22.52C92.7488 22.3387 92.4181 22.184 92.0661 22.056C91.7248 21.928 91.3835 21.864 91.0421 21.864C90.7861 21.864 90.5568 21.928 90.3541 22.056C90.1515 22.1733 90.0501 22.3547 90.0501 22.6C90.0501 22.8027 90.1355 22.984 90.3061 23.144C90.4768 23.2933 90.7861 23.4853 91.2341 23.72C91.7675 23.9867 92.2048 24.3067 92.5461 24.68C92.8875 25.0427 93.0581 25.5227 93.0581 26.12C93.0581 27.1227 92.7221 27.88 92.0501 28.392C91.3888 28.904 90.4981 29.16 89.3781 29.16Z" fill="black"/>
<path d="M21.62 47.18C24.2 47.18 25.832 45.284 25.832 42.704C25.832 40.124 24.2 38.24 21.62 38.24C19.028 38.24 17.408 40.124 17.408 42.704C17.408 45.284 19.028 47.18 21.62 47.18ZM21.62 45.956C19.652 45.956 18.824 44.444 18.824 42.704C18.824 40.976 19.652 39.464 21.62 39.464C23.588 39.464 24.404 40.976 24.404 42.704C24.404 44.444 23.588 45.956 21.62 45.956ZM31.0584 43.112H32.3184C32.1624 41.72 31.1184 40.7 29.5224 40.7C27.6984 40.7 26.5104 42.02 26.5104 43.94C26.5104 45.86 27.6984 47.18 29.5344 47.18C31.1304 47.18 32.2224 46.136 32.3184 44.72H31.0584C31.0104 45.404 30.6144 46.148 29.5344 46.148C28.2864 46.148 27.7704 45.092 27.7704 43.94C27.7704 42.788 28.2984 41.732 29.5344 41.732C30.6144 41.732 31.0104 42.488 31.0584 43.112ZM35.8628 46.148C34.7468 46.148 34.0868 45.296 34.0868 44.264H38.7908C38.7908 42.08 37.8188 40.7 35.8388 40.7C33.9908 40.7 32.8268 41.948 32.8268 43.94C32.8268 45.86 33.9908 47.18 35.8988 47.18C37.4708 47.18 38.3828 46.292 38.6948 45.128H37.4348C37.3268 45.5 36.9068 46.148 35.8628 46.148ZM35.8388 41.696C36.8588 41.696 37.5308 42.38 37.5308 43.328H34.0868C34.0868 42.38 34.8188 41.696 35.8388 41.696ZM43.3627 42.476C43.3627 43.064 42.7867 43.184 41.8387 43.364C40.3027 43.664 39.3067 44.084 39.3067 45.428C39.3067 46.46 40.0747 47.18 41.3227 47.18C42.2707 47.18 42.9667 46.808 43.3507 46.268H43.3747C43.4947 46.868 43.8067 47.108 44.4787 47.108C44.7187 47.108 44.9227 47.084 45.2107 46.976V46.376C44.7187 46.424 44.6227 46.196 44.6227 45.764V42.848C44.6227 41.216 43.6147 40.7 42.2587 40.7C40.4107 40.7 39.6547 41.624 39.5947 42.8H40.8187C40.8787 42.008 41.2507 41.696 42.2587 41.696C43.0987 41.696 43.3627 42.032 43.3627 42.476ZM41.5987 46.184C40.9147 46.184 40.5787 45.872 40.5787 45.308C40.5787 44.684 41.0347 44.384 42.0787 44.156C42.6667 44.036 43.1587 43.892 43.3627 43.748V44.672C43.3627 45.668 42.6427 46.184 41.5987 46.184ZM49.2477 40.7C48.1917 40.7 47.5557 41.18 47.2317 41.66H47.2077V40.868H45.9477V47H47.2077V43.268C47.2077 42.356 47.8317 41.768 48.8037 41.768C49.6677 41.768 50.0157 42.296 50.0157 43.124V47H51.2877V42.764C51.2877 41.36 50.3877 40.7 49.2477 40.7ZM55.0918 43.292C54.2038 43.088 53.5198 43.04 53.5198 42.416C53.5198 41.984 53.9278 41.696 54.6838 41.696C55.6678 41.696 55.9078 42.188 55.9918 42.668H57.2158C57.1318 41.6 56.3398 40.7 54.6718 40.7C53.1358 40.7 52.2478 41.504 52.2478 42.512C52.2478 43.904 53.5678 44.096 54.5398 44.324C55.4398 44.54 56.1718 44.6 56.1718 45.368C56.1718 45.752 55.7998 46.184 54.9238 46.184C53.6278 46.184 53.3398 45.62 53.2798 44.96H52.0558C52.1158 46.256 52.9678 47.18 54.9478 47.18C56.4358 47.18 57.4438 46.448 57.4438 45.272C57.4438 43.808 56.2198 43.556 55.0918 43.292ZM58.9955 39.836C59.3675 39.836 59.7155 39.596 59.7155 39.164C59.7155 38.732 59.3675 38.504 58.9955 38.504C58.6475 38.504 58.2875 38.732 58.2875 39.164C58.2875 39.596 58.6475 39.836 58.9955 39.836ZM58.3715 40.868V47H59.6315V40.868H58.3715ZM65.2205 38.42V41.612H65.1965C64.8725 41.144 64.2725 40.7 63.3245 40.7C61.7525 40.7 60.5885 41.924 60.5885 43.94C60.5885 45.956 61.7525 47.18 63.3245 47.18C64.2725 47.18 64.8725 46.712 65.1965 46.292H65.2205V47H66.4805V38.42H65.2205ZM63.5405 46.148C62.4365 46.148 61.8485 45.14 61.8485 43.94C61.8485 42.74 62.4365 41.732 63.5405 41.732C64.5725 41.732 65.2085 42.572 65.2085 43.94C65.2085 45.296 64.5725 46.148 63.5405 46.148ZM70.3979 46.148C69.2819 46.148 68.6219 45.296 68.6219 44.264H73.3259C73.3259 42.08 72.3539 40.7 70.3739 40.7C68.5259 40.7 67.3619 41.948 67.3619 43.94C67.3619 45.86 68.5259 47.18 70.4339 47.18C72.0059 47.18 72.9179 46.292 73.2299 45.128H71.9699C71.8619 45.5 71.4419 46.148 70.3979 46.148ZM70.3739 41.696C71.3939 41.696 72.0659 42.38 72.0659 43.328H68.6219C68.6219 42.38 69.3539 41.696 70.3739 41.696ZM74.8281 47.084C74.8281 47.54 74.5401 47.912 74.0961 47.996V48.68C75.1401 48.512 75.5721 47.516 75.5721 46.64C75.5721 45.968 75.2961 45.536 74.7561 45.536C74.3241 45.536 73.9761 45.824 73.9761 46.34C73.9761 46.904 74.3601 47.168 74.8281 47.084ZM82.3199 41.888C81.1199 41.588 80.3159 41.42 80.3159 40.484C80.3159 39.848 80.9279 39.464 81.9479 39.464C83.1359 39.464 83.7599 39.992 83.8919 40.988H85.3199C85.1999 39.224 83.8319 38.24 81.9479 38.24C80.0759 38.24 78.8999 39.092 78.8999 40.616C78.8999 42.248 80.3519 42.764 81.6959 43.1C83.3879 43.52 84.1199 43.712 84.1199 44.732C84.1199 45.392 83.6279 45.956 82.3559 45.956C80.8199 45.956 80.0759 45.236 80.0039 44.144H78.5759C78.6599 46.088 80.2559 47.18 82.3559 47.18C84.5159 47.18 85.5479 46.04 85.5479 44.672C85.5479 42.752 84.1559 42.356 82.3199 41.888ZM90.2377 42.476C90.2377 43.064 89.6617 43.184 88.7137 43.364C87.1777 43.664 86.1817 44.084 86.1817 45.428C86.1817 46.46 86.9497 47.18 88.1977 47.18C89.1457 47.18 89.8417 46.808 90.2257 46.268H90.2497C90.3697 46.868 90.6817 47.108 91.3537 47.108C91.5937 47.108 91.7977 47.084 92.0857 46.976V46.376C91.5937 46.424 91.4977 46.196 91.4977 45.764V42.848C91.4977 41.216 90.4897 40.7 89.1337 40.7C87.2857 40.7 86.5297 41.624 86.4697 42.8H87.6937C87.7537 42.008 88.1257 41.696 89.1337 41.696C89.9737 41.696 90.2377 42.032 90.2377 42.476ZM88.4737 46.184C87.7897 46.184 87.4537 45.872 87.4537 45.308C87.4537 44.684 87.9097 44.384 88.9537 44.156C89.5417 44.036 90.0337 43.892 90.2377 43.748V44.672C90.2377 45.668 89.5177 46.184 88.4737 46.184ZM96.1227 40.7C95.0667 40.7 94.4307 41.18 94.1067 41.66H94.0827V40.868H92.8227V47H94.0827V43.268C94.0827 42.356 94.7067 41.768 95.6787 41.768C96.5427 41.768 96.8907 42.296 96.8907 43.124V47H98.1627V42.764C98.1627 41.36 97.2627 40.7 96.1227 40.7ZM101.732 47H105.104C107.48 47 108.884 45.476 108.884 42.716C108.884 39.956 107.432 38.42 105.068 38.42H101.732V47ZM103.16 39.632H104.996C106.916 39.632 107.456 41.072 107.456 42.716C107.456 44.36 106.916 45.788 104.996 45.788H103.16V39.632ZM110.605 39.836C110.977 39.836 111.325 39.596 111.325 39.164C111.325 38.732 110.977 38.504 110.605 38.504C110.257 38.504 109.897 38.732 109.897 39.164C109.897 39.596 110.257 39.836 110.605 39.836ZM109.981 40.868V47H111.241V40.868H109.981ZM115.234 46.148C114.118 46.148 113.458 45.296 113.458 44.264H118.162C118.162 42.08 117.19 40.7 115.21 40.7C113.362 40.7 112.198 41.948 112.198 43.94C112.198 45.86 113.362 47.18 115.27 47.18C116.842 47.18 117.754 46.292 118.066 45.128H116.806C116.698 45.5 116.278 46.148 115.234 46.148ZM115.21 41.696C116.23 41.696 116.902 42.38 116.902 43.328H113.458C113.458 42.38 114.19 41.696 115.21 41.696ZM123.274 40.868V41.588H123.25C122.926 41.156 122.362 40.7 121.39 40.7C119.854 40.7 118.702 41.756 118.702 43.7C118.702 45.632 119.854 46.7 121.39 46.7C122.362 46.7 122.926 46.244 123.25 45.788H123.274V46.532C123.274 47.636 122.734 48.116 121.678 48.116C120.682 48.116 120.25 47.708 120.13 47.168H118.858C118.99 48.2 119.962 49.124 121.726 49.124C123.466 49.124 124.534 48.344 124.534 46.58V40.868H123.274ZM121.63 45.668C120.526 45.668 119.962 44.828 119.962 43.7C119.962 42.56 120.526 41.732 121.63 41.732C122.65 41.732 123.262 42.404 123.262 43.7C123.262 44.996 122.65 45.668 121.63 45.668ZM128.489 47.18C126.569 47.18 125.405 45.848 125.405 43.94C125.405 42.032 126.569 40.7 128.489 40.7C130.409 40.7 131.573 42.032 131.573 43.94C131.573 45.848 130.409 47.18 128.489 47.18ZM128.489 46.148C129.689 46.148 130.313 45.2 130.313 43.94C130.313 42.668 129.689 41.732 128.489 41.732C127.289 41.732 126.665 42.668 126.665 43.94C126.665 45.2 127.289 46.148 128.489 46.148ZM132.906 47.084C132.906 47.54 132.618 47.912 132.174 47.996V48.68C133.218 48.512 133.65 47.516 133.65 46.64C133.65 45.968 133.374 45.536 132.834 45.536C132.402 45.536 132.054 45.824 132.054 46.34C132.054 46.904 132.438 47.168 132.906 47.084ZM143.794 44.072V38.42H142.378V44.072C142.378 45.368 141.73 45.956 140.41 45.956C139.102 45.956 138.454 45.368 138.454 44.072V38.42H137.026V44.072C137.026 45.944 138.022 47.18 140.41 47.18C142.798 47.18 143.794 45.944 143.794 44.072ZM148.496 41.888C147.296 41.588 146.492 41.42 146.492 40.484C146.492 39.848 147.104 39.464 148.124 39.464C149.312 39.464 149.936 39.992 150.068 40.988H151.496C151.376 39.224 150.008 38.24 148.124 38.24C146.252 38.24 145.076 39.092 145.076 40.616C145.076 42.248 146.528 42.764 147.872 43.1C149.564 43.52 150.296 43.712 150.296 44.732C150.296 45.392 149.804 45.956 148.532 45.956C146.996 45.956 146.252 45.236 146.18 44.144H144.752C144.836 46.088 146.432 47.18 148.532 47.18C150.692 47.18 151.724 46.04 151.724 44.672C151.724 42.752 150.332 42.356 148.496 41.888ZM157.736 44.972L158.432 47H159.884L156.74 38.42H155.24L152.084 47H153.536L154.232 44.972H157.736ZM154.628 43.784L155.984 39.728H156.008L157.352 43.784H154.628Z" fill="#133949"/>
<path d="M18.884 57.648C18.884 56.508 19.352 55.716 20.588 55.716C21.656 55.716 21.98 56.4 21.98 57.084C21.98 58.26 21.008 58.656 19.484 59.664C18.212 60.468 17.336 61.536 17.336 63H23.288V61.824H19.148V61.8C19.832 60.108 23.372 59.664 23.372 57.024C23.372 55.44 22.16 54.528 20.624 54.528C18.5 54.528 17.54 55.86 17.54 57.648H18.884ZM27.5889 63.18C29.9289 63.18 30.9249 61.212 30.9249 58.86C30.9249 56.508 29.9289 54.528 27.5889 54.528C25.2489 54.528 24.2529 56.508 24.2529 58.86C24.2529 61.212 25.2489 63.18 27.5889 63.18ZM27.5889 61.992C26.1249 61.992 25.6329 60.588 25.6329 58.86C25.6329 57.132 26.1249 55.716 27.5889 55.716C29.0529 55.716 29.5329 57.132 29.5329 58.86C29.5329 60.588 29.0529 61.992 27.5889 61.992ZM33.1692 57.648C33.1692 56.508 33.6372 55.716 34.8732 55.716C35.9412 55.716 36.2652 56.4 36.2652 57.084C36.2652 58.26 35.2932 58.656 33.7692 59.664C32.4972 60.468 31.6212 61.536 31.6212 63H37.5732V61.824H33.4332V61.8C34.1172 60.108 37.6572 59.664 37.6572 57.024C37.6572 55.44 36.4452 54.528 34.9092 54.528C32.7852 54.528 31.8252 55.86 31.8252 57.648H33.1692ZM40.4818 54.708C40.3978 55.728 39.9658 56.472 38.4658 56.472V57.468C39.1618 57.468 39.7138 57.468 40.2058 56.988V63H41.5978V54.708H40.4818ZM42.9086 59.364V60.54H46.1366V59.364H42.9086ZM50.3936 63.18C52.7336 63.18 53.7296 61.212 53.7296 58.86C53.7296 56.508 52.7336 54.528 50.3936 54.528C48.0536 54.528 47.0576 56.508 47.0576 58.86C47.0576 61.212 48.0536 63.18 50.3936 63.18ZM50.3936 61.992C48.9296 61.992 48.4376 60.588 48.4376 58.86C48.4376 57.132 48.9296 55.716 50.3936 55.716C51.8576 55.716 52.3376 57.132 52.3376 58.86C52.3376 60.588 51.8576 61.992 50.3936 61.992ZM59.7759 63V61.116H60.9399V59.94H59.7759V54.708H58.3839L54.4599 59.82V61.116H58.3839V63H59.7759ZM58.3839 56.436V59.94H55.6959L58.3839 56.436ZM61.6468 59.364V60.54H64.8748V59.364H61.6468ZM66.7435 54.708C66.6595 55.728 66.2275 56.472 64.7275 56.472V57.468C65.4235 57.468 65.9755 57.468 66.4675 56.988V63H67.8595V54.708H66.7435ZM72.5303 63.18C74.8703 63.18 75.8663 61.212 75.8663 58.86C75.8663 56.508 74.8703 54.528 72.5303 54.528C70.1903 54.528 69.1943 56.508 69.1943 58.86C69.1943 61.212 70.1903 63.18 72.5303 63.18ZM72.5303 61.992C71.0663 61.992 70.5743 60.588 70.5743 58.86C70.5743 57.132 71.0663 55.716 72.5303 55.716C73.9943 55.716 74.4743 57.132 74.4743 58.86C74.4743 60.588 73.9943 61.992 72.5303 61.992Z" fill="#133949"/>
<path d="M20.612 82.432C21.684 82.432 22.492 82.592 23.036 82.912C23.588 83.224 23.864 83.772 23.864 84.556C23.864 85.06 23.724 85.48 23.444 85.816C23.164 86.144 22.76 86.356 22.232 86.452V86.512C22.592 86.568 22.916 86.672 23.204 86.824C23.5 86.976 23.732 87.192 23.9 87.472C24.068 87.752 24.152 88.116 24.152 88.564C24.152 89.34 23.884 89.94 23.348 90.364C22.82 90.788 22.096 91 21.176 91H18.164V82.432H20.612ZM20.828 86.08C21.564 86.08 22.068 85.964 22.34 85.732C22.612 85.492 22.748 85.14 22.748 84.676C22.748 84.204 22.58 83.868 22.244 83.668C21.916 83.46 21.388 83.356 20.66 83.356H19.244V86.08H20.828ZM19.244 86.98V90.088H20.972C21.732 90.088 22.26 89.94 22.556 89.644C22.852 89.348 23 88.96 23 88.48C23 88.032 22.844 87.672 22.532 87.4C22.228 87.12 21.68 86.98 20.888 86.98H19.244ZM26.8807 91H25.8247V81.88H26.8807V91ZM34.2944 84.568V91H33.4304L33.2744 90.148H33.2264C33.0184 90.484 32.7304 90.732 32.3624 90.892C31.9944 91.044 31.6024 91.12 31.1864 91.12C30.4104 91.12 29.8264 90.936 29.4344 90.568C29.0424 90.192 28.8464 89.596 28.8464 88.78V84.568H29.9144V88.708C29.9144 89.732 30.3904 90.244 31.3424 90.244C32.0544 90.244 32.5464 90.044 32.8184 89.644C33.0984 89.244 33.2384 88.668 33.2384 87.916V84.568H34.2944ZM38.8204 84.448C39.3724 84.448 39.8444 84.568 40.2364 84.808C40.6364 85.048 40.9404 85.388 41.1484 85.828C41.3644 86.26 41.4724 86.768 41.4724 87.352V87.988H37.0684C37.0844 88.716 37.2684 89.272 37.6204 89.656C37.9804 90.032 38.4804 90.22 39.1204 90.22C39.5284 90.22 39.8884 90.184 40.2004 90.112C40.5204 90.032 40.8484 89.92 41.1844 89.776V90.7C40.8564 90.844 40.5324 90.948 40.2124 91.012C39.8924 91.084 39.5124 91.12 39.0724 91.12C38.4644 91.12 37.9244 90.996 37.4524 90.748C36.9884 90.5 36.6244 90.132 36.3604 89.644C36.1044 89.148 35.9764 88.544 35.9764 87.832C35.9764 87.128 36.0924 86.524 36.3244 86.02C36.5644 85.516 36.8964 85.128 37.3204 84.856C37.7524 84.584 38.2524 84.448 38.8204 84.448ZM38.8084 85.312C38.3044 85.312 37.9044 85.476 37.6084 85.804C37.3204 86.124 37.1484 86.572 37.0924 87.148H40.3684C40.3604 86.604 40.2324 86.164 39.9844 85.828C39.7364 85.484 39.3444 85.312 38.8084 85.312ZM53.0458 91H51.7858L47.2018 83.884H47.1538C47.1698 84.164 47.1898 84.512 47.2138 84.928C47.2378 85.344 47.2498 85.772 47.2498 86.212V91H46.2538V82.432H47.5018L52.0738 89.524H52.1218C52.1138 89.396 52.1018 89.204 52.0858 88.948C52.0778 88.692 52.0658 88.412 52.0498 88.108C52.0418 87.804 52.0378 87.524 52.0378 87.268V82.432H53.0458V91ZM57.711 84.448C58.263 84.448 58.735 84.568 59.127 84.808C59.527 85.048 59.831 85.388 60.039 85.828C60.255 86.26 60.363 86.768 60.363 87.352V87.988H55.959C55.975 88.716 56.159 89.272 56.511 89.656C56.871 90.032 57.371 90.22 58.011 90.22C58.419 90.22 58.779 90.184 59.091 90.112C59.411 90.032 59.739 89.92 60.075 89.776V90.7C59.747 90.844 59.423 90.948 59.103 91.012C58.783 91.084 58.403 91.12 57.963 91.12C57.355 91.12 56.815 90.996 56.343 90.748C55.879 90.5 55.515 90.132 55.251 89.644C54.995 89.148 54.867 88.544 54.867 87.832C54.867 87.128 54.983 86.524 55.215 86.02C55.455 85.516 55.787 85.128 56.211 84.856C56.643 84.584 57.143 84.448 57.711 84.448ZM57.699 85.312C57.195 85.312 56.795 85.476 56.499 85.804C56.211 86.124 56.039 86.572 55.983 87.148H59.259C59.251 86.604 59.123 86.164 58.875 85.828C58.627 85.484 58.235 85.312 57.699 85.312ZM67.5925 87.772C67.5925 88.836 67.3205 89.66 66.7765 90.244C66.2405 90.828 65.5125 91.12 64.5925 91.12C64.0245 91.12 63.5165 90.992 63.0685 90.736C62.6285 90.472 62.2805 90.092 62.0245 89.596C61.7685 89.092 61.6405 88.484 61.6405 87.772C61.6405 86.708 61.9085 85.888 62.4445 85.312C62.9805 84.736 63.7085 84.448 64.6285 84.448C65.2125 84.448 65.7245 84.58 66.1645 84.844C66.6125 85.1 66.9605 85.476 67.2085 85.972C67.4645 86.46 67.5925 87.06 67.5925 87.772ZM62.7325 87.772C62.7325 88.532 62.8805 89.136 63.1765 89.584C63.4805 90.024 63.9605 90.244 64.6165 90.244C65.2645 90.244 65.7405 90.024 66.0445 89.584C66.3485 89.136 66.5005 88.532 66.5005 87.772C66.5005 87.012 66.3485 86.416 66.0445 85.984C65.7405 85.552 65.2605 85.336 64.6045 85.336C63.9485 85.336 63.4725 85.552 63.1765 85.984C62.8805 86.416 62.7325 87.012 62.7325 87.772ZM72.3621 84.448C73.1301 84.448 73.7101 84.636 74.1021 85.012C74.4941 85.38 74.6901 85.98 74.6901 86.812V91H73.6461V86.884C73.6461 85.852 73.1661 85.336 72.2061 85.336C71.4941 85.336 71.0021 85.536 70.7301 85.936C70.4581 86.336 70.3221 86.912 70.3221 87.664V91H69.2661V84.568H70.1181L70.2741 85.444H70.3341C70.5421 85.108 70.8301 84.86 71.1981 84.7C71.5661 84.532 71.9541 84.448 72.3621 84.448ZM80.7401 91H79.6841V81.88H80.7401V91ZM83.3178 82.156C83.4778 82.156 83.6178 82.212 83.7378 82.324C83.8658 82.428 83.9298 82.596 83.9298 82.828C83.9298 83.052 83.8658 83.22 83.7378 83.332C83.6178 83.444 83.4778 83.5 83.3178 83.5C83.1418 83.5 82.9938 83.444 82.8738 83.332C82.7538 83.22 82.6938 83.052 82.6938 82.828C82.6938 82.596 82.7538 82.428 82.8738 82.324C82.9938 82.212 83.1418 82.156 83.3178 82.156ZM83.8338 84.568V91H82.7778V84.568H83.8338ZM90.1556 91.132C90.1556 90.988 90.1596 90.82 90.1676 90.628C90.1756 90.436 90.1916 90.272 90.2156 90.136H90.1436C89.9596 90.408 89.7036 90.64 89.3756 90.832C89.0556 91.024 88.6396 91.12 88.1276 91.12C87.3516 91.12 86.7196 90.844 86.2316 90.292C85.7516 89.732 85.5116 88.9 85.5116 87.796C85.5116 86.692 85.7556 85.86 86.2436 85.3C86.7396 84.732 87.3796 84.448 88.1636 84.448C88.6676 84.448 89.0796 84.544 89.3996 84.736C89.7196 84.928 89.9756 85.164 90.1676 85.444H90.2156L90.3716 84.568H91.2116V93.88H90.1556V91.132ZM88.3316 90.244C88.9956 90.244 89.4636 90.064 89.7356 89.704C90.0156 89.336 90.1596 88.776 90.1676 88.024V87.808C90.1676 86.992 90.0316 86.376 89.7596 85.96C89.4876 85.536 89.0036 85.324 88.3076 85.324C87.7316 85.324 87.3036 85.552 87.0236 86.008C86.7436 86.456 86.6036 87.06 86.6036 87.82C86.6036 88.58 86.7436 89.176 87.0236 89.608C87.3116 90.032 87.7476 90.244 88.3316 90.244ZM98.6304 84.568V91H97.7664L97.6104 90.148H97.5624C97.3544 90.484 97.0664 90.732 96.6984 90.892C96.3304 91.044 95.9384 91.12 95.5224 91.12C94.7464 91.12 94.1624 90.936 93.7704 90.568C93.3784 90.192 93.1824 89.596 93.1824 88.78V84.568H94.2504V88.708C94.2504 89.732 94.7264 90.244 95.6784 90.244C96.3904 90.244 96.8824 90.044 97.1544 89.644C97.4344 89.244 97.5744 88.668 97.5744 87.916V84.568H98.6304ZM101.212 82.156C101.372 82.156 101.512 82.212 101.632 82.324C101.76 82.428 101.824 82.596 101.824 82.828C101.824 83.052 101.76 83.22 101.632 83.332C101.512 83.444 101.372 83.5 101.212 83.5C101.036 83.5 100.888 83.444 100.768 83.332C100.648 83.22 100.588 83.052 100.588 82.828C100.588 82.596 100.648 82.428 100.768 82.324C100.888 82.212 101.036 82.156 101.212 82.156ZM101.728 84.568V91H100.672V84.568H101.728ZM106.046 91.12C105.246 91.12 104.606 90.844 104.126 90.292C103.646 89.732 103.406 88.9 103.406 87.796C103.406 86.692 103.646 85.86 104.126 85.3C104.614 84.732 105.258 84.448 106.058 84.448C106.554 84.448 106.958 84.54 107.27 84.724C107.59 84.908 107.85 85.132 108.05 85.396H108.122C108.114 85.292 108.098 85.14 108.074 84.94C108.058 84.732 108.05 84.568 108.05 84.448V81.88H109.106V91H108.254L108.098 90.136H108.05C107.858 90.408 107.602 90.64 107.282 90.832C106.962 91.024 106.55 91.12 106.046 91.12ZM106.214 90.244C106.894 90.244 107.37 90.06 107.642 89.692C107.922 89.316 108.062 88.752 108.062 88V87.808C108.062 87.008 107.93 86.396 107.666 85.972C107.402 85.54 106.914 85.324 106.202 85.324C105.634 85.324 105.206 85.552 104.918 86.008C104.638 86.456 104.498 87.06 104.498 87.82C104.498 88.588 104.638 89.184 104.918 89.608C105.206 90.032 105.638 90.244 106.214 90.244ZM118.337 89.224C118.337 89.848 118.105 90.32 117.641 90.64C117.177 90.96 116.553 91.12 115.769 91.12C115.321 91.12 114.933 91.084 114.605 91.012C114.285 90.94 114.001 90.84 113.753 90.712V89.752C114.009 89.88 114.317 90 114.677 90.112C115.045 90.216 115.417 90.268 115.793 90.268C116.329 90.268 116.717 90.184 116.957 90.016C117.197 89.84 117.317 89.608 117.317 89.32C117.317 89.16 117.273 89.016 117.185 88.888C117.097 88.76 116.937 88.632 116.705 88.504C116.481 88.376 116.157 88.232 115.733 88.072C115.317 87.912 114.961 87.752 114.665 87.592C114.369 87.432 114.141 87.24 113.981 87.016C113.821 86.792 113.741 86.504 113.741 86.152C113.741 85.608 113.961 85.188 114.401 84.892C114.849 84.596 115.433 84.448 116.153 84.448C116.545 84.448 116.909 84.488 117.245 84.568C117.589 84.64 117.909 84.744 118.205 84.88L117.845 85.72C117.573 85.608 117.289 85.512 116.993 85.432C116.697 85.352 116.393 85.312 116.081 85.312C115.649 85.312 115.317 85.384 115.085 85.528C114.861 85.664 114.749 85.852 114.749 86.092C114.749 86.268 114.801 86.42 114.905 86.548C115.009 86.668 115.181 86.788 115.421 86.908C115.669 87.02 115.997 87.156 116.405 87.316C116.813 87.468 117.161 87.624 117.449 87.784C117.737 87.944 117.957 88.14 118.109 88.372C118.261 88.596 118.337 88.88 118.337 89.224ZM122.375 84.448C122.927 84.448 123.399 84.568 123.791 84.808C124.191 85.048 124.495 85.388 124.703 85.828C124.919 86.26 125.027 86.768 125.027 87.352V87.988H120.623C120.639 88.716 120.823 89.272 121.175 89.656C121.535 90.032 122.035 90.22 122.675 90.22C123.083 90.22 123.443 90.184 123.755 90.112C124.075 90.032 124.403 89.92 124.739 89.776V90.7C124.411 90.844 124.087 90.948 123.767 91.012C123.447 91.084 123.067 91.12 122.627 91.12C122.019 91.12 121.479 90.996 121.007 90.748C120.543 90.5 120.179 90.132 119.915 89.644C119.659 89.148 119.531 88.544 119.531 87.832C119.531 87.128 119.647 86.524 119.879 86.02C120.119 85.516 120.451 85.128 120.875 84.856C121.307 84.584 121.807 84.448 122.375 84.448ZM122.363 85.312C121.859 85.312 121.459 85.476 121.163 85.804C120.875 86.124 120.703 86.572 120.647 87.148H123.923C123.915 86.604 123.787 86.164 123.539 85.828C123.291 85.484 122.899 85.312 122.363 85.312ZM129.149 84.448C129.701 84.448 130.173 84.568 130.565 84.808C130.965 85.048 131.269 85.388 131.477 85.828C131.693 86.26 131.801 86.768 131.801 87.352V87.988H127.397C127.413 88.716 127.597 89.272 127.949 89.656C128.309 90.032 128.809 90.22 129.449 90.22C129.857 90.22 130.217 90.184 130.529 90.112C130.849 90.032 131.177 89.92 131.513 89.776V90.7C131.185 90.844 130.861 90.948 130.541 91.012C130.221 91.084 129.841 91.12 129.401 91.12C128.793 91.12 128.253 90.996 127.781 90.748C127.317 90.5 126.953 90.132 126.689 89.644C126.433 89.148 126.305 88.544 126.305 87.832C126.305 87.128 126.421 86.524 126.653 86.02C126.893 85.516 127.225 85.128 127.649 84.856C128.081 84.584 128.581 84.448 129.149 84.448ZM129.137 85.312C128.633 85.312 128.233 85.476 127.937 85.804C127.649 86.124 127.477 86.572 127.421 87.148H130.697C130.689 86.604 130.561 86.164 130.313 85.828C130.065 85.484 129.673 85.312 129.137 85.312ZM136.534 84.448C137.302 84.448 137.882 84.636 138.274 85.012C138.666 85.38 138.862 85.98 138.862 86.812V91H137.818V86.884C137.818 85.852 137.338 85.336 136.378 85.336C135.666 85.336 135.174 85.536 134.902 85.936C134.63 86.336 134.494 86.912 134.494 87.664V91H133.438V84.568H134.29L134.446 85.444H134.506C134.714 85.108 135.002 84.86 135.37 84.7C135.738 84.532 136.126 84.448 136.534 84.448ZM146.952 84.448C147.72 84.448 148.3 84.636 148.692 85.012C149.084 85.38 149.28 85.98 149.28 86.812V91H148.236V86.884C148.236 85.852 147.756 85.336 146.796 85.336C146.084 85.336 145.592 85.536 145.32 85.936C145.048 86.336 144.912 86.912 144.912 87.664V91H143.856V84.568H144.708L144.864 85.444H144.924C145.132 85.108 145.42 84.86 145.788 84.7C146.156 84.532 146.544 84.448 146.952 84.448ZM153.758 84.448C154.31 84.448 154.782 84.568 155.174 84.808C155.574 85.048 155.878 85.388 156.086 85.828C156.302 86.26 156.41 86.768 156.41 87.352V87.988H152.006C152.022 88.716 152.206 89.272 152.558 89.656C152.918 90.032 153.418 90.22 154.058 90.22C154.466 90.22 154.826 90.184 155.138 90.112C155.458 90.032 155.786 89.92 156.122 89.776V90.7C155.794 90.844 155.47 90.948 155.15 91.012C154.83 91.084 154.45 91.12 154.01 91.12C153.402 91.12 152.862 90.996 152.39 90.748C151.926 90.5 151.562 90.132 151.298 89.644C151.042 89.148 150.914 88.544 150.914 87.832C150.914 87.128 151.03 86.524 151.262 86.02C151.502 85.516 151.834 85.128 152.258 84.856C152.69 84.584 153.19 84.448 153.758 84.448ZM153.746 85.312C153.242 85.312 152.842 85.476 152.546 85.804C152.258 86.124 152.086 86.572 152.03 87.148H155.306C155.298 86.604 155.17 86.164 154.922 85.828C154.674 85.484 154.282 85.312 153.746 85.312ZM160.483 84.46C161.267 84.46 161.847 84.632 162.223 84.976C162.599 85.32 162.787 85.868 162.787 86.62V91H162.019L161.815 90.088H161.767C161.487 90.44 161.191 90.7 160.879 90.868C160.575 91.036 160.151 91.12 159.607 91.12C159.023 91.12 158.539 90.968 158.155 90.664C157.771 90.352 157.579 89.868 157.579 89.212C157.579 88.572 157.831 88.08 158.335 87.736C158.839 87.384 159.615 87.192 160.663 87.16L161.755 87.124V86.74C161.755 86.204 161.639 85.832 161.407 85.624C161.175 85.416 160.847 85.312 160.423 85.312C160.087 85.312 159.767 85.364 159.463 85.468C159.159 85.564 158.875 85.676 158.611 85.804L158.287 85.012C158.567 84.86 158.899 84.732 159.283 84.628C159.667 84.516 160.067 84.46 160.483 84.46ZM160.795 87.892C159.995 87.924 159.439 88.052 159.127 88.276C158.823 88.5 158.671 88.816 158.671 89.224C158.671 89.584 158.779 89.848 158.995 90.016C159.219 90.184 159.503 90.268 159.847 90.268C160.391 90.268 160.843 90.12 161.203 89.824C161.563 89.52 161.743 89.056 161.743 88.432V87.856L160.795 87.892ZM167.774 84.448C167.894 84.448 168.022 84.456 168.158 84.472C168.302 84.48 168.426 84.496 168.53 84.52L168.398 85.492C168.294 85.468 168.178 85.448 168.05 85.432C167.93 85.416 167.814 85.408 167.702 85.408C167.374 85.408 167.066 85.5 166.778 85.684C166.49 85.86 166.258 86.112 166.082 86.44C165.914 86.76 165.83 87.136 165.83 87.568V91H164.774V84.568H165.638L165.758 85.744H165.806C166.014 85.392 166.282 85.088 166.61 84.832C166.938 84.576 167.326 84.448 167.774 84.448ZM174.879 90.256C175.039 90.256 175.203 90.244 175.371 90.22C175.539 90.188 175.675 90.156 175.779 90.124V90.928C175.667 90.984 175.507 91.028 175.299 91.06C175.091 91.1 174.891 91.12 174.699 91.12C174.363 91.12 174.051 91.064 173.763 90.952C173.483 90.832 173.255 90.628 173.079 90.34C172.903 90.052 172.815 89.648 172.815 89.128V85.384H171.903V84.88L172.827 84.46L173.247 83.092H173.871V84.568H175.731V85.384H173.871V89.104C173.871 89.496 173.963 89.788 174.147 89.98C174.339 90.164 174.583 90.256 174.879 90.256ZM178.123 84.556C178.123 84.876 178.103 85.176 178.063 85.456H178.135C178.343 85.128 178.623 84.88 178.975 84.712C179.335 84.544 179.723 84.46 180.139 84.46C180.923 84.46 181.511 84.648 181.903 85.024C182.295 85.392 182.491 85.988 182.491 86.812V91H181.447V86.884C181.447 85.852 180.967 85.336 180.007 85.336C179.287 85.336 178.791 85.54 178.519 85.948C178.255 86.348 178.123 86.924 178.123 87.676V91H177.067V81.88H178.123V84.556ZM186.969 84.448C187.521 84.448 187.993 84.568 188.385 84.808C188.785 85.048 189.089 85.388 189.297 85.828C189.513 86.26 189.621 86.768 189.621 87.352V87.988H185.217C185.233 88.716 185.417 89.272 185.769 89.656C186.129 90.032 186.629 90.22 187.269 90.22C187.677 90.22 188.037 90.184 188.349 90.112C188.669 90.032 188.997 89.92 189.333 89.776V90.7C189.005 90.844 188.681 90.948 188.361 91.012C188.041 91.084 187.661 91.12 187.221 91.12C186.613 91.12 186.073 90.996 185.601 90.748C185.137 90.5 184.773 90.132 184.509 89.644C184.253 89.148 184.125 88.544 184.125 87.832C184.125 87.128 184.241 86.524 184.473 86.02C184.713 85.516 185.045 85.128 185.469 84.856C185.901 84.584 186.401 84.448 186.969 84.448ZM186.957 85.312C186.453 85.312 186.053 85.476 185.757 85.804C185.469 86.124 185.297 86.572 185.241 87.148H188.517C188.509 86.604 188.381 86.164 188.133 85.828C187.885 85.484 187.493 85.312 186.957 85.312ZM196.838 91.12C196.27 91.12 195.762 91.004 195.314 90.772C194.874 90.54 194.526 90.18 194.27 89.692C194.022 89.204 193.898 88.58 193.898 87.82C193.898 87.028 194.03 86.384 194.294 85.888C194.558 85.392 194.914 85.028 195.362 84.796C195.818 84.564 196.334 84.448 196.91 84.448C197.238 84.448 197.554 84.484 197.858 84.556C198.162 84.62 198.41 84.7 198.602 84.796L198.278 85.672C198.086 85.6 197.862 85.532 197.606 85.468C197.35 85.404 197.11 85.372 196.886 85.372C195.622 85.372 194.99 86.184 194.99 87.808C194.99 88.584 195.142 89.18 195.446 89.596C195.758 90.004 196.218 90.208 196.826 90.208C197.178 90.208 197.486 90.172 197.75 90.1C198.022 90.028 198.27 89.94 198.494 89.836V90.772C198.278 90.884 198.038 90.968 197.774 91.024C197.518 91.088 197.206 91.12 196.838 91.12ZM205.616 87.772C205.616 88.836 205.344 89.66 204.8 90.244C204.264 90.828 203.536 91.12 202.616 91.12C202.048 91.12 201.54 90.992 201.092 90.736C200.652 90.472 200.304 90.092 200.048 89.596C199.792 89.092 199.664 88.484 199.664 87.772C199.664 86.708 199.932 85.888 200.468 85.312C201.004 84.736 201.732 84.448 202.652 84.448C203.236 84.448 203.748 84.58 204.188 84.844C204.636 85.1 204.984 85.476 205.232 85.972C205.488 86.46 205.616 87.06 205.616 87.772ZM200.756 87.772C200.756 88.532 200.904 89.136 201.2 89.584C201.504 90.024 201.984 90.244 202.64 90.244C203.288 90.244 203.764 90.024 204.068 89.584C204.372 89.136 204.524 88.532 204.524 87.772C204.524 87.012 204.372 86.416 204.068 85.984C203.764 85.552 203.284 85.336 202.628 85.336C201.972 85.336 201.496 85.552 201.2 85.984C200.904 86.416 200.756 87.012 200.756 87.772ZM210.29 84.448C210.41 84.448 210.538 84.456 210.674 84.472C210.818 84.48 210.942 84.496 211.046 84.52L210.914 85.492C210.81 85.468 210.694 85.448 210.566 85.432C210.446 85.416 210.33 85.408 210.218 85.408C209.89 85.408 209.582 85.5 209.294 85.684C209.006 85.86 208.774 86.112 208.598 86.44C208.43 86.76 208.346 87.136 208.346 87.568V91H207.29V84.568H208.154L208.274 85.744H208.322C208.53 85.392 208.798 85.088 209.126 84.832C209.454 84.576 209.842 84.448 210.29 84.448ZM215.343 84.448C216.111 84.448 216.691 84.636 217.083 85.012C217.475 85.38 217.671 85.98 217.671 86.812V91H216.627V86.884C216.627 85.852 216.147 85.336 215.187 85.336C214.475 85.336 213.983 85.536 213.711 85.936C213.439 86.336 213.303 86.912 213.303 87.664V91H212.247V84.568H213.099L213.255 85.444H213.315C213.523 85.108 213.811 84.86 214.179 84.7C214.547 84.532 214.935 84.448 215.343 84.448ZM222.149 84.448C222.701 84.448 223.173 84.568 223.565 84.808C223.965 85.048 224.269 85.388 224.477 85.828C224.693 86.26 224.801 86.768 224.801 87.352V87.988H220.397C220.413 88.716 220.597 89.272 220.949 89.656C221.309 90.032 221.809 90.22 222.449 90.22C222.857 90.22 223.217 90.184 223.529 90.112C223.849 90.032 224.177 89.92 224.513 89.776V90.7C224.185 90.844 223.861 90.948 223.541 91.012C223.221 91.084 222.841 91.12 222.401 91.12C221.793 91.12 221.253 90.996 220.781 90.748C220.317 90.5 219.953 90.132 219.689 89.644C219.433 89.148 219.305 88.544 219.305 87.832C219.305 87.128 219.421 86.524 219.653 86.02C219.893 85.516 220.225 85.128 220.649 84.856C221.081 84.584 221.581 84.448 222.149 84.448ZM222.137 85.312C221.633 85.312 221.233 85.476 220.937 85.804C220.649 86.124 220.477 86.572 220.421 87.148H223.697C223.689 86.604 223.561 86.164 223.313 85.828C223.065 85.484 222.673 85.312 222.137 85.312ZM229.438 84.448C229.558 84.448 229.686 84.456 229.822 84.472C229.966 84.48 230.09 84.496 230.194 84.52L230.062 85.492C229.958 85.468 229.842 85.448 229.714 85.432C229.594 85.416 229.478 85.408 229.366 85.408C229.038 85.408 228.73 85.5 228.442 85.684C228.154 85.86 227.922 86.112 227.746 86.44C227.578 86.76 227.494 87.136 227.494 87.568V91H226.438V84.568H227.302L227.422 85.744H227.47C227.678 85.392 227.946 85.088 228.274 84.832C228.602 84.576 228.99 84.448 229.438 84.448ZM239.987 87.772C239.987 88.836 239.715 89.66 239.171 90.244C238.635 90.828 237.907 91.12 236.987 91.12C236.419 91.12 235.911 90.992 235.463 90.736C235.023 90.472 234.675 90.092 234.419 89.596C234.163 89.092 234.035 88.484 234.035 87.772C234.035 86.708 234.303 85.888 234.839 85.312C235.375 84.736 236.103 84.448 237.023 84.448C237.607 84.448 238.119 84.58 238.559 84.844C239.007 85.1 239.355 85.476 239.603 85.972C239.859 86.46 239.987 87.06 239.987 87.772ZM235.127 87.772C235.127 88.532 235.275 89.136 235.571 89.584C235.875 90.024 236.355 90.244 237.011 90.244C237.659 90.244 238.135 90.024 238.439 89.584C238.743 89.136 238.895 88.532 238.895 87.772C238.895 87.012 238.743 86.416 238.439 85.984C238.135 85.552 237.655 85.336 236.999 85.336C236.343 85.336 235.867 85.552 235.571 85.984C235.275 86.416 235.127 87.012 235.127 87.772ZM244.625 85.384H243.005V91H241.949V85.384H240.821V84.892L241.949 84.532V84.16C241.949 83.328 242.133 82.732 242.501 82.372C242.869 82.004 243.381 81.82 244.037 81.82C244.293 81.82 244.525 81.844 244.733 81.892C244.949 81.932 245.133 81.98 245.285 82.036L245.009 82.864C244.881 82.824 244.733 82.784 244.565 82.744C244.397 82.704 244.225 82.684 244.049 82.684C243.697 82.684 243.433 82.804 243.257 83.044C243.089 83.276 243.005 83.644 243.005 84.148V84.568H244.625V85.384ZM252.71 91L249.89 83.488H249.842C249.866 83.736 249.886 84.072 249.902 84.496C249.918 84.912 249.926 85.348 249.926 85.804V91H248.93V82.432H250.526L253.166 89.452H253.214L255.902 82.432H257.486V91H256.418V85.732C256.418 85.316 256.426 84.904 256.442 84.496C256.466 84.088 256.486 83.756 256.502 83.5H256.454L253.598 91H252.71ZM260.212 82.156C260.372 82.156 260.512 82.212 260.632 82.324C260.76 82.428 260.824 82.596 260.824 82.828C260.824 83.052 260.76 83.22 260.632 83.332C260.512 83.444 260.372 83.5 260.212 83.5C260.036 83.5 259.888 83.444 259.768 83.332C259.648 83.22 259.588 83.052 259.588 82.828C259.588 82.596 259.648 82.428 259.768 82.324C259.888 82.212 260.036 82.156 260.212 82.156ZM260.728 84.568V91H259.672V84.568H260.728ZM265.346 91.12C264.778 91.12 264.27 91.004 263.822 90.772C263.382 90.54 263.034 90.18 262.778 89.692C262.53 89.204 262.406 88.58 262.406 87.82C262.406 87.028 262.538 86.384 262.802 85.888C263.066 85.392 263.422 85.028 263.87 84.796C264.326 84.564 264.842 84.448 265.418 84.448C265.746 84.448 266.062 84.484 266.366 84.556C266.67 84.62 266.918 84.7 267.11 84.796L266.786 85.672C266.594 85.6 266.37 85.532 266.114 85.468C265.858 85.404 265.618 85.372 265.394 85.372C264.13 85.372 263.498 86.184 263.498 87.808C263.498 88.584 263.65 89.18 263.954 89.596C264.266 90.004 264.726 90.208 265.334 90.208C265.686 90.208 265.994 90.172 266.258 90.1C266.53 90.028 266.778 89.94 267.002 89.836V90.772C266.786 90.884 266.546 90.968 266.282 91.024C266.026 91.088 265.714 91.12 265.346 91.12ZM269.588 84.556C269.588 84.876 269.568 85.176 269.528 85.456H269.6C269.808 85.128 270.088 84.88 270.44 84.712C270.8 84.544 271.188 84.46 271.604 84.46C272.388 84.46 272.976 84.648 273.368 85.024C273.76 85.392 273.956 85.988 273.956 86.812V91H272.912V86.884C272.912 85.852 272.432 85.336 271.472 85.336C270.752 85.336 270.256 85.54 269.984 85.948C269.72 86.348 269.588 86.924 269.588 87.676V91H268.532V81.88H269.588V84.556ZM276.49 82.156C276.65 82.156 276.79 82.212 276.91 82.324C277.038 82.428 277.102 82.596 277.102 82.828C277.102 83.052 277.038 83.22 276.91 83.332C276.79 83.444 276.65 83.5 276.49 83.5C276.314 83.5 276.166 83.444 276.046 83.332C275.926 83.22 275.866 83.052 275.866 82.828C275.866 82.596 275.926 82.428 276.046 82.324C276.166 82.212 276.314 82.156 276.49 82.156ZM277.006 84.568V91H275.95V84.568H277.006ZM281.323 84.448C281.747 84.448 282.127 84.528 282.463 84.688C282.807 84.848 283.099 85.092 283.339 85.42H283.399L283.543 84.568H284.383V91.108C284.383 92.028 284.147 92.72 283.675 93.184C283.211 93.648 282.487 93.88 281.503 93.88C280.559 93.88 279.787 93.744 279.187 93.472V92.5C279.819 92.836 280.611 93.004 281.563 93.004C282.115 93.004 282.547 92.84 282.859 92.512C283.179 92.192 283.339 91.752 283.339 91.192V90.94C283.339 90.844 283.343 90.708 283.351 90.532C283.359 90.348 283.367 90.22 283.375 90.148H283.327C282.895 90.796 282.231 91.12 281.335 91.12C280.503 91.12 279.851 90.828 279.379 90.244C278.915 89.66 278.683 88.844 278.683 87.796C278.683 86.772 278.915 85.96 279.379 85.36C279.851 84.752 280.499 84.448 281.323 84.448ZM281.467 85.336C280.931 85.336 280.515 85.552 280.219 85.984C279.923 86.408 279.775 87.016 279.775 87.808C279.775 88.6 279.919 89.208 280.207 89.632C280.503 90.048 280.931 90.256 281.491 90.256C282.139 90.256 282.611 90.084 282.907 89.74C283.203 89.388 283.351 88.824 283.351 88.048V87.796C283.351 86.916 283.199 86.288 282.895 85.912C282.591 85.528 282.115 85.336 281.467 85.336ZM288.862 84.46C289.646 84.46 290.226 84.632 290.602 84.976C290.978 85.32 291.166 85.868 291.166 86.62V91H290.398L290.194 90.088H290.146C289.866 90.44 289.57 90.7 289.258 90.868C288.954 91.036 288.53 91.12 287.986 91.12C287.402 91.12 286.918 90.968 286.534 90.664C286.15 90.352 285.958 89.868 285.958 89.212C285.958 88.572 286.21 88.08 286.714 87.736C287.218 87.384 287.994 87.192 289.042 87.16L290.134 87.124V86.74C290.134 86.204 290.018 85.832 289.786 85.624C289.554 85.416 289.226 85.312 288.802 85.312C288.466 85.312 288.146 85.364 287.842 85.468C287.538 85.564 287.254 85.676 286.99 85.804L286.666 85.012C286.946 84.86 287.278 84.732 287.662 84.628C288.046 84.516 288.446 84.46 288.862 84.46ZM289.174 87.892C288.374 87.924 287.818 88.052 287.506 88.276C287.202 88.5 287.05 88.816 287.05 89.224C287.05 89.584 287.158 89.848 287.374 90.016C287.598 90.184 287.882 90.268 288.226 90.268C288.77 90.268 289.222 90.12 289.582 89.824C289.942 89.52 290.122 89.056 290.122 88.432V87.856L289.174 87.892ZM296.249 84.448C297.017 84.448 297.597 84.636 297.989 85.012C298.381 85.38 298.577 85.98 298.577 86.812V91H297.533V86.884C297.533 85.852 297.053 85.336 296.093 85.336C295.381 85.336 294.889 85.536 294.617 85.936C294.345 86.336 294.209 86.912 294.209 87.664V91H293.153V84.568H294.005L294.161 85.444H294.221C294.429 85.108 294.717 84.86 295.085 84.7C295.453 84.532 295.841 84.448 296.249 84.448ZM306.007 84.46C306.791 84.46 307.371 84.632 307.747 84.976C308.123 85.32 308.311 85.868 308.311 86.62V91H307.543L307.339 90.088H307.291C307.011 90.44 306.715 90.7 306.403 90.868C306.099 91.036 305.675 91.12 305.131 91.12C304.547 91.12 304.063 90.968 303.679 90.664C303.295 90.352 303.103 89.868 303.103 89.212C303.103 88.572 303.355 88.08 303.859 87.736C304.363 87.384 305.139 87.192 306.187 87.16L307.279 87.124V86.74C307.279 86.204 307.163 85.832 306.931 85.624C306.699 85.416 306.371 85.312 305.947 85.312C305.611 85.312 305.291 85.364 304.987 85.468C304.683 85.564 304.399 85.676 304.135 85.804L303.811 85.012C304.091 84.86 304.423 84.732 304.807 84.628C305.191 84.516 305.591 84.46 306.007 84.46ZM306.319 87.892C305.519 87.924 304.963 88.052 304.651 88.276C304.347 88.5 304.195 88.816 304.195 89.224C304.195 89.584 304.303 89.848 304.519 90.016C304.743 90.184 305.027 90.268 305.371 90.268C305.915 90.268 306.367 90.12 306.727 89.824C307.087 89.52 307.267 89.056 307.267 88.432V87.856L306.319 87.892ZM313.393 84.448C314.161 84.448 314.741 84.636 315.133 85.012C315.525 85.38 315.721 85.98 315.721 86.812V91H314.677V86.884C314.677 85.852 314.197 85.336 313.237 85.336C312.525 85.336 312.033 85.536 311.761 85.936C311.489 86.336 311.353 86.912 311.353 87.664V91H310.297V84.568H311.149L311.305 85.444H311.365C311.573 85.108 311.861 84.86 312.229 84.7C312.597 84.532 312.985 84.448 313.393 84.448ZM319.995 91.12C319.195 91.12 318.555 90.844 318.075 90.292C317.595 89.732 317.355 88.9 317.355 87.796C317.355 86.692 317.595 85.86 318.075 85.3C318.563 84.732 319.207 84.448 320.007 84.448C320.503 84.448 320.907 84.54 321.219 84.724C321.539 84.908 321.799 85.132 321.999 85.396H322.071C322.063 85.292 322.047 85.14 322.023 84.94C322.007 84.732 321.999 84.568 321.999 84.448V81.88H323.055V91H322.203L322.047 90.136H321.999C321.807 90.408 321.551 90.64 321.231 90.832C320.911 91.024 320.499 91.12 319.995 91.12ZM320.163 90.244C320.843 90.244 321.319 90.06 321.591 89.692C321.871 89.316 322.011 88.752 322.011 88V87.808C322.011 87.008 321.879 86.396 321.615 85.972C321.351 85.54 320.863 85.324 320.151 85.324C319.583 85.324 319.155 85.552 318.867 86.008C318.587 86.456 318.447 87.06 318.447 87.82C318.447 88.588 318.587 89.184 318.867 89.608C319.155 90.032 319.587 90.244 320.163 90.244ZM331.914 83.26C330.994 83.26 330.27 83.568 329.742 84.184C329.214 84.8 328.95 85.644 328.95 86.716C328.95 87.78 329.194 88.624 329.682 89.248C330.178 89.864 330.918 90.172 331.902 90.172C332.278 90.172 332.634 90.14 332.97 90.076C333.306 90.012 333.634 89.932 333.954 89.836V90.772C333.634 90.892 333.302 90.98 332.958 91.036C332.622 91.092 332.218 91.12 331.746 91.12C330.874 91.12 330.146 90.94 329.562 90.58C328.978 90.22 328.538 89.708 328.242 89.044C327.954 88.38 327.81 87.6 327.81 86.704C327.81 85.84 327.966 85.08 328.278 84.424C328.598 83.76 329.066 83.244 329.682 82.876C330.298 82.5 331.046 82.312 331.926 82.312C332.83 82.312 333.618 82.48 334.29 82.816L333.858 83.728C333.594 83.608 333.298 83.5 332.97 83.404C332.65 83.308 332.298 83.26 331.914 83.26ZM336.736 91H335.68V81.88H336.736V91ZM341.258 84.448C341.81 84.448 342.282 84.568 342.674 84.808C343.074 85.048 343.378 85.388 343.586 85.828C343.802 86.26 343.91 86.768 343.91 87.352V87.988H339.506C339.522 88.716 339.706 89.272 340.058 89.656C340.418 90.032 340.918 90.22 341.558 90.22C341.966 90.22 342.326 90.184 342.638 90.112C342.958 90.032 343.286 89.92 343.622 89.776V90.7C343.294 90.844 342.97 90.948 342.65 91.012C342.33 91.084 341.95 91.12 341.51 91.12C340.902 91.12 340.362 90.996 339.89 90.748C339.426 90.5 339.062 90.132 338.798 89.644C338.542 89.148 338.414 88.544 338.414 87.832C338.414 87.128 338.53 86.524 338.762 86.02C339.002 85.516 339.334 85.128 339.758 84.856C340.19 84.584 340.69 84.448 341.258 84.448ZM341.246 85.312C340.742 85.312 340.342 85.476 340.046 85.804C339.758 86.124 339.586 86.572 339.53 87.148H342.806C342.798 86.604 342.67 86.164 342.422 85.828C342.174 85.484 341.782 85.312 341.246 85.312ZM346.729 91L344.293 84.568H345.421L346.789 88.36C346.853 88.536 346.921 88.732 346.993 88.948C347.065 89.164 347.129 89.372 347.185 89.572C347.241 89.764 347.281 89.928 347.305 90.064H347.353C347.385 89.928 347.429 89.76 347.485 89.56C347.549 89.36 347.617 89.152 347.689 88.936C347.769 88.72 347.837 88.528 347.893 88.36L349.261 84.568H350.389L347.941 91H346.729ZM353.891 84.448C354.443 84.448 354.915 84.568 355.307 84.808C355.707 85.048 356.011 85.388 356.219 85.828C356.435 86.26 356.543 86.768 356.543 87.352V87.988H352.139C352.155 88.716 352.339 89.272 352.691 89.656C353.051 90.032 353.551 90.22 354.191 90.22C354.599 90.22 354.959 90.184 355.271 90.112C355.591 90.032 355.919 89.92 356.255 89.776V90.7C355.927 90.844 355.603 90.948 355.283 91.012C354.963 91.084 354.583 91.12 354.143 91.12C353.535 91.12 352.995 90.996 352.523 90.748C352.059 90.5 351.695 90.132 351.431 89.644C351.175 89.148 351.047 88.544 351.047 87.832C351.047 87.128 351.163 86.524 351.395 86.02C351.635 85.516 351.967 85.128 352.391 84.856C352.823 84.584 353.323 84.448 353.891 84.448ZM353.879 85.312C353.375 85.312 352.975 85.476 352.679 85.804C352.391 86.124 352.219 86.572 352.163 87.148H355.439C355.431 86.604 355.303 86.164 355.055 85.828C354.807 85.484 354.415 85.312 353.879 85.312ZM359.236 91H358.18V81.88H359.236V91ZM363.71 84.46C364.494 84.46 365.074 84.632 365.45 84.976C365.826 85.32 366.014 85.868 366.014 86.62V91H365.246L365.042 90.088H364.994C364.714 90.44 364.418 90.7 364.106 90.868C363.802 91.036 363.378 91.12 362.834 91.12C362.25 91.12 361.766 90.968 361.382 90.664C360.998 90.352 360.806 89.868 360.806 89.212C360.806 88.572 361.058 88.08 361.562 87.736C362.066 87.384 362.842 87.192 363.89 87.16L364.982 87.124V86.74C364.982 86.204 364.866 85.832 364.634 85.624C364.402 85.416 364.074 85.312 363.65 85.312C363.314 85.312 362.994 85.364 362.69 85.468C362.386 85.564 362.102 85.676 361.838 85.804L361.514 85.012C361.794 84.86 362.126 84.732 362.51 84.628C362.894 84.516 363.294 84.46 363.71 84.46ZM364.022 87.892C363.222 87.924 362.666 88.052 362.354 88.276C362.05 88.5 361.898 88.816 361.898 89.224C361.898 89.584 362.006 89.848 362.222 90.016C362.446 90.184 362.73 90.268 363.074 90.268C363.618 90.268 364.07 90.12 364.43 89.824C364.79 89.52 364.97 89.056 364.97 88.432V87.856L364.022 87.892ZM371.096 84.448C371.864 84.448 372.444 84.636 372.836 85.012C373.228 85.38 373.424 85.98 373.424 86.812V91H372.38V86.884C372.38 85.852 371.9 85.336 370.94 85.336C370.228 85.336 369.736 85.536 369.464 85.936C369.192 86.336 369.056 86.912 369.056 87.664V91H368V84.568H368.852L369.008 85.444H369.068C369.276 85.108 369.564 84.86 369.932 84.7C370.3 84.532 370.688 84.448 371.096 84.448ZM377.698 91.12C376.898 91.12 376.258 90.844 375.778 90.292C375.298 89.732 375.058 88.9 375.058 87.796C375.058 86.692 375.298 85.86 375.778 85.3C376.266 84.732 376.91 84.448 377.71 84.448C378.206 84.448 378.61 84.54 378.922 84.724C379.242 84.908 379.502 85.132 379.702 85.396H379.774C379.766 85.292 379.75 85.14 379.726 84.94C379.71 84.732 379.702 84.568 379.702 84.448V81.88H380.758V91H379.906L379.75 90.136H379.702C379.51 90.408 379.254 90.64 378.934 90.832C378.614 91.024 378.202 91.12 377.698 91.12ZM377.866 90.244C378.546 90.244 379.022 90.06 379.294 89.692C379.574 89.316 379.714 88.752 379.714 88V87.808C379.714 87.008 379.582 86.396 379.318 85.972C379.054 85.54 378.566 85.324 377.854 85.324C377.286 85.324 376.858 85.552 376.57 86.008C376.29 86.456 376.15 87.06 376.15 87.82C376.15 88.588 376.29 89.184 376.57 89.608C376.858 90.032 377.29 90.244 377.866 90.244ZM382.895 89.834C383.02 89.834 383.131 89.8633 383.229 89.9219C383.326 89.9805 383.402 90.0586 383.457 90.1562C383.516 90.25 383.545 90.3594 383.545 90.4844C383.545 90.6094 383.516 90.7207 383.457 90.8184C383.398 90.9121 383.32 90.9883 383.223 91.0469C383.129 91.1055 383.02 91.1348 382.895 91.1348C382.742 91.1348 382.596 91.0781 382.455 90.9648C382.318 90.8477 382.25 90.6875 382.25 90.4844C382.25 90.3047 382.312 90.1523 382.438 90.0273C382.562 89.8984 382.715 89.834 382.895 89.834Z" fill="#757575"/>
<path opacity="0.4" d="M401.629 12.3749C400.696 11.4422 399.373 11 397.811 11C395.561 11 392.811 11.9359 390 13.62C388.821 14.3319 387.696 15.1279 386.631 16.0016C385.159 17.2026 383.65 18.579 381.977 20.6291C382.564 21.8134 383.257 22.9417 384.049 23.9999C385.737 21.7445 387.741 19.7441 390 18.0604C391.059 17.2741 392.186 16.5851 393.369 16.0017C397.432 14.0091 398.895 14.8947 399.002 15.0014C399.555 15.5552 399.447 17.7259 398.023 20.6291C398.893 21.6942 399.685 22.8208 400.392 24C403.248 19.2364 403.905 14.6505 401.629 12.3749ZM390 29.9395C388.941 30.7257 387.814 31.4148 386.631 31.9983C382.568 33.9909 381.105 33.1053 380.998 32.9986C380.445 32.4448 380.553 30.2742 381.977 27.3709C381.107 26.3058 380.315 25.1792 379.608 24C376.752 28.7636 376.095 33.3495 378.371 35.6249C379.304 36.5578 380.627 37 382.189 37C384.439 37 387.189 36.0641 390 34.38C391.179 33.6681 392.304 32.8721 393.369 31.9984C394.842 30.7968 396.353 29.4183 398.023 27.3709C397.436 26.1865 396.743 25.0582 395.951 24C394.263 26.2554 392.259 28.2558 390 29.9395Z" fill="#434C69"/>
<path d="M390 25.8565C390.367 25.8564 390.726 25.7474 391.031 25.5434C391.337 25.3393 391.575 25.0493 391.715 24.71C391.856 24.3707 391.892 23.9974 391.821 23.6372C391.749 23.277 391.572 22.9462 391.312 22.6866C391.053 22.4269 390.722 22.2501 390.362 22.1785C390.002 22.1069 389.628 22.1437 389.289 22.2842C388.95 22.4248 388.66 22.6628 388.456 22.9681C388.252 23.2735 388.143 23.6324 388.143 23.9997C388.143 24.2435 388.191 24.485 388.284 24.7104C388.377 24.9357 388.514 25.1404 388.687 25.3128C388.859 25.4853 389.064 25.622 389.289 25.7153C389.515 25.8086 389.756 25.8565 390 25.8565ZM384.049 23.9999C383.257 22.9417 382.564 21.8134 381.977 20.6291C380.553 17.7259 380.445 15.5552 380.998 15.0015C381.105 14.8949 382.568 14.009 386.631 16.0016C387.696 15.1279 388.821 14.332 390 13.62C387.189 11.9362 384.438 11 382.189 11C380.626 11 379.305 11.442 378.371 12.3749C376.095 14.6505 376.752 19.2364 379.608 24C380.315 25.1792 381.107 26.3058 381.977 27.3709C383.648 29.4198 385.161 30.7992 386.631 31.9983C387.814 31.4148 388.941 30.7257 390 29.9395C387.741 28.2558 385.737 26.2554 384.049 23.9999ZM400.392 24C399.685 22.8208 398.893 21.6942 398.023 20.6291C396.349 18.5772 394.837 17.1989 393.369 16.0017C392.186 16.5852 391.059 17.2742 390 18.0604C392.259 19.7441 394.263 21.7445 395.951 24C396.743 25.0582 397.436 26.1865 398.023 27.3709C399.447 30.274 399.555 32.4447 399.002 32.9985C398.895 33.1051 397.432 33.991 393.369 31.9984C392.304 32.8721 391.179 33.668 390 34.38C392.811 36.0638 395.562 37 397.811 37C399.374 37 400.695 36.558 401.629 35.6249C403.905 33.3495 403.248 28.7636 400.392 24Z" fill="#434C69"/>
</svg>
