<svg width="423" height="122" viewBox="0 0 423 122" fill="none" xmlns="http://www.w3.org/2000/svg">
<rect width="423" height="122" rx="6" fill="#F5F5F5"/>
<path d="M16.536 29L16.824 27.624L18.28 26.984L19.848 19.592L18.664 18.952L18.952 17.576H24.008L23.72 18.952L22.232 19.592L20.664 26.984L21.88 27.624L21.592 29H16.536ZM26.293 29.16C25.877 29.16 25.477 29.0587 25.093 28.856C24.7197 28.6427 24.4157 28.3067 24.181 27.848C23.9463 27.3787 23.829 26.7547 23.829 25.976C23.829 25.272 23.925 24.5733 24.117 23.88C24.309 23.176 24.581 22.5413 24.933 21.976C25.285 21.4107 25.7063 20.9573 26.197 20.616C26.6983 20.2747 27.2583 20.104 27.877 20.104C28.3997 20.104 28.8103 20.2267 29.109 20.472C29.4077 20.7173 29.6583 21.0213 29.861 21.384H29.925C29.925 21.352 29.9303 21.24 29.941 21.048C29.9623 20.8453 29.989 20.616 30.021 20.36C30.053 20.0933 30.0903 19.8533 30.133 19.64L30.725 16.84H33.077L30.501 29H28.709L28.853 27.864H28.789C28.4797 28.248 28.1277 28.5627 27.733 28.808C27.3383 29.0427 26.8583 29.16 26.293 29.16ZM27.285 27.256C27.6583 27.256 27.973 27.1173 28.229 26.84C28.4957 26.552 28.709 26.2 28.869 25.784C29.0397 25.3573 29.1623 24.9307 29.237 24.504C29.3223 24.0667 29.365 23.6933 29.365 23.384C29.365 22.968 29.269 22.6373 29.077 22.392C28.885 22.136 28.6183 22.008 28.277 22.008C27.989 22.008 27.717 22.1253 27.461 22.36C27.2157 22.584 26.997 22.8827 26.805 23.256C26.6237 23.6293 26.4797 24.0453 26.373 24.504C26.2663 24.9627 26.213 25.4213 26.213 25.88C26.213 26.7973 26.5703 27.256 27.285 27.256ZM32.913 29L35.489 16.84H37.841L35.265 29H32.913ZM41.071 19.176C40.7403 19.176 40.4577 19.1067 40.223 18.968C39.999 18.8187 39.887 18.568 39.887 18.216C39.887 17.768 40.0097 17.4267 40.255 17.192C40.511 16.9573 40.863 16.84 41.311 16.84C41.6203 16.84 41.8923 16.9093 42.127 17.048C42.3617 17.1867 42.479 17.432 42.479 17.784C42.479 18.2 42.3617 18.536 42.127 18.792C41.903 19.048 41.551 19.176 41.071 19.176ZM37.663 29L39.519 20.264H41.871L40.015 29H37.663ZM42.413 29L44.269 20.264H46.061L45.901 21.88H45.965C46.3063 21.3573 46.6957 20.9307 47.133 20.6C47.581 20.2693 48.109 20.104 48.717 20.104C49.4743 20.104 50.0397 20.3333 50.413 20.792C50.7863 21.24 50.973 21.848 50.973 22.616C50.973 23 50.9143 23.4693 50.797 24.024L49.757 29H47.405L48.477 23.896C48.5623 23.5227 48.605 23.2133 48.605 22.968C48.605 22.328 48.3223 22.008 47.757 22.008C47.405 22.008 47.085 22.1627 46.797 22.472C46.509 22.7707 46.2583 23.176 46.045 23.688C45.8423 24.2 45.6717 24.7653 45.533 25.384L44.765 29H42.413ZM54.8373 32.84C54.1866 32.84 53.6479 32.7867 53.2213 32.68C52.7946 32.584 52.3839 32.4507 51.9893 32.28V30.232C52.3946 30.4453 52.8213 30.6107 53.2693 30.728C53.7279 30.8453 54.2079 30.904 54.7093 30.904C55.2533 30.904 55.6959 30.776 56.0373 30.52C56.3893 30.2747 56.6346 29.8853 56.7733 29.352L56.8373 29.112C56.8906 28.92 56.9546 28.7013 57.0293 28.456C57.1146 28.2 57.1786 27.992 57.2213 27.832H57.1573C56.8799 28.1947 56.5599 28.5093 56.1973 28.776C55.8346 29.032 55.3813 29.16 54.8373 29.16C54.4213 29.16 54.0319 29.048 53.6693 28.824C53.3173 28.6 53.0293 28.2587 52.8053 27.8C52.5919 27.3307 52.4853 26.728 52.4853 25.992C52.4853 25.2773 52.5813 24.5733 52.7733 23.88C52.9653 23.1867 53.2373 22.5573 53.5893 21.992C53.9413 21.416 54.3626 20.9573 54.8533 20.616C55.3439 20.2747 55.8879 20.104 56.4852 20.104C57.0506 20.104 57.4933 20.2213 57.8133 20.456C58.1439 20.68 58.4373 20.9893 58.6933 21.384H58.7573L59.2053 20.264H61.0133L59.1093 29.208C58.9173 30.1253 58.6186 30.8453 58.2133 31.368C57.8186 31.9013 57.3386 32.28 56.7733 32.504C56.2079 32.728 55.5626 32.84 54.8373 32.84ZM55.9733 27.256C56.3039 27.256 56.5919 27.1333 56.8373 26.888C57.0933 26.632 57.3066 26.3067 57.4773 25.912C57.6586 25.5173 57.7919 25.096 57.8773 24.648C57.9733 24.2 58.0213 23.7787 58.0213 23.384C58.0213 22.968 57.9253 22.6373 57.7333 22.392C57.5413 22.136 57.2799 22.008 56.9493 22.008C56.6506 22.008 56.3733 22.1253 56.1173 22.36C55.8719 22.584 55.6533 22.8827 55.4613 23.256C55.2799 23.6293 55.1359 24.0453 55.0293 24.504C54.9226 24.9627 54.8693 25.4213 54.8693 25.88C54.8693 26.3387 54.9653 26.6853 55.1573 26.92C55.3599 27.144 55.6319 27.256 55.9733 27.256ZM67.4633 29L66.4713 17.576H68.7753L69.1753 24.456C69.1966 24.7867 69.2019 25.16 69.1913 25.576C69.1913 25.992 69.1806 26.3547 69.1593 26.664H69.2233C69.3406 26.312 69.4686 25.9493 69.6073 25.576C69.7566 25.192 69.9166 24.8187 70.0873 24.456L73.4473 17.576H75.9113L70.0713 29H67.4633ZM78.3163 29.16C77.2923 29.16 76.4603 28.8827 75.8203 28.328C75.1803 27.7627 74.8603 26.9147 74.8603 25.784C74.8603 25.048 74.9616 24.344 75.1643 23.672C75.3776 22.9893 75.6869 22.3813 76.0923 21.848C76.5083 21.3147 77.0203 20.8933 77.6283 20.584C78.2363 20.264 78.9403 20.104 79.7403 20.104C80.7216 20.104 81.4523 20.328 81.9323 20.776C82.4229 21.224 82.6683 21.7947 82.6683 22.488C82.6683 23.4053 82.2523 24.1413 81.4203 24.696C80.5989 25.2507 79.3403 25.528 77.6443 25.528H77.2443C77.2336 25.592 77.2283 25.6507 77.2283 25.704C77.2283 25.7467 77.2283 25.7947 77.2283 25.848C77.2283 26.3173 77.3616 26.6907 77.6283 26.968C77.9056 27.2453 78.2896 27.384 78.7803 27.384C79.2389 27.384 79.6549 27.3307 80.0283 27.224C80.4016 27.1173 80.8443 26.9467 81.3563 26.712V28.488C80.8976 28.712 80.4336 28.8827 79.9643 29C79.4949 29.1067 78.9456 29.16 78.3163 29.16ZM77.8523 23.944C78.7589 23.944 79.4096 23.8053 79.8043 23.528C80.2096 23.24 80.4123 22.9093 80.4123 22.536C80.4123 22.0453 80.1403 21.8 79.5963 21.8C79.3083 21.8 79.0203 21.8907 78.7323 22.072C78.4443 22.2533 78.1883 22.504 77.9643 22.824C77.7509 23.144 77.5963 23.5173 77.5003 23.944H77.8523ZM83.3505 29L85.9265 16.84H88.2785L87.8305 18.952C87.7878 19.1867 87.7238 19.4587 87.6385 19.768C87.5532 20.0773 87.4678 20.3813 87.3825 20.68C87.2972 20.968 87.2172 21.2187 87.1425 21.432H87.2065C87.5265 21.0267 87.8838 20.7067 88.2785 20.472C88.6732 20.2267 89.1318 20.104 89.6545 20.104C90.4118 20.104 90.9772 20.3333 91.3505 20.792C91.7238 21.24 91.9105 21.848 91.9105 22.616C91.9105 23 91.8518 23.4693 91.7345 24.024L90.6945 29H88.3425L89.4145 23.896C89.4998 23.5227 89.5425 23.2133 89.5425 22.968C89.5425 22.328 89.2598 22.008 88.6945 22.008C88.3425 22.008 88.0225 22.1627 87.7345 22.472C87.4465 22.7707 87.1958 23.176 86.9825 23.688C86.7798 24.2 86.6092 24.7653 86.4705 25.384L85.7025 29H83.3505ZM96.4148 19.176C96.0841 19.176 95.8014 19.1067 95.5668 18.968C95.3428 18.8187 95.2308 18.568 95.2308 18.216C95.2308 17.768 95.3534 17.4267 95.5988 17.192C95.8548 16.9573 96.2068 16.84 96.6548 16.84C96.9641 16.84 97.2361 16.9093 97.4708 17.048C97.7054 17.1867 97.8228 17.432 97.8228 17.784C97.8228 18.2 97.7054 18.536 97.4708 18.792C97.2468 19.048 96.8948 19.176 96.4148 19.176ZM93.0068 29L94.8628 20.264H97.2148L95.3588 29H93.0068ZM101.421 29.16C100.823 29.16 100.274 29.0533 99.7728 28.84C99.2821 28.616 98.8928 28.2693 98.6048 27.8C98.3168 27.3307 98.1728 26.712 98.1728 25.944C98.1728 25.1547 98.2741 24.4133 98.4768 23.72C98.6794 23.016 98.9781 22.392 99.3728 21.848C99.7674 21.304 100.253 20.8773 100.829 20.568C101.405 20.2587 102.061 20.104 102.797 20.104C103.319 20.104 103.783 20.152 104.189 20.248C104.605 20.344 104.994 20.4827 105.357 20.664L104.637 22.456C104.359 22.3387 104.082 22.2373 103.805 22.152C103.538 22.056 103.234 22.008 102.893 22.008C102.402 22.008 101.981 22.1947 101.629 22.568C101.277 22.9307 101.01 23.4 100.829 23.976C100.647 24.5413 100.557 25.1333 100.557 25.752C100.557 26.2427 100.674 26.616 100.909 26.872C101.143 27.128 101.474 27.256 101.901 27.256C102.295 27.256 102.658 27.1973 102.989 27.08C103.33 26.952 103.682 26.7973 104.045 26.616V28.536C103.682 28.728 103.287 28.8827 102.861 29C102.445 29.1067 101.965 29.16 101.421 29.16ZM105.491 29L108.067 16.84H110.419L107.843 29H105.491ZM114.113 29.16C113.089 29.16 112.257 28.8827 111.617 28.328C110.977 27.7627 110.657 26.9147 110.657 25.784C110.657 25.048 110.758 24.344 110.961 23.672C111.174 22.9893 111.484 22.3813 111.889 21.848C112.305 21.3147 112.817 20.8933 113.425 20.584C114.033 20.264 114.737 20.104 115.537 20.104C116.518 20.104 117.249 20.328 117.729 20.776C118.22 21.224 118.465 21.7947 118.465 22.488C118.465 23.4053 118.049 24.1413 117.217 24.696C116.396 25.2507 115.137 25.528 113.441 25.528H113.041C113.03 25.592 113.025 25.6507 113.025 25.704C113.025 25.7467 113.025 25.7947 113.025 25.848C113.025 26.3173 113.158 26.6907 113.425 26.968C113.702 27.2453 114.086 27.384 114.577 27.384C115.036 27.384 115.452 27.3307 115.825 27.224C116.198 27.1173 116.641 26.9467 117.153 26.712V28.488C116.694 28.712 116.23 28.8827 115.761 29C115.292 29.1067 114.742 29.16 114.113 29.16ZM113.649 23.944C114.556 23.944 115.206 23.8053 115.601 23.528C116.006 23.24 116.209 22.9093 116.209 22.536C116.209 22.0453 115.937 21.8 115.393 21.8C115.105 21.8 114.817 21.8907 114.529 22.072C114.241 22.2533 113.985 22.504 113.761 22.824C113.548 23.144 113.393 23.5173 113.297 23.944H113.649Z" fill="black"/>
<path d="M19.988 47H21.416V39.632H24.152V38.42H17.24V39.632H19.988V47ZM25.7025 39.836C26.0745 39.836 26.4225 39.596 26.4225 39.164C26.4225 38.732 26.0745 38.504 25.7025 38.504C25.3545 38.504 24.9945 38.732 24.9945 39.164C24.9945 39.596 25.3545 39.836 25.7025 39.836ZM25.0785 40.868V47H26.3385V40.868H25.0785ZM28.2675 39.836C28.6275 39.836 28.9875 39.596 28.9875 39.164C28.9875 38.732 28.6275 38.504 28.2675 38.504C27.9195 38.504 27.5595 38.732 27.5595 39.164C27.5595 39.596 27.9195 39.836 28.2675 39.836ZM27.6435 40.868V47.3C27.6435 47.996 27.4275 48.044 26.6115 47.996V48.956C26.9595 49.04 27.2235 49.088 27.5955 49.088C28.6035 49.088 28.9035 48.416 28.9035 47.288V40.868H27.6435ZM34.2179 40.868V44.6C34.2179 45.512 33.5939 46.1 32.6219 46.1C31.7579 46.1 31.4099 45.572 31.4099 44.744V40.868H30.1379V45.104C30.1379 46.508 31.0379 47.168 32.1779 47.168C33.2339 47.168 33.8699 46.688 34.1939 46.208H34.2179V47H35.4779V40.868H34.2179ZM40.3861 42.476C40.3861 43.064 39.8101 43.184 38.8621 43.364C37.3261 43.664 36.3301 44.084 36.3301 45.428C36.3301 46.46 37.0981 47.18 38.3461 47.18C39.2941 47.18 39.9901 46.808 40.3741 46.268H40.3981C40.5181 46.868 40.8301 47.108 41.5021 47.108C41.7421 47.108 41.9461 47.084 42.2341 46.976V46.376C41.7421 46.424 41.6461 46.196 41.6461 45.764V42.848C41.6461 41.216 40.6381 40.7 39.2821 40.7C37.4341 40.7 36.6781 41.624 36.6181 42.8H37.8421C37.9021 42.008 38.2741 41.696 39.2821 41.696C40.1221 41.696 40.3861 42.032 40.3861 42.476ZM38.6221 46.184C37.9381 46.184 37.6021 45.872 37.6021 45.308C37.6021 44.684 38.0581 44.384 39.1021 44.156C39.6901 44.036 40.1821 43.892 40.3861 43.748V44.672C40.3861 45.668 39.6661 46.184 38.6221 46.184ZM46.2711 40.7C45.2151 40.7 44.5791 41.18 44.2551 41.66H44.2311V40.868H42.9711V47H44.2311V43.268C44.2311 42.356 44.8551 41.768 45.8271 41.768C46.6911 41.768 47.0391 42.296 47.0391 43.124V47H48.3111V42.764C48.3111 41.36 47.4111 40.7 46.2711 40.7ZM53.1713 42.476C53.1713 43.064 52.5953 43.184 51.6473 43.364C50.1113 43.664 49.1153 44.084 49.1153 45.428C49.1153 46.46 49.8833 47.18 51.1313 47.18C52.0793 47.18 52.7753 46.808 53.1593 46.268H53.1833C53.3033 46.868 53.6153 47.108 54.2873 47.108C54.5273 47.108 54.7313 47.084 55.0193 46.976V46.376C54.5273 46.424 54.4313 46.196 54.4313 45.764V42.848C54.4313 41.216 53.4233 40.7 52.0673 40.7C50.2193 40.7 49.4633 41.624 49.4033 42.8H50.6273C50.6873 42.008 51.0593 41.696 52.0673 41.696C52.9073 41.696 53.1713 42.032 53.1713 42.476ZM51.4073 46.184C50.7233 46.184 50.3873 45.872 50.3873 45.308C50.3873 44.684 50.8433 44.384 51.8873 44.156C52.4753 44.036 52.9673 43.892 53.1713 43.748V44.672C53.1713 45.668 52.4513 46.184 51.4073 46.184ZM56.6406 47.084C56.6406 47.54 56.3526 47.912 55.9086 47.996V48.68C56.9526 48.512 57.3846 47.516 57.3846 46.64C57.3846 45.968 57.1086 45.536 56.5686 45.536C56.1366 45.536 55.7886 45.824 55.7886 46.34C55.7886 46.904 56.1726 47.168 56.6406 47.084Z" fill="#133949"/>
<path d="M18.884 57.648C18.884 56.508 19.352 55.716 20.588 55.716C21.656 55.716 21.98 56.4 21.98 57.084C21.98 58.26 21.008 58.656 19.484 59.664C18.212 60.468 17.336 61.536 17.336 63H23.288V61.824H19.148V61.8C19.832 60.108 23.372 59.664 23.372 57.024C23.372 55.44 22.16 54.528 20.624 54.528C18.5 54.528 17.54 55.86 17.54 57.648H18.884ZM27.5889 63.18C29.9289 63.18 30.9249 61.212 30.9249 58.86C30.9249 56.508 29.9289 54.528 27.5889 54.528C25.2489 54.528 24.2529 56.508 24.2529 58.86C24.2529 61.212 25.2489 63.18 27.5889 63.18ZM27.5889 61.992C26.1249 61.992 25.6329 60.588 25.6329 58.86C25.6329 57.132 26.1249 55.716 27.5889 55.716C29.0529 55.716 29.5329 57.132 29.5329 58.86C29.5329 60.588 29.0529 61.992 27.5889 61.992ZM33.1692 57.648C33.1692 56.508 33.6372 55.716 34.8732 55.716C35.9412 55.716 36.2652 56.4 36.2652 57.084C36.2652 58.26 35.2932 58.656 33.7692 59.664C32.4972 60.468 31.6212 61.536 31.6212 63H37.5732V61.824H33.4332V61.8C34.1172 60.108 37.6572 59.664 37.6572 57.024C37.6572 55.44 36.4452 54.528 34.9092 54.528C32.7852 54.528 31.8252 55.86 31.8252 57.648H33.1692ZM40.4818 54.708C40.3978 55.728 39.9658 56.472 38.4658 56.472V57.468C39.1618 57.468 39.7138 57.468 40.2058 56.988V63H41.5978V54.708H40.4818ZM42.9086 59.364V60.54H46.1366V59.364H42.9086ZM50.3936 63.18C52.7336 63.18 53.7296 61.212 53.7296 58.86C53.7296 56.508 52.7336 54.528 50.3936 54.528C48.0536 54.528 47.0576 56.508 47.0576 58.86C47.0576 61.212 48.0536 63.18 50.3936 63.18ZM50.3936 61.992C48.9296 61.992 48.4376 60.588 48.4376 58.86C48.4376 57.132 48.9296 55.716 50.3936 55.716C51.8576 55.716 52.3376 57.132 52.3376 58.86C52.3376 60.588 51.8576 61.992 50.3936 61.992ZM59.7759 63V61.116H60.9399V59.94H59.7759V54.708H58.3839L54.4599 59.82V61.116H58.3839V63H59.7759ZM58.3839 56.436V59.94H55.6959L58.3839 56.436ZM61.6468 59.364V60.54H64.8748V59.364H61.6468ZM69.1318 63.18C71.4718 63.18 72.4678 61.212 72.4678 58.86C72.4678 56.508 71.4718 54.528 69.1318 54.528C66.7918 54.528 65.7958 56.508 65.7958 58.86C65.7958 61.212 66.7918 63.18 69.1318 63.18ZM69.1318 61.992C67.6678 61.992 67.1758 60.588 67.1758 58.86C67.1758 57.132 67.6678 55.716 69.1318 55.716C70.5958 55.716 71.0758 57.132 71.0758 58.86C71.0758 60.588 70.5958 61.992 69.1318 61.992ZM73.1644 60.66C73.1644 62.34 74.5564 63.18 76.3684 63.18C78.1804 63.18 79.5844 62.34 79.5844 60.66C79.5844 59.52 78.8164 58.932 78.0364 58.584V58.56C78.6124 58.248 79.1764 57.732 79.1764 56.796C79.1764 55.368 77.9884 54.528 76.3684 54.528C74.7484 54.528 73.5604 55.368 73.5604 56.796C73.5604 57.732 74.1124 58.248 74.7004 58.56V58.584C73.9084 58.932 73.1644 59.52 73.1644 60.66ZM76.3684 58.068C75.4444 58.068 74.8684 57.66 74.8684 56.856C74.8684 56.064 75.4444 55.632 76.3684 55.632C77.2924 55.632 77.8684 56.064 77.8684 56.856C77.8684 57.66 77.2924 58.068 76.3684 58.068ZM76.3684 62.04C75.2524 62.04 74.5444 61.488 74.5444 60.576C74.5444 59.676 75.2524 59.124 76.3684 59.124C77.4964 59.124 78.1924 59.676 78.1924 60.576C78.1924 61.488 77.4964 62.04 76.3684 62.04Z" fill="#133949"/>
<path d="M23.024 88.708C23.024 89.468 22.748 90.06 22.196 90.484C21.644 90.908 20.9 91.12 19.964 91.12C19.484 91.12 19.04 91.084 18.632 91.012C18.224 90.94 17.884 90.84 17.612 90.712V89.68C17.9 89.808 18.256 89.924 18.68 90.028C19.112 90.132 19.556 90.184 20.012 90.184C20.652 90.184 21.132 90.06 21.452 89.812C21.78 89.564 21.944 89.228 21.944 88.804C21.944 88.524 21.884 88.288 21.764 88.096C21.644 87.904 21.436 87.728 21.14 87.568C20.852 87.4 20.448 87.224 19.928 87.04C19.2 86.776 18.648 86.452 18.272 86.068C17.904 85.684 17.72 85.16 17.72 84.496C17.72 84.04 17.836 83.652 18.068 83.332C18.3 83.004 18.62 82.752 19.028 82.576C19.444 82.4 19.92 82.312 20.456 82.312C20.928 82.312 21.36 82.356 21.752 82.444C22.144 82.532 22.5 82.648 22.82 82.792L22.484 83.716C22.188 83.588 21.864 83.48 21.512 83.392C21.168 83.304 20.808 83.26 20.432 83.26C19.896 83.26 19.492 83.376 19.22 83.608C18.948 83.832 18.812 84.132 18.812 84.508C18.812 84.796 18.872 85.036 18.992 85.228C19.112 85.42 19.308 85.592 19.58 85.744C19.852 85.896 20.22 86.06 20.684 86.236C21.188 86.42 21.612 86.62 21.956 86.836C22.308 87.044 22.572 87.296 22.748 87.592C22.932 87.888 23.024 88.26 23.024 88.708ZM27.0899 84.448C27.6419 84.448 28.1139 84.568 28.5059 84.808C28.9059 85.048 29.2099 85.388 29.4179 85.828C29.6339 86.26 29.7419 86.768 29.7419 87.352V87.988H25.3379C25.3539 88.716 25.5379 89.272 25.8899 89.656C26.2499 90.032 26.7499 90.22 27.3899 90.22C27.7979 90.22 28.1579 90.184 28.4699 90.112C28.7899 90.032 29.1179 89.92 29.4539 89.776V90.7C29.1259 90.844 28.8019 90.948 28.4819 91.012C28.1619 91.084 27.7819 91.12 27.3419 91.12C26.7339 91.12 26.1939 90.996 25.7219 90.748C25.2579 90.5 24.8939 90.132 24.6299 89.644C24.3739 89.148 24.2459 88.544 24.2459 87.832C24.2459 87.128 24.3619 86.524 24.5939 86.02C24.8339 85.516 25.1659 85.128 25.5899 84.856C26.0219 84.584 26.5219 84.448 27.0899 84.448ZM27.0779 85.312C26.5739 85.312 26.1739 85.476 25.8779 85.804C25.5899 86.124 25.4179 86.572 25.3619 87.148H28.6379C28.6299 86.604 28.5019 86.164 28.2539 85.828C28.0059 85.484 27.6139 85.312 27.0779 85.312ZM32.561 91L30.125 84.568H31.253L32.621 88.36C32.685 88.536 32.753 88.732 32.825 88.948C32.897 89.164 32.961 89.372 33.017 89.572C33.073 89.764 33.113 89.928 33.137 90.064H33.185C33.217 89.928 33.261 89.76 33.317 89.56C33.381 89.36 33.449 89.152 33.521 88.936C33.601 88.72 33.669 88.528 33.725 88.36L35.093 84.568H36.221L33.773 91H32.561ZM39.7228 84.448C40.2748 84.448 40.7468 84.568 41.1388 84.808C41.5388 85.048 41.8428 85.388 42.0508 85.828C42.2668 86.26 42.3748 86.768 42.3748 87.352V87.988H37.9708C37.9868 88.716 38.1708 89.272 38.5228 89.656C38.8828 90.032 39.3828 90.22 40.0228 90.22C40.4308 90.22 40.7908 90.184 41.1028 90.112C41.4228 90.032 41.7508 89.92 42.0868 89.776V90.7C41.7588 90.844 41.4348 90.948 41.1148 91.012C40.7948 91.084 40.4148 91.12 39.9748 91.12C39.3668 91.12 38.8268 90.996 38.3548 90.748C37.8908 90.5 37.5268 90.132 37.2628 89.644C37.0068 89.148 36.8788 88.544 36.8788 87.832C36.8788 87.128 36.9948 86.524 37.2268 86.02C37.4668 85.516 37.7988 85.128 38.2228 84.856C38.6548 84.584 39.1548 84.448 39.7228 84.448ZM39.7108 85.312C39.2068 85.312 38.8068 85.476 38.5108 85.804C38.2228 86.124 38.0508 86.572 37.9948 87.148H41.2708C41.2628 86.604 41.1348 86.164 40.8868 85.828C40.6388 85.484 40.2468 85.312 39.7108 85.312ZM47.0122 84.448C47.1322 84.448 47.2602 84.456 47.3962 84.472C47.5402 84.48 47.6642 84.496 47.7682 84.52L47.6362 85.492C47.5322 85.468 47.4162 85.448 47.2882 85.432C47.1682 85.416 47.0522 85.408 46.9402 85.408C46.6122 85.408 46.3042 85.5 46.0162 85.684C45.7282 85.86 45.4962 86.112 45.3202 86.44C45.1522 86.76 45.0682 87.136 45.0682 87.568V91H44.0122V84.568H44.8762L44.9962 85.744H45.0442C45.2522 85.392 45.5202 85.088 45.8482 84.832C46.1762 84.576 46.5642 84.448 47.0122 84.448ZM51.1708 84.46C51.9548 84.46 52.5348 84.632 52.9108 84.976C53.2868 85.32 53.4748 85.868 53.4748 86.62V91H52.7068L52.5028 90.088H52.4548C52.1748 90.44 51.8788 90.7 51.5668 90.868C51.2628 91.036 50.8388 91.12 50.2948 91.12C49.7108 91.12 49.2268 90.968 48.8428 90.664C48.4588 90.352 48.2668 89.868 48.2668 89.212C48.2668 88.572 48.5188 88.08 49.0228 87.736C49.5268 87.384 50.3028 87.192 51.3508 87.16L52.4428 87.124V86.74C52.4428 86.204 52.3268 85.832 52.0948 85.624C51.8628 85.416 51.5348 85.312 51.1108 85.312C50.7748 85.312 50.4548 85.364 50.1508 85.468C49.8468 85.564 49.5628 85.676 49.2988 85.804L48.9748 85.012C49.2548 84.86 49.5868 84.732 49.9708 84.628C50.3548 84.516 50.7548 84.46 51.1708 84.46ZM51.4828 87.892C50.6828 87.924 50.1268 88.052 49.8148 88.276C49.5108 88.5 49.3588 88.816 49.3588 89.224C49.3588 89.584 49.4668 89.848 49.6828 90.016C49.9068 90.184 50.1908 90.268 50.5348 90.268C51.0788 90.268 51.5308 90.12 51.8908 89.824C52.2508 89.52 52.4308 89.056 52.4308 88.432V87.856L51.4828 87.892ZM56.5174 91H55.4614V81.88H56.5174V91ZM62.6112 91H61.5552V81.88H62.6112V91ZM67.0849 84.46C67.8689 84.46 68.4489 84.632 68.8249 84.976C69.2009 85.32 69.3889 85.868 69.3889 86.62V91H68.6209L68.4169 90.088H68.3689C68.0889 90.44 67.7929 90.7 67.4809 90.868C67.1769 91.036 66.7529 91.12 66.2089 91.12C65.6249 91.12 65.1409 90.968 64.7569 90.664C64.3729 90.352 64.1809 89.868 64.1809 89.212C64.1809 88.572 64.4329 88.08 64.9369 87.736C65.4409 87.384 66.2169 87.192 67.2649 87.16L68.3569 87.124V86.74C68.3569 86.204 68.2409 85.832 68.0089 85.624C67.7769 85.416 67.4489 85.312 67.0249 85.312C66.6889 85.312 66.3689 85.364 66.0649 85.468C65.7609 85.564 65.4769 85.676 65.2129 85.804L64.8889 85.012C65.1689 84.86 65.5009 84.732 65.8849 84.628C66.2689 84.516 66.6689 84.46 67.0849 84.46ZM67.3969 87.892C66.5969 87.924 66.0409 88.052 65.7289 88.276C65.4249 88.5 65.2729 88.816 65.2729 89.224C65.2729 89.584 65.3809 89.848 65.5969 90.016C65.8209 90.184 66.1049 90.268 66.4489 90.268C66.9929 90.268 67.4449 90.12 67.8049 89.824C68.1649 89.52 68.3449 89.056 68.3449 88.432V87.856L67.3969 87.892ZM74.3755 84.448C74.4955 84.448 74.6235 84.456 74.7595 84.472C74.9035 84.48 75.0275 84.496 75.1315 84.52L74.9995 85.492C74.8955 85.468 74.7795 85.448 74.6515 85.432C74.5315 85.416 74.4155 85.408 74.3035 85.408C73.9755 85.408 73.6675 85.5 73.3795 85.684C73.0915 85.86 72.8595 86.112 72.6835 86.44C72.5155 86.76 72.4315 87.136 72.4315 87.568V91H71.3755V84.568H72.2395L72.3595 85.744H72.4075C72.6155 85.392 72.8835 85.088 73.2115 84.832C73.5395 84.576 73.9275 84.448 74.3755 84.448ZM78.4953 84.448C78.9193 84.448 79.2993 84.528 79.6353 84.688C79.9793 84.848 80.2713 85.092 80.5113 85.42H80.5713L80.7153 84.568H81.5553V91.108C81.5553 92.028 81.3193 92.72 80.8473 93.184C80.3833 93.648 79.6593 93.88 78.6753 93.88C77.7313 93.88 76.9593 93.744 76.3593 93.472V92.5C76.9913 92.836 77.7833 93.004 78.7353 93.004C79.2873 93.004 79.7193 92.84 80.0313 92.512C80.3513 92.192 80.5113 91.752 80.5113 91.192V90.94C80.5113 90.844 80.5153 90.708 80.5233 90.532C80.5313 90.348 80.5393 90.22 80.5473 90.148H80.4993C80.0673 90.796 79.4033 91.12 78.5073 91.12C77.6753 91.12 77.0233 90.828 76.5513 90.244C76.0873 89.66 75.8553 88.844 75.8553 87.796C75.8553 86.772 76.0873 85.96 76.5513 85.36C77.0233 84.752 77.6713 84.448 78.4953 84.448ZM78.6393 85.336C78.1033 85.336 77.6873 85.552 77.3913 85.984C77.0953 86.408 76.9473 87.016 76.9473 87.808C76.9473 88.6 77.0913 89.208 77.3793 89.632C77.6753 90.048 78.1033 90.256 78.6633 90.256C79.3113 90.256 79.7833 90.084 80.0793 89.74C80.3753 89.388 80.5233 88.824 80.5233 88.048V87.796C80.5233 86.916 80.3713 86.288 80.0673 85.912C79.7633 85.528 79.2873 85.336 78.6393 85.336ZM86.0821 84.448C86.6341 84.448 87.1061 84.568 87.4981 84.808C87.8981 85.048 88.2021 85.388 88.4101 85.828C88.6261 86.26 88.7341 86.768 88.7341 87.352V87.988H84.3301C84.3461 88.716 84.5301 89.272 84.8821 89.656C85.2421 90.032 85.7421 90.22 86.3821 90.22C86.7901 90.22 87.1501 90.184 87.4621 90.112C87.7821 90.032 88.1101 89.92 88.4461 89.776V90.7C88.1181 90.844 87.7941 90.948 87.4741 91.012C87.1541 91.084 86.7741 91.12 86.3341 91.12C85.7261 91.12 85.1861 90.996 84.7141 90.748C84.2501 90.5 83.8861 90.132 83.6221 89.644C83.3661 89.148 83.2381 88.544 83.2381 87.832C83.2381 87.128 83.3541 86.524 83.5861 86.02C83.8261 85.516 84.1581 85.128 84.5821 84.856C85.0141 84.584 85.5141 84.448 86.0821 84.448ZM86.0701 85.312C85.5661 85.312 85.1661 85.476 84.8701 85.804C84.5821 86.124 84.4101 86.572 84.3541 87.148H87.6301C87.6221 86.604 87.4941 86.164 87.2461 85.828C86.9981 85.484 86.6061 85.312 86.0701 85.312ZM97.5596 89.224C97.5596 89.848 97.3276 90.32 96.8636 90.64C96.3996 90.96 95.7756 91.12 94.9916 91.12C94.5436 91.12 94.1556 91.084 93.8276 91.012C93.5076 90.94 93.2236 90.84 92.9756 90.712V89.752C93.2316 89.88 93.5396 90 93.8996 90.112C94.2676 90.216 94.6396 90.268 95.0156 90.268C95.5516 90.268 95.9396 90.184 96.1796 90.016C96.4196 89.84 96.5396 89.608 96.5396 89.32C96.5396 89.16 96.4956 89.016 96.4076 88.888C96.3196 88.76 96.1596 88.632 95.9276 88.504C95.7036 88.376 95.3796 88.232 94.9556 88.072C94.5396 87.912 94.1836 87.752 93.8876 87.592C93.5916 87.432 93.3636 87.24 93.2036 87.016C93.0436 86.792 92.9636 86.504 92.9636 86.152C92.9636 85.608 93.1836 85.188 93.6236 84.892C94.0716 84.596 94.6556 84.448 95.3756 84.448C95.7676 84.448 96.1316 84.488 96.4676 84.568C96.8116 84.64 97.1316 84.744 97.4276 84.88L97.0676 85.72C96.7956 85.608 96.5116 85.512 96.2156 85.432C95.9196 85.352 95.6156 85.312 95.3036 85.312C94.8716 85.312 94.5396 85.384 94.3076 85.528C94.0836 85.664 93.9716 85.852 93.9716 86.092C93.9716 86.268 94.0236 86.42 94.1276 86.548C94.2316 86.668 94.4036 86.788 94.6436 86.908C94.8916 87.02 95.2196 87.156 95.6276 87.316C96.0356 87.468 96.3836 87.624 96.6716 87.784C96.9596 87.944 97.1796 88.14 97.3316 88.372C97.4836 88.596 97.5596 88.88 97.5596 89.224ZM101.598 84.448C102.15 84.448 102.622 84.568 103.014 84.808C103.414 85.048 103.718 85.388 103.926 85.828C104.142 86.26 104.25 86.768 104.25 87.352V87.988H99.8458C99.8618 88.716 100.046 89.272 100.398 89.656C100.758 90.032 101.258 90.22 101.898 90.22C102.306 90.22 102.666 90.184 102.978 90.112C103.298 90.032 103.626 89.92 103.962 89.776V90.7C103.634 90.844 103.31 90.948 102.99 91.012C102.67 91.084 102.29 91.12 101.85 91.12C101.242 91.12 100.702 90.996 100.23 90.748C99.7658 90.5 99.4018 90.132 99.1378 89.644C98.8818 89.148 98.7538 88.544 98.7538 87.832C98.7538 87.128 98.8698 86.524 99.1018 86.02C99.3418 85.516 99.6738 85.128 100.098 84.856C100.53 84.584 101.03 84.448 101.598 84.448ZM101.586 85.312C101.082 85.312 100.682 85.476 100.386 85.804C100.098 86.124 99.9258 86.572 99.8698 87.148H103.146C103.138 86.604 103.01 86.164 102.762 85.828C102.514 85.484 102.122 85.312 101.586 85.312ZM112.943 84.448C113.671 84.448 114.215 84.636 114.575 85.012C114.935 85.38 115.115 85.98 115.115 86.812V91H114.071V86.86C114.071 85.844 113.635 85.336 112.763 85.336C112.139 85.336 111.691 85.516 111.419 85.876C111.155 86.236 111.023 86.76 111.023 87.448V91H109.979V86.86C109.979 85.844 109.539 85.336 108.659 85.336C108.011 85.336 107.563 85.536 107.315 85.936C107.067 86.336 106.943 86.912 106.943 87.664V91H105.887V84.568H106.739L106.895 85.444H106.955C107.155 85.108 107.423 84.86 107.759 84.7C108.103 84.532 108.467 84.448 108.851 84.448C109.859 84.448 110.515 84.808 110.819 85.528H110.879C111.095 85.16 111.387 84.888 111.755 84.712C112.131 84.536 112.527 84.448 112.943 84.448ZM117.642 82.156C117.802 82.156 117.942 82.212 118.062 82.324C118.19 82.428 118.254 82.596 118.254 82.828C118.254 83.052 118.19 83.22 118.062 83.332C117.942 83.444 117.802 83.5 117.642 83.5C117.466 83.5 117.318 83.444 117.198 83.332C117.078 83.22 117.018 83.052 117.018 82.828C117.018 82.596 117.078 82.428 117.198 82.324C117.318 82.212 117.466 82.156 117.642 82.156ZM118.158 84.568V91H117.102V84.568H118.158ZM119.645 87.8301H122.633V88.3867H119.645V87.8301ZM126.27 90.256C126.43 90.256 126.594 90.244 126.762 90.22C126.93 90.188 127.066 90.156 127.17 90.124V90.928C127.058 90.984 126.898 91.028 126.69 91.06C126.482 91.1 126.282 91.12 126.09 91.12C125.754 91.12 125.442 91.064 125.154 90.952C124.874 90.832 124.646 90.628 124.47 90.34C124.294 90.052 124.206 89.648 124.206 89.128V85.384H123.294V84.88L124.218 84.46L124.638 83.092H125.262V84.568H127.122V85.384H125.262V89.104C125.262 89.496 125.354 89.788 125.538 89.98C125.73 90.164 125.974 90.256 126.27 90.256ZM131.458 84.448C131.578 84.448 131.706 84.456 131.842 84.472C131.986 84.48 132.11 84.496 132.214 84.52L132.082 85.492C131.978 85.468 131.862 85.448 131.734 85.432C131.614 85.416 131.498 85.408 131.386 85.408C131.058 85.408 130.75 85.5 130.462 85.684C130.174 85.86 129.942 86.112 129.766 86.44C129.598 86.76 129.514 87.136 129.514 87.568V91H128.458V84.568H129.322L129.442 85.744H129.49C129.698 85.392 129.966 85.088 130.294 84.832C130.622 84.576 131.01 84.448 131.458 84.448ZM138.791 84.568V91H137.927L137.771 90.148H137.723C137.515 90.484 137.227 90.732 136.859 90.892C136.491 91.044 136.099 91.12 135.683 91.12C134.907 91.12 134.323 90.936 133.931 90.568C133.539 90.192 133.343 89.596 133.343 88.78V84.568H134.411V88.708C134.411 89.732 134.887 90.244 135.839 90.244C136.551 90.244 137.043 90.044 137.315 89.644C137.595 89.244 137.735 88.668 137.735 87.916V84.568H138.791ZM143.413 91.12C142.845 91.12 142.337 91.004 141.889 90.772C141.449 90.54 141.101 90.18 140.845 89.692C140.597 89.204 140.473 88.58 140.473 87.82C140.473 87.028 140.605 86.384 140.869 85.888C141.133 85.392 141.489 85.028 141.937 84.796C142.393 84.564 142.909 84.448 143.485 84.448C143.813 84.448 144.129 84.484 144.433 84.556C144.737 84.62 144.985 84.7 145.177 84.796L144.853 85.672C144.661 85.6 144.437 85.532 144.181 85.468C143.925 85.404 143.685 85.372 143.461 85.372C142.197 85.372 141.565 86.184 141.565 87.808C141.565 88.584 141.717 89.18 142.021 89.596C142.333 90.004 142.793 90.208 143.401 90.208C143.753 90.208 144.061 90.172 144.325 90.1C144.597 90.028 144.845 89.94 145.069 89.836V90.772C144.853 90.884 144.613 90.968 144.349 91.024C144.093 91.088 143.781 91.12 143.413 91.12ZM147.642 86.644C147.642 86.772 147.634 86.94 147.618 87.148C147.61 87.356 147.602 87.536 147.594 87.688H147.642C147.69 87.624 147.762 87.532 147.858 87.412C147.954 87.292 148.05 87.172 148.146 87.052C148.25 86.924 148.338 86.82 148.41 86.74L150.462 84.568H151.698L149.094 87.316L151.878 91H150.606L148.374 88L147.642 88.636V91H146.598V81.88H147.642V86.644ZM157.196 89.224C157.196 89.848 156.964 90.32 156.5 90.64C156.036 90.96 155.412 91.12 154.628 91.12C154.18 91.12 153.792 91.084 153.464 91.012C153.144 90.94 152.86 90.84 152.612 90.712V89.752C152.868 89.88 153.176 90 153.536 90.112C153.904 90.216 154.276 90.268 154.652 90.268C155.188 90.268 155.576 90.184 155.816 90.016C156.056 89.84 156.176 89.608 156.176 89.32C156.176 89.16 156.132 89.016 156.044 88.888C155.956 88.76 155.796 88.632 155.564 88.504C155.34 88.376 155.016 88.232 154.592 88.072C154.176 87.912 153.82 87.752 153.524 87.592C153.228 87.432 153 87.24 152.84 87.016C152.68 86.792 152.6 86.504 152.6 86.152C152.6 85.608 152.82 85.188 153.26 84.892C153.708 84.596 154.292 84.448 155.012 84.448C155.404 84.448 155.768 84.488 156.104 84.568C156.448 84.64 156.768 84.744 157.064 84.88L156.704 85.72C156.432 85.608 156.148 85.512 155.852 85.432C155.556 85.352 155.252 85.312 154.94 85.312C154.508 85.312 154.176 85.384 153.944 85.528C153.72 85.664 153.608 85.852 153.608 86.092C153.608 86.268 153.66 86.42 153.764 86.548C153.868 86.668 154.04 86.788 154.28 86.908C154.528 87.02 154.856 87.156 155.264 87.316C155.672 87.468 156.02 87.624 156.308 87.784C156.596 87.944 156.816 88.14 156.968 88.372C157.12 88.596 157.196 88.88 157.196 89.224ZM162.806 84.556C162.806 84.876 162.786 85.176 162.746 85.456H162.818C163.026 85.128 163.306 84.88 163.658 84.712C164.018 84.544 164.406 84.46 164.822 84.46C165.606 84.46 166.194 84.648 166.586 85.024C166.978 85.392 167.174 85.988 167.174 86.812V91H166.13V86.884C166.13 85.852 165.65 85.336 164.69 85.336C163.97 85.336 163.474 85.54 163.202 85.948C162.938 86.348 162.806 86.924 162.806 87.676V91H161.75V81.88H162.806V84.556ZM171.604 84.46C172.388 84.46 172.968 84.632 173.344 84.976C173.72 85.32 173.908 85.868 173.908 86.62V91H173.14L172.936 90.088H172.888C172.608 90.44 172.312 90.7 172 90.868C171.696 91.036 171.272 91.12 170.728 91.12C170.144 91.12 169.66 90.968 169.276 90.664C168.892 90.352 168.7 89.868 168.7 89.212C168.7 88.572 168.952 88.08 169.456 87.736C169.96 87.384 170.736 87.192 171.784 87.16L172.876 87.124V86.74C172.876 86.204 172.76 85.832 172.528 85.624C172.296 85.416 171.968 85.312 171.544 85.312C171.208 85.312 170.888 85.364 170.584 85.468C170.28 85.564 169.996 85.676 169.732 85.804L169.408 85.012C169.688 84.86 170.02 84.732 170.404 84.628C170.788 84.516 171.188 84.46 171.604 84.46ZM171.916 87.892C171.116 87.924 170.56 88.052 170.248 88.276C169.944 88.5 169.792 88.816 169.792 89.224C169.792 89.584 169.9 89.848 170.116 90.016C170.34 90.184 170.624 90.268 170.968 90.268C171.512 90.268 171.964 90.12 172.324 89.824C172.684 89.52 172.864 89.056 172.864 88.432V87.856L171.916 87.892ZM177.311 91L174.875 84.568H176.003L177.371 88.36C177.435 88.536 177.503 88.732 177.575 88.948C177.647 89.164 177.711 89.372 177.767 89.572C177.823 89.764 177.863 89.928 177.887 90.064H177.935C177.967 89.928 178.011 89.76 178.067 89.56C178.131 89.36 178.199 89.152 178.271 88.936C178.351 88.72 178.419 88.528 178.475 88.36L179.843 84.568H180.971L178.523 91H177.311ZM184.473 84.448C185.025 84.448 185.497 84.568 185.889 84.808C186.289 85.048 186.593 85.388 186.801 85.828C187.017 86.26 187.125 86.768 187.125 87.352V87.988H182.721C182.737 88.716 182.921 89.272 183.273 89.656C183.633 90.032 184.133 90.22 184.773 90.22C185.181 90.22 185.541 90.184 185.853 90.112C186.173 90.032 186.501 89.92 186.837 89.776V90.7C186.509 90.844 186.185 90.948 185.865 91.012C185.545 91.084 185.165 91.12 184.725 91.12C184.117 91.12 183.577 90.996 183.105 90.748C182.641 90.5 182.277 90.132 182.013 89.644C181.757 89.148 181.629 88.544 181.629 87.832C181.629 87.128 181.745 86.524 181.977 86.02C182.217 85.516 182.549 85.128 182.973 84.856C183.405 84.584 183.905 84.448 184.473 84.448ZM184.461 85.312C183.957 85.312 183.557 85.476 183.261 85.804C182.973 86.124 182.801 86.572 182.745 87.148H186.021C186.013 86.604 185.885 86.164 185.637 85.828C185.389 85.484 184.997 85.312 184.461 85.312ZM192.818 84.1C192.818 84.372 192.81 84.628 192.794 84.868C192.786 85.1 192.774 85.284 192.758 85.42H192.818C193.002 85.148 193.254 84.92 193.574 84.736C193.894 84.552 194.306 84.46 194.81 84.46C195.61 84.46 196.25 84.74 196.73 85.3C197.218 85.852 197.462 86.68 197.462 87.784C197.462 88.888 197.218 89.72 196.73 90.28C196.242 90.84 195.602 91.12 194.81 91.12C194.306 91.12 193.894 91.028 193.574 90.844C193.254 90.66 193.002 90.44 192.818 90.184H192.734L192.518 91H191.762V81.88H192.818V84.1ZM194.63 85.336C193.95 85.336 193.478 85.532 193.214 85.924C192.95 86.316 192.818 86.924 192.818 87.748V87.796C192.818 88.588 192.946 89.196 193.202 89.62C193.466 90.036 193.95 90.244 194.654 90.244C195.23 90.244 195.658 90.032 195.938 89.608C196.226 89.184 196.37 88.572 196.37 87.772C196.37 86.148 195.79 85.336 194.63 85.336ZM201.629 84.448C202.181 84.448 202.653 84.568 203.045 84.808C203.445 85.048 203.749 85.388 203.957 85.828C204.173 86.26 204.281 86.768 204.281 87.352V87.988H199.877C199.893 88.716 200.077 89.272 200.429 89.656C200.789 90.032 201.289 90.22 201.929 90.22C202.337 90.22 202.697 90.184 203.009 90.112C203.329 90.032 203.657 89.92 203.993 89.776V90.7C203.665 90.844 203.341 90.948 203.021 91.012C202.701 91.084 202.321 91.12 201.881 91.12C201.273 91.12 200.733 90.996 200.261 90.748C199.797 90.5 199.433 90.132 199.169 89.644C198.913 89.148 198.785 88.544 198.785 87.832C198.785 87.128 198.901 86.524 199.133 86.02C199.373 85.516 199.705 85.128 200.129 84.856C200.561 84.584 201.061 84.448 201.629 84.448ZM201.617 85.312C201.113 85.312 200.713 85.476 200.417 85.804C200.129 86.124 199.957 86.572 199.901 87.148H203.177C203.169 86.604 203.041 86.164 202.793 85.828C202.545 85.484 202.153 85.312 201.617 85.312ZM208.402 84.448C208.954 84.448 209.426 84.568 209.818 84.808C210.218 85.048 210.522 85.388 210.73 85.828C210.946 86.26 211.054 86.768 211.054 87.352V87.988H206.65C206.666 88.716 206.85 89.272 207.202 89.656C207.562 90.032 208.062 90.22 208.702 90.22C209.11 90.22 209.47 90.184 209.782 90.112C210.102 90.032 210.43 89.92 210.766 89.776V90.7C210.438 90.844 210.114 90.948 209.794 91.012C209.474 91.084 209.094 91.12 208.654 91.12C208.046 91.12 207.506 90.996 207.034 90.748C206.57 90.5 206.206 90.132 205.942 89.644C205.686 89.148 205.558 88.544 205.558 87.832C205.558 87.128 205.674 86.524 205.906 86.02C206.146 85.516 206.478 85.128 206.902 84.856C207.334 84.584 207.834 84.448 208.402 84.448ZM208.39 85.312C207.886 85.312 207.486 85.476 207.19 85.804C206.902 86.124 206.73 86.572 206.674 87.148H209.95C209.942 86.604 209.814 86.164 209.566 85.828C209.318 85.484 208.926 85.312 208.39 85.312ZM215.788 84.448C216.556 84.448 217.136 84.636 217.528 85.012C217.92 85.38 218.116 85.98 218.116 86.812V91H217.072V86.884C217.072 85.852 216.592 85.336 215.632 85.336C214.92 85.336 214.428 85.536 214.156 85.936C213.884 86.336 213.748 86.912 213.748 87.664V91H212.692V84.568H213.544L213.7 85.444H213.76C213.968 85.108 214.256 84.86 214.624 84.7C214.992 84.532 215.38 84.448 215.788 84.448ZM223.65 82.156C223.81 82.156 223.95 82.212 224.07 82.324C224.198 82.428 224.262 82.596 224.262 82.828C224.262 83.052 224.198 83.22 224.07 83.332C223.95 83.444 223.81 83.5 223.65 83.5C223.474 83.5 223.326 83.444 223.206 83.332C223.086 83.22 223.026 83.052 223.026 82.828C223.026 82.596 223.086 82.428 223.206 82.324C223.326 82.212 223.474 82.156 223.65 82.156ZM224.166 84.568V91H223.11V84.568H224.166ZM228.484 91.12C227.684 91.12 227.044 90.844 226.564 90.292C226.084 89.732 225.844 88.9 225.844 87.796C225.844 86.692 226.084 85.86 226.564 85.3C227.052 84.732 227.696 84.448 228.496 84.448C228.992 84.448 229.396 84.54 229.708 84.724C230.028 84.908 230.288 85.132 230.488 85.396H230.56C230.552 85.292 230.536 85.14 230.512 84.94C230.496 84.732 230.488 84.568 230.488 84.448V81.88H231.544V91H230.692L230.536 90.136H230.488C230.296 90.408 230.04 90.64 229.72 90.832C229.4 91.024 228.988 91.12 228.484 91.12ZM228.652 90.244C229.332 90.244 229.808 90.06 230.08 89.692C230.36 89.316 230.5 88.752 230.5 88V87.808C230.5 87.008 230.368 86.396 230.104 85.972C229.84 85.54 229.352 85.324 228.64 85.324C228.072 85.324 227.644 85.552 227.356 86.008C227.076 86.456 226.936 87.06 226.936 87.82C226.936 88.588 227.076 89.184 227.356 89.608C227.644 90.032 228.076 90.244 228.652 90.244ZM234.642 91H233.586V81.88H234.642V91ZM237.22 82.156C237.38 82.156 237.52 82.212 237.64 82.324C237.768 82.428 237.832 82.596 237.832 82.828C237.832 83.052 237.768 83.22 237.64 83.332C237.52 83.444 237.38 83.5 237.22 83.5C237.044 83.5 236.896 83.444 236.776 83.332C236.656 83.22 236.596 83.052 236.596 82.828C236.596 82.596 236.656 82.428 236.776 82.324C236.896 82.212 237.044 82.156 237.22 82.156ZM237.736 84.568V91H236.68V84.568H237.736ZM242.87 84.448C243.638 84.448 244.218 84.636 244.61 85.012C245.002 85.38 245.198 85.98 245.198 86.812V91H244.154V86.884C244.154 85.852 243.674 85.336 242.714 85.336C242.002 85.336 241.51 85.536 241.238 85.936C240.966 86.336 240.83 86.912 240.83 87.664V91H239.774V84.568H240.626L240.782 85.444H240.842C241.05 85.108 241.338 84.86 241.706 84.7C242.074 84.532 242.462 84.448 242.87 84.448ZM249.472 84.448C249.896 84.448 250.276 84.528 250.612 84.688C250.956 84.848 251.248 85.092 251.488 85.42H251.548L251.692 84.568H252.532V91.108C252.532 92.028 252.296 92.72 251.824 93.184C251.36 93.648 250.636 93.88 249.652 93.88C248.708 93.88 247.936 93.744 247.336 93.472V92.5C247.968 92.836 248.76 93.004 249.712 93.004C250.264 93.004 250.696 92.84 251.008 92.512C251.328 92.192 251.488 91.752 251.488 91.192V90.94C251.488 90.844 251.492 90.708 251.5 90.532C251.508 90.348 251.516 90.22 251.524 90.148H251.476C251.044 90.796 250.38 91.12 249.484 91.12C248.652 91.12 248 90.828 247.528 90.244C247.064 89.66 246.832 88.844 246.832 87.796C246.832 86.772 247.064 85.96 247.528 85.36C248 84.752 248.648 84.448 249.472 84.448ZM249.616 85.336C249.08 85.336 248.664 85.552 248.368 85.984C248.072 86.408 247.924 87.016 247.924 87.808C247.924 88.6 248.068 89.208 248.356 89.632C248.652 90.048 249.08 90.256 249.64 90.256C250.288 90.256 250.76 90.084 251.056 89.74C251.352 89.388 251.5 88.824 251.5 88.048V87.796C251.5 86.916 251.348 86.288 251.044 85.912C250.74 85.528 250.264 85.336 249.616 85.336ZM260.671 84.448C261.439 84.448 262.019 84.636 262.411 85.012C262.803 85.38 262.999 85.98 262.999 86.812V91H261.955V86.884C261.955 85.852 261.475 85.336 260.515 85.336C259.803 85.336 259.311 85.536 259.039 85.936C258.767 86.336 258.631 86.912 258.631 87.664V91H257.575V84.568H258.427L258.583 85.444H258.643C258.851 85.108 259.139 84.86 259.507 84.7C259.875 84.532 260.263 84.448 260.671 84.448ZM267.477 84.448C268.029 84.448 268.501 84.568 268.893 84.808C269.293 85.048 269.597 85.388 269.805 85.828C270.021 86.26 270.129 86.768 270.129 87.352V87.988H265.725C265.741 88.716 265.925 89.272 266.277 89.656C266.637 90.032 267.137 90.22 267.777 90.22C268.185 90.22 268.545 90.184 268.857 90.112C269.177 90.032 269.505 89.92 269.841 89.776V90.7C269.513 90.844 269.189 90.948 268.869 91.012C268.549 91.084 268.169 91.12 267.729 91.12C267.121 91.12 266.581 90.996 266.109 90.748C265.645 90.5 265.281 90.132 265.017 89.644C264.761 89.148 264.633 88.544 264.633 87.832C264.633 87.128 264.749 86.524 264.981 86.02C265.221 85.516 265.553 85.128 265.977 84.856C266.409 84.584 266.909 84.448 267.477 84.448ZM267.465 85.312C266.961 85.312 266.561 85.476 266.265 85.804C265.977 86.124 265.805 86.572 265.749 87.148H269.025C269.017 86.604 268.889 86.164 268.641 85.828C268.393 85.484 268.001 85.312 267.465 85.312ZM274.202 84.46C274.986 84.46 275.566 84.632 275.942 84.976C276.318 85.32 276.506 85.868 276.506 86.62V91H275.738L275.534 90.088H275.486C275.206 90.44 274.91 90.7 274.598 90.868C274.294 91.036 273.87 91.12 273.326 91.12C272.742 91.12 272.258 90.968 271.874 90.664C271.49 90.352 271.298 89.868 271.298 89.212C271.298 88.572 271.55 88.08 272.054 87.736C272.558 87.384 273.334 87.192 274.382 87.16L275.474 87.124V86.74C275.474 86.204 275.358 85.832 275.126 85.624C274.894 85.416 274.566 85.312 274.142 85.312C273.806 85.312 273.486 85.364 273.182 85.468C272.878 85.564 272.594 85.676 272.33 85.804L272.006 85.012C272.286 84.86 272.618 84.732 273.002 84.628C273.386 84.516 273.786 84.46 274.202 84.46ZM274.514 87.892C273.714 87.924 273.158 88.052 272.846 88.276C272.542 88.5 272.39 88.816 272.39 89.224C272.39 89.584 272.498 89.848 272.714 90.016C272.938 90.184 273.222 90.268 273.566 90.268C274.11 90.268 274.562 90.12 274.922 89.824C275.282 89.52 275.462 89.056 275.462 88.432V87.856L274.514 87.892ZM281.493 84.448C281.613 84.448 281.741 84.456 281.877 84.472C282.021 84.48 282.145 84.496 282.249 84.52L282.117 85.492C282.013 85.468 281.897 85.448 281.769 85.432C281.649 85.416 281.533 85.408 281.421 85.408C281.093 85.408 280.785 85.5 280.497 85.684C280.209 85.86 279.977 86.112 279.801 86.44C279.633 86.76 279.549 87.136 279.549 87.568V91H278.493V84.568H279.357L279.477 85.744H279.525C279.733 85.392 280.001 85.088 280.329 84.832C280.657 84.576 281.045 84.448 281.493 84.448ZM293.506 84.448C294.234 84.448 294.778 84.636 295.138 85.012C295.498 85.38 295.678 85.98 295.678 86.812V91H294.634V86.86C294.634 85.844 294.198 85.336 293.326 85.336C292.702 85.336 292.254 85.516 291.982 85.876C291.718 86.236 291.586 86.76 291.586 87.448V91H290.542V86.86C290.542 85.844 290.102 85.336 289.222 85.336C288.574 85.336 288.126 85.536 287.878 85.936C287.63 86.336 287.506 86.912 287.506 87.664V91H286.45V84.568H287.302L287.458 85.444H287.518C287.718 85.108 287.986 84.86 288.322 84.7C288.666 84.532 289.03 84.448 289.414 84.448C290.422 84.448 291.078 84.808 291.382 85.528H291.442C291.658 85.16 291.95 84.888 292.318 84.712C292.694 84.536 293.09 84.448 293.506 84.448ZM296.657 84.568H297.785L299.177 88.228C299.297 88.548 299.405 88.856 299.501 89.152C299.597 89.44 299.669 89.716 299.717 89.98H299.765C299.813 89.78 299.889 89.52 299.993 89.2C300.097 88.872 300.205 88.544 300.317 88.216L301.625 84.568H302.765L299.993 91.888C299.769 92.496 299.477 92.98 299.117 93.34C298.765 93.7 298.277 93.88 297.653 93.88C297.461 93.88 297.293 93.868 297.149 93.844C297.005 93.828 296.881 93.808 296.777 93.784V92.944C296.865 92.96 296.969 92.976 297.089 92.992C297.217 93.008 297.349 93.016 297.485 93.016C297.853 93.016 298.149 92.912 298.373 92.704C298.605 92.496 298.785 92.22 298.913 91.876L299.249 91.024L296.657 84.568ZM307.838 84.556C307.838 84.876 307.818 85.176 307.778 85.456H307.85C308.058 85.128 308.338 84.88 308.69 84.712C309.05 84.544 309.438 84.46 309.854 84.46C310.638 84.46 311.226 84.648 311.618 85.024C312.01 85.392 312.206 85.988 312.206 86.812V91H311.162V86.884C311.162 85.852 310.682 85.336 309.722 85.336C309.002 85.336 308.506 85.54 308.234 85.948C307.97 86.348 307.838 86.924 307.838 87.676V91H306.782V81.88H307.838V84.556ZM319.792 87.772C319.792 88.836 319.52 89.66 318.976 90.244C318.44 90.828 317.712 91.12 316.792 91.12C316.224 91.12 315.716 90.992 315.268 90.736C314.828 90.472 314.48 90.092 314.224 89.596C313.968 89.092 313.84 88.484 313.84 87.772C313.84 86.708 314.108 85.888 314.644 85.312C315.18 84.736 315.908 84.448 316.828 84.448C317.412 84.448 317.924 84.58 318.364 84.844C318.812 85.1 319.16 85.476 319.408 85.972C319.664 86.46 319.792 87.06 319.792 87.772ZM314.932 87.772C314.932 88.532 315.08 89.136 315.376 89.584C315.68 90.024 316.16 90.244 316.816 90.244C317.464 90.244 317.94 90.024 318.244 89.584C318.548 89.136 318.7 88.532 318.7 87.772C318.7 87.012 318.548 86.416 318.244 85.984C317.94 85.552 317.46 85.336 316.804 85.336C316.148 85.336 315.672 85.552 315.376 85.984C315.08 86.416 314.932 87.012 314.932 87.772ZM326.841 84.568V91H325.977L325.821 90.148H325.773C325.565 90.484 325.277 90.732 324.909 90.892C324.541 91.044 324.149 91.12 323.733 91.12C322.957 91.12 322.373 90.936 321.981 90.568C321.589 90.192 321.393 89.596 321.393 88.78V84.568H322.461V88.708C322.461 89.732 322.937 90.244 323.889 90.244C324.601 90.244 325.093 90.044 325.365 89.644C325.645 89.244 325.785 88.668 325.785 87.916V84.568H326.841ZM333.071 89.224C333.071 89.848 332.839 90.32 332.375 90.64C331.911 90.96 331.287 91.12 330.503 91.12C330.055 91.12 329.667 91.084 329.339 91.012C329.019 90.94 328.735 90.84 328.487 90.712V89.752C328.743 89.88 329.051 90 329.411 90.112C329.779 90.216 330.151 90.268 330.527 90.268C331.063 90.268 331.451 90.184 331.691 90.016C331.931 89.84 332.051 89.608 332.051 89.32C332.051 89.16 332.007 89.016 331.919 88.888C331.831 88.76 331.671 88.632 331.439 88.504C331.215 88.376 330.891 88.232 330.467 88.072C330.051 87.912 329.695 87.752 329.399 87.592C329.103 87.432 328.875 87.24 328.715 87.016C328.555 86.792 328.475 86.504 328.475 86.152C328.475 85.608 328.695 85.188 329.135 84.892C329.583 84.596 330.167 84.448 330.887 84.448C331.279 84.448 331.643 84.488 331.979 84.568C332.323 84.64 332.643 84.744 332.939 84.88L332.579 85.72C332.307 85.608 332.023 85.512 331.727 85.432C331.431 85.352 331.127 85.312 330.815 85.312C330.383 85.312 330.051 85.384 329.819 85.528C329.595 85.664 329.483 85.852 329.483 86.092C329.483 86.268 329.535 86.42 329.639 86.548C329.743 86.668 329.915 86.788 330.155 86.908C330.403 87.02 330.731 87.156 331.139 87.316C331.547 87.468 331.895 87.624 332.183 87.784C332.471 87.944 332.691 88.14 332.843 88.372C332.995 88.596 333.071 88.88 333.071 89.224ZM337.109 84.448C337.661 84.448 338.133 84.568 338.525 84.808C338.925 85.048 339.229 85.388 339.437 85.828C339.653 86.26 339.761 86.768 339.761 87.352V87.988H335.357C335.373 88.716 335.557 89.272 335.909 89.656C336.269 90.032 336.769 90.22 337.409 90.22C337.817 90.22 338.177 90.184 338.489 90.112C338.809 90.032 339.137 89.92 339.473 89.776V90.7C339.145 90.844 338.821 90.948 338.501 91.012C338.181 91.084 337.801 91.12 337.361 91.12C336.753 91.12 336.213 90.996 335.741 90.748C335.277 90.5 334.913 90.132 334.649 89.644C334.393 89.148 334.265 88.544 334.265 87.832C334.265 87.128 334.381 86.524 334.613 86.02C334.853 85.516 335.185 85.128 335.609 84.856C336.041 84.584 336.541 84.448 337.109 84.448ZM337.097 85.312C336.593 85.312 336.193 85.476 335.897 85.804C335.609 86.124 335.437 86.572 335.381 87.148H338.657C338.649 86.604 338.521 86.164 338.273 85.828C338.025 85.484 337.633 85.312 337.097 85.312ZM347.363 85.384H345.743V91H344.687V85.384H343.559V84.892L344.687 84.532V84.16C344.687 83.328 344.871 82.732 345.239 82.372C345.607 82.004 346.119 81.82 346.775 81.82C347.031 81.82 347.263 81.844 347.471 81.892C347.687 81.932 347.871 81.98 348.023 82.036L347.747 82.864C347.619 82.824 347.471 82.784 347.303 82.744C347.135 82.704 346.963 82.684 346.787 82.684C346.435 82.684 346.171 82.804 345.995 83.044C345.827 83.276 345.743 83.644 345.743 84.148V84.568H347.363V85.384ZM354.116 87.772C354.116 88.836 353.844 89.66 353.3 90.244C352.764 90.828 352.036 91.12 351.116 91.12C350.548 91.12 350.04 90.992 349.592 90.736C349.152 90.472 348.804 90.092 348.548 89.596C348.292 89.092 348.164 88.484 348.164 87.772C348.164 86.708 348.432 85.888 348.968 85.312C349.504 84.736 350.232 84.448 351.152 84.448C351.736 84.448 352.248 84.58 352.688 84.844C353.136 85.1 353.484 85.476 353.732 85.972C353.988 86.46 354.116 87.06 354.116 87.772ZM349.256 87.772C349.256 88.532 349.404 89.136 349.7 89.584C350.004 90.024 350.484 90.244 351.14 90.244C351.788 90.244 352.264 90.024 352.568 89.584C352.872 89.136 353.024 88.532 353.024 87.772C353.024 87.012 352.872 86.416 352.568 85.984C352.264 85.552 351.784 85.336 351.128 85.336C350.472 85.336 349.996 85.552 349.7 85.984C349.404 86.416 349.256 87.012 349.256 87.772ZM358.79 84.448C358.91 84.448 359.038 84.456 359.174 84.472C359.318 84.48 359.442 84.496 359.546 84.52L359.414 85.492C359.31 85.468 359.194 85.448 359.066 85.432C358.946 85.416 358.83 85.408 358.718 85.408C358.39 85.408 358.082 85.5 357.794 85.684C357.506 85.86 357.274 86.112 357.098 86.44C356.93 86.76 356.846 87.136 356.846 87.568V91H355.79V84.568H356.654L356.774 85.744H356.822C357.03 85.392 357.298 85.088 357.626 84.832C357.954 84.576 358.342 84.448 358.79 84.448ZM364.803 84.556C364.803 84.876 364.783 85.176 364.743 85.456H364.815C365.023 85.128 365.303 84.88 365.655 84.712C366.015 84.544 366.403 84.46 366.819 84.46C367.603 84.46 368.191 84.648 368.583 85.024C368.975 85.392 369.171 85.988 369.171 86.812V91H368.127V86.884C368.127 85.852 367.647 85.336 366.687 85.336C365.967 85.336 365.471 85.54 365.199 85.948C364.935 86.348 364.803 86.924 364.803 87.676V91H363.747V81.88H364.803V84.556ZM376.757 87.772C376.757 88.836 376.485 89.66 375.941 90.244C375.405 90.828 374.677 91.12 373.757 91.12C373.189 91.12 372.681 90.992 372.233 90.736C371.793 90.472 371.445 90.092 371.189 89.596C370.933 89.092 370.805 88.484 370.805 87.772C370.805 86.708 371.073 85.888 371.609 85.312C372.145 84.736 372.873 84.448 373.793 84.448C374.377 84.448 374.889 84.58 375.329 84.844C375.777 85.1 376.125 85.476 376.373 85.972C376.629 86.46 376.757 87.06 376.757 87.772ZM371.897 87.772C371.897 88.532 372.045 89.136 372.341 89.584C372.645 90.024 373.125 90.244 373.781 90.244C374.429 90.244 374.905 90.024 375.209 89.584C375.513 89.136 375.665 88.532 375.665 87.772C375.665 87.012 375.513 86.416 375.209 85.984C374.905 85.552 374.425 85.336 373.769 85.336C373.113 85.336 372.637 85.552 372.341 85.984C372.045 86.416 371.897 87.012 371.897 87.772ZM383.806 84.568V91H382.942L382.786 90.148H382.738C382.53 90.484 382.242 90.732 381.874 90.892C381.506 91.044 381.114 91.12 380.698 91.12C379.922 91.12 379.338 90.936 378.946 90.568C378.554 90.192 378.358 89.596 378.358 88.78V84.568H379.426V88.708C379.426 89.732 379.902 90.244 380.854 90.244C381.566 90.244 382.058 90.044 382.33 89.644C382.61 89.244 382.75 88.668 382.75 87.916V84.568H383.806ZM388.848 84.448C388.968 84.448 389.096 84.456 389.232 84.472C389.376 84.48 389.5 84.496 389.604 84.52L389.472 85.492C389.368 85.468 389.252 85.448 389.124 85.432C389.004 85.416 388.888 85.408 388.776 85.408C388.448 85.408 388.14 85.5 387.852 85.684C387.564 85.86 387.332 86.112 387.156 86.44C386.988 86.76 386.904 87.136 386.904 87.568V91H385.848V84.568H386.712L386.832 85.744H386.88C387.088 85.392 387.356 85.088 387.684 84.832C388.012 84.576 388.4 84.448 388.848 84.448ZM394.993 89.224C394.993 89.848 394.761 90.32 394.297 90.64C393.833 90.96 393.209 91.12 392.425 91.12C391.977 91.12 391.589 91.084 391.261 91.012C390.941 90.94 390.657 90.84 390.409 90.712V89.752C390.665 89.88 390.973 90 391.333 90.112C391.701 90.216 392.073 90.268 392.449 90.268C392.985 90.268 393.373 90.184 393.613 90.016C393.853 89.84 393.973 89.608 393.973 89.32C393.973 89.16 393.929 89.016 393.841 88.888C393.753 88.76 393.593 88.632 393.361 88.504C393.137 88.376 392.813 88.232 392.389 88.072C391.973 87.912 391.617 87.752 391.321 87.592C391.025 87.432 390.797 87.24 390.637 87.016C390.477 86.792 390.397 86.504 390.397 86.152C390.397 85.608 390.617 85.188 391.057 84.892C391.505 84.596 392.089 84.448 392.809 84.448C393.201 84.448 393.565 84.488 393.901 84.568C394.245 84.64 394.565 84.744 394.861 84.88L394.501 85.72C394.229 85.608 393.945 85.512 393.649 85.432C393.353 85.352 393.049 85.312 392.737 85.312C392.305 85.312 391.973 85.384 391.741 85.528C391.517 85.664 391.405 85.852 391.405 86.092C391.405 86.268 391.457 86.42 391.561 86.548C391.665 86.668 391.837 86.788 392.077 86.908C392.325 87.02 392.653 87.156 393.061 87.316C393.469 87.468 393.817 87.624 394.105 87.784C394.393 87.944 394.613 88.14 394.765 88.372C394.917 88.596 394.993 88.88 394.993 89.224ZM396.641 89.834C396.766 89.834 396.877 89.8633 396.975 89.9219C397.072 89.9805 397.148 90.0586 397.203 90.1562C397.262 90.25 397.291 90.3594 397.291 90.4844C397.291 90.6094 397.262 90.7207 397.203 90.8184C397.145 90.9121 397.066 90.9883 396.969 91.0469C396.875 91.1055 396.766 91.1348 396.641 91.1348C396.488 91.1348 396.342 91.0781 396.201 90.9648C396.064 90.8477 395.996 90.6875 395.996 90.4844C395.996 90.3047 396.059 90.1523 396.184 90.0273C396.309 89.8984 396.461 89.834 396.641 89.834Z" fill="#757575"/>
<path opacity="0.4" d="M400.5 11.4913C400.5 10.5663 399.759 10 399 10C398.751 9.99956 398.506 10.0611 398.286 10.1792C398.067 10.2973 397.881 10.4681 397.744 10.6763C390 21.9906 401 22.5 401 28V28.0506C400.987 29.1027 400.559 30.1072 399.811 30.8464C399.062 31.5856 398.052 32.0001 397 32H396.946C394.75 31.9688 393 30.1362 393 27.9375V22.5938C393 21.6863 392.261 21.0938 391.491 21.0938C391.288 21.0937 391.088 21.1352 390.902 21.2159C390.716 21.2965 390.549 21.4145 390.411 21.5625C388.737 23.3225 387 26.3331 387 30C387 36.6169 392.383 42 399 42C405.617 42 411 36.6169 411 30C411 19.3569 400.5 17.9375 400.5 11.4913ZM399 37.75C397.98 37.7507 396.97 37.5494 396.029 37.1579C395.087 36.7663 394.232 36.1923 393.514 35.4687L393.678 35.5444C394.69 35.9949 395.783 36.2338 396.89 36.2462H397.001C399.17 36.2461 401.252 35.392 402.795 33.8687C404.339 32.3454 405.221 30.2755 405.25 28.1069V28C405.25 26.2606 404.707 24.5975 403.635 23.0556L403.616 23.0288C404.292 23.7163 404.905 24.4213 405.404 25.1963C406.323 26.62 406.75 28.1462 406.75 30C406.748 32.0547 405.93 34.0245 404.477 35.4773C403.024 36.9302 401.055 37.7475 399 37.75Z" fill="#980000"/>
<path d="M403 22.5C404 23 405.188 24.4188 405.678 25.2085C406.58 26.6592 407 28.2143 407 30.1032C407.001 31.6661 406.554 33.1941 405.717 34.4935C404.88 35.7928 403.689 36.8051 402.297 37.4019C400.905 37.9987 399.477 38.3074 398 38C395.5 37.5 394.063 36.1077 393 35C393.994 35.4591 395.912 35.9873 397 36C399.13 35.9999 401.484 35.0521 403 33.5C404.516 31.9479 404.971 30.2096 405 28C405 26.2277 404.053 24.0711 403 22.5Z" fill="#980000"/>
</svg>
