<svg width="423" height="122" viewBox="0 0 423 122" fill="none" xmlns="http://www.w3.org/2000/svg">
<rect width="423" height="122" rx="6" fill="#F5F5F5"/>
<g clip-path="url(#clip0)">
<path opacity="0.4" d="M385.675 33.4426C385.046 32.7209 384.7 31.7987 384.7 30.8448V29.556C384.699 28.8741 384.873 28.2032 385.207 27.6069C385.541 27.0107 386.023 26.5089 386.607 26.1491L386.949 25.2188H385.969C385.825 25.2188 385.686 25.162 385.584 25.0609C385.482 24.9598 385.425 24.8227 385.425 24.6797V22.8828C385.425 22.7398 385.482 22.6027 385.584 22.5016C385.686 22.4005 385.825 22.3438 385.969 22.3438H387.781C387.865 22.3448 387.947 22.3654 388.021 22.4038C388.096 22.4422 388.16 22.4973 388.209 22.5648C389.116 21.3591 390.455 20.5435 391.95 20.2854V14.4375C391.95 14.0563 391.797 13.6906 391.525 13.421C391.253 13.1515 390.885 13 390.5 13H377.45C377.065 13 376.697 13.1515 376.425 13.421C376.153 13.6906 376 14.0563 376 14.4375V35.2812C376 35.4719 376.076 35.6547 376.212 35.7895C376.348 35.9243 376.533 36 376.725 36H386.017C385.796 35.6056 385.678 35.1624 385.675 34.7112V33.4426ZM385.425 17.1328C385.425 16.9898 385.482 16.8527 385.584 16.7516C385.686 16.6505 385.825 16.5938 385.969 16.5938H387.781C387.925 16.5938 388.064 16.6505 388.166 16.7516C388.268 16.8527 388.325 16.9898 388.325 17.1328V18.9297C388.325 19.0727 388.268 19.2098 388.166 19.3109C388.064 19.412 387.925 19.4688 387.781 19.4688H385.969C385.825 19.4688 385.686 19.412 385.584 19.3109C385.482 19.2098 385.425 19.0727 385.425 18.9297V17.1328ZM382.525 30.4297C382.525 30.5727 382.468 30.7098 382.366 30.8109C382.264 30.912 382.125 30.9688 381.981 30.9688H380.169C380.025 30.9688 379.886 30.912 379.784 30.8109C379.682 30.7098 379.625 30.5727 379.625 30.4297V28.6328C379.625 28.4898 379.682 28.3527 379.784 28.2516C379.886 28.1505 380.025 28.0938 380.169 28.0938H381.981C382.125 28.0938 382.264 28.1505 382.366 28.2516C382.468 28.3527 382.525 28.4898 382.525 28.6328V30.4297ZM382.525 24.6797C382.525 24.8227 382.468 24.9598 382.366 25.0609C382.264 25.162 382.125 25.2188 381.981 25.2188H380.169C380.025 25.2188 379.886 25.162 379.784 25.0609C379.682 24.9598 379.625 24.8227 379.625 24.6797V22.8828C379.625 22.7398 379.682 22.6027 379.784 22.5016C379.886 22.4005 380.025 22.3438 380.169 22.3438H381.981C382.125 22.3438 382.264 22.4005 382.366 22.5016C382.468 22.6027 382.525 22.7398 382.525 22.8828V24.6797ZM382.525 18.9297C382.525 19.0727 382.468 19.2098 382.366 19.3109C382.264 19.412 382.125 19.4688 381.981 19.4688H380.169C380.025 19.4688 379.886 19.412 379.784 19.3109C379.682 19.2098 379.625 19.0727 379.625 18.9297V17.1328C379.625 16.9898 379.682 16.8527 379.784 16.7516C379.886 16.6505 380.025 16.5938 380.169 16.5938H381.981C382.125 16.5938 382.264 16.6505 382.366 16.7516C382.468 16.8527 382.525 16.9898 382.525 17.1328V18.9297Z" fill="#9A8E4E"/>
<path d="M403.395 27.1755L403.187 26.6652L402.378 24.4605C402.043 23.6219 401.461 22.9029 400.707 22.3971C399.954 21.8913 399.064 21.6222 398.155 21.625H392.995C392.085 21.622 391.195 21.8909 390.442 22.3967C389.688 22.9025 389.106 23.6217 388.77 24.4605L387.962 26.6652L387.756 27.1751C387.281 27.3703 386.876 27.7006 386.59 28.1244C386.304 28.5481 386.152 29.0463 386.151 29.5559V30.8447C386.152 31.2288 386.241 31.6076 386.409 31.9533C386.578 32.299 386.823 32.6027 387.126 32.842V34.7112C387.126 35.0528 387.263 35.3803 387.507 35.6219C387.75 35.8635 388.081 35.9995 388.425 36H389.725C390.07 35.9999 390.4 35.864 390.644 35.6223C390.888 35.3807 391.025 35.0529 391.025 34.7112V33.125H400.125V34.7112C400.125 35.053 400.262 35.3807 400.506 35.6224C400.749 35.864 401.08 35.9999 401.425 36H402.725C403.07 35.9999 403.4 35.864 403.644 35.6224C403.888 35.3807 404.025 35.053 404.025 34.7112V32.842C404.328 32.6029 404.573 32.2992 404.742 31.9535C404.911 31.6078 404.999 31.2288 405 30.8447V29.5559C405 29.0463 404.847 28.5482 404.561 28.1245C404.276 27.7009 403.87 27.3706 403.395 27.1755ZM391.185 25.7578C391.481 24.9977 392.198 24.5 392.997 24.5H398.155C398.952 24.5 399.669 24.9986 399.967 25.7578L400.514 27.375H390.636L391.185 25.7578ZM389.594 31.3214C388.941 31.3214 388.506 30.8915 388.506 30.2464C388.506 29.6013 388.941 29.1719 389.594 29.1719C390.246 29.1719 391.225 30.139 391.225 30.7841C391.225 31.4292 390.246 31.3214 389.594 31.3214ZM401.556 31.3214C400.904 31.3214 399.925 31.4287 399.925 30.7823C399.925 30.1359 400.904 29.1719 401.556 29.1719C402.209 29.1719 402.644 29.6018 402.644 30.2464C402.644 30.891 402.209 31.3214 401.556 31.3214Z" fill="#9A8E4E"/>
</g>
<path d="M17.416 29L19.832 17.576H23.16C24.248 17.576 25.1227 17.7733 25.784 18.168C26.4453 18.552 26.776 19.2027 26.776 20.12C26.776 20.8987 26.5573 21.5387 26.12 22.04C25.6827 22.5413 25.0693 22.8773 24.28 23.048V23.112C24.8027 23.2507 25.2187 23.5067 25.528 23.88C25.8373 24.2427 25.992 24.7067 25.992 25.272C25.992 26.136 25.7947 26.8453 25.4 27.4C25.0053 27.944 24.4667 28.3493 23.784 28.616C23.112 28.872 22.3493 29 21.496 29H17.416ZM22.424 22.104C22.9893 22.104 23.4427 21.992 23.784 21.768C24.136 21.5333 24.312 21.1547 24.312 20.632C24.312 19.9173 23.8693 19.56 22.984 19.56H21.8L21.256 22.104H22.424ZM21.624 27C22.2107 27 22.68 26.856 23.032 26.568C23.3947 26.2693 23.576 25.8427 23.576 25.288C23.576 24.8827 23.4587 24.5733 23.224 24.36C22.9893 24.136 22.632 24.024 22.152 24.024H20.856L20.216 27H21.624ZM27.2099 29L29.0659 20.264H30.8579L30.6979 21.88H30.7779C31.1299 21.3253 31.5299 20.8933 31.9779 20.584C32.4259 20.264 32.9325 20.104 33.4979 20.104C33.6259 20.104 33.7592 20.1147 33.8979 20.136C34.0472 20.1467 34.1645 20.1627 34.2499 20.184L33.7379 22.456C33.6525 22.424 33.5405 22.3973 33.4019 22.376C33.2632 22.344 33.1139 22.328 32.9539 22.328C32.3672 22.328 31.8392 22.5627 31.3699 23.032C30.9112 23.4907 30.5859 24.1787 30.3939 25.096L29.5619 29H27.2099ZM37.3918 29.16C36.7411 29.16 36.1598 29.0267 35.6478 28.76C35.1464 28.4827 34.7518 28.0933 34.4638 27.592C34.1864 27.0907 34.0478 26.4933 34.0478 25.8C34.0478 25.032 34.1438 24.3067 34.3358 23.624C34.5278 22.9307 34.8158 22.3227 35.1998 21.8C35.5838 21.2667 36.0638 20.8507 36.6398 20.552C37.2264 20.2533 37.9091 20.104 38.6878 20.104C39.7011 20.104 40.5064 20.408 41.1038 21.016C41.7011 21.624 41.9998 22.472 41.9998 23.56C41.9998 24.296 41.9091 25 41.7278 25.672C41.5464 26.344 41.2638 26.9413 40.8798 27.464C40.5064 27.9867 40.0264 28.4027 39.4398 28.712C38.8638 29.0107 38.1811 29.16 37.3918 29.16ZM37.5838 27.24C38.0211 27.24 38.3891 27.064 38.6878 26.712C38.9971 26.36 39.2318 25.9067 39.3918 25.352C39.5518 24.7867 39.6318 24.1893 39.6318 23.56C39.6318 23.1227 39.5464 22.76 39.3758 22.472C39.2158 22.1733 38.9278 22.024 38.5118 22.024C38.1598 22.024 37.8504 22.1467 37.5838 22.392C37.3171 22.6267 37.0984 22.936 36.9278 23.32C36.7571 23.704 36.6291 24.1147 36.5438 24.552C36.4584 24.9893 36.4158 25.4053 36.4158 25.8C36.4158 26.76 36.8051 27.24 37.5838 27.24ZM42.9911 29L45.5671 16.84H47.9191L46.7671 22.264C46.7138 22.5307 46.6338 22.84 46.5271 23.192C46.4205 23.5333 46.3405 23.7947 46.2871 23.976H46.3511L49.8871 20.264H52.5751L48.6871 24.2L50.9111 29H48.2871L46.8631 25.72L45.9191 26.28L45.3431 29H42.9911ZM55.6444 29.16C54.6204 29.16 53.7884 28.8827 53.1484 28.328C52.5084 27.7627 52.1884 26.9147 52.1884 25.784C52.1884 25.048 52.2897 24.344 52.4924 23.672C52.7057 22.9893 53.015 22.3813 53.4204 21.848C53.8364 21.3147 54.3484 20.8933 54.9564 20.584C55.5644 20.264 56.2684 20.104 57.0684 20.104C58.0497 20.104 58.7804 20.328 59.2604 20.776C59.751 21.224 59.9964 21.7947 59.9964 22.488C59.9964 23.4053 59.5804 24.1413 58.7484 24.696C57.927 25.2507 56.6684 25.528 54.9724 25.528H54.5724C54.5617 25.592 54.5564 25.6507 54.5564 25.704C54.5564 25.7467 54.5564 25.7947 54.5564 25.848C54.5564 26.3173 54.6897 26.6907 54.9564 26.968C55.2337 27.2453 55.6177 27.384 56.1084 27.384C56.567 27.384 56.983 27.3307 57.3564 27.224C57.7297 27.1173 58.1724 26.9467 58.6844 26.712V28.488C58.2257 28.712 57.7617 28.8827 57.2924 29C56.823 29.1067 56.2737 29.16 55.6444 29.16ZM55.1804 23.944C56.087 23.944 56.7377 23.8053 57.1324 23.528C57.5377 23.24 57.7404 22.9093 57.7404 22.536C57.7404 22.0453 57.4684 21.8 56.9244 21.8C56.6364 21.8 56.3484 21.8907 56.0604 22.072C55.7724 22.2533 55.5164 22.504 55.2924 22.824C55.079 23.144 54.9244 23.5173 54.8284 23.944H55.1804ZM60.6786 29L62.5346 20.264H64.3266L64.1666 21.88H64.2306C64.572 21.3573 64.9613 20.9307 65.3986 20.6C65.8466 20.2693 66.3746 20.104 66.9826 20.104C67.74 20.104 68.3053 20.3333 68.6786 20.792C69.052 21.24 69.2386 21.848 69.2386 22.616C69.2386 23 69.18 23.4693 69.0626 24.024L68.0226 29H65.6706L66.7426 23.896C66.828 23.5227 66.8706 23.2133 66.8706 22.968C66.8706 22.328 66.588 22.008 66.0226 22.008C65.6706 22.008 65.3506 22.1627 65.0626 22.472C64.7746 22.7707 64.524 23.176 64.3106 23.688C64.108 24.2 63.9373 24.7653 63.7986 25.384L63.0306 29H60.6786ZM73.3329 29L73.6209 27.624L75.0769 26.984L76.6449 19.592L75.4609 18.952L75.7489 17.576H80.8049L80.5169 18.952L79.0289 19.592L77.4609 26.984L78.6769 27.624L78.3889 29H73.3329ZM80.2099 29L82.0659 20.264H83.8579L83.6979 21.88H83.7619C84.1032 21.3573 84.4925 20.9307 84.9299 20.6C85.3779 20.2693 85.9059 20.104 86.5139 20.104C87.2712 20.104 87.8365 20.3333 88.2099 20.792C88.5832 21.24 88.7699 21.848 88.7699 22.616C88.7699 23 88.7112 23.4693 88.5939 24.024L87.5539 29H85.2019L86.2739 23.896C86.3592 23.5227 86.4019 23.2133 86.4019 22.968C86.4019 22.328 86.1192 22.008 85.5539 22.008C85.2019 22.008 84.8819 22.1627 84.5939 22.472C84.3059 22.7707 84.0552 23.176 83.8419 23.688C83.6392 24.2 83.4685 24.7653 83.3299 25.384L82.5619 29H80.2099ZM89.2261 32.84C88.6821 32.84 88.2288 32.776 87.8661 32.648V30.76C88.1861 30.8667 88.4848 30.92 88.7621 30.92C89.0821 30.92 89.3595 30.8133 89.5941 30.6C89.8395 30.3867 90.0101 30.0507 90.1061 29.592L91.7061 22.056H90.4261L90.6661 20.92L92.0901 20.264L92.2341 19.608C92.4688 18.552 92.8475 17.816 93.3701 17.4C93.9035 16.9733 94.5968 16.76 95.4501 16.76C95.8128 16.76 96.1435 16.7973 96.4421 16.872C96.7515 16.936 97.0341 17.0267 97.2901 17.144L96.6661 18.888C96.5168 18.824 96.3568 18.7707 96.1861 18.728C96.0261 18.6747 95.8395 18.648 95.6261 18.648C95.3275 18.648 95.0875 18.7547 94.9061 18.968C94.7248 19.1707 94.6021 19.4427 94.5381 19.784L94.4421 20.264H96.1541L95.7701 22.056H94.0581L92.3781 29.944C92.2715 30.4773 92.0955 30.9627 91.8501 31.4C91.6048 31.8373 91.2688 32.184 90.8421 32.44C90.4261 32.7067 89.8875 32.84 89.2261 32.84ZM95.8349 29L97.6909 20.264H99.4829L99.3229 21.88H99.4029C99.7549 21.3253 100.155 20.8933 100.603 20.584C101.051 20.264 101.558 20.104 102.123 20.104C102.251 20.104 102.384 20.1147 102.523 20.136C102.672 20.1467 102.79 20.1627 102.875 20.184L102.363 22.456C102.278 22.424 102.166 22.3973 102.027 22.376C101.888 22.344 101.739 22.328 101.579 22.328C100.992 22.328 100.464 22.5627 99.9949 23.032C99.5362 23.4907 99.2109 24.1787 99.0189 25.096L98.1869 29H95.8349ZM105.137 29.16C104.721 29.16 104.321 29.0587 103.937 28.856C103.563 28.6427 103.259 28.3067 103.025 27.848C102.79 27.3787 102.673 26.76 102.673 25.992C102.673 25.2773 102.769 24.5733 102.961 23.88C103.153 23.1867 103.425 22.5573 103.777 21.992C104.129 21.416 104.55 20.9573 105.041 20.616C105.542 20.2747 106.102 20.104 106.721 20.104C107.275 20.104 107.723 20.2213 108.065 20.456C108.417 20.6907 108.689 21 108.881 21.384H108.945L109.393 20.264H111.201L109.345 29H107.585L107.697 27.864H107.633C107.323 28.248 106.966 28.5627 106.561 28.808C106.166 29.0427 105.691 29.16 105.137 29.16ZM106.065 27.256C106.385 27.256 106.683 27.128 106.961 26.872C107.238 26.616 107.473 26.2853 107.665 25.88C107.867 25.4747 108.011 25.048 108.097 24.6C108.171 24.216 108.209 23.7787 108.209 23.288C108.209 22.9147 108.113 22.6107 107.921 22.376C107.729 22.1307 107.462 22.008 107.121 22.008C106.833 22.008 106.561 22.1253 106.305 22.36C106.059 22.584 105.841 22.8827 105.649 23.256C105.467 23.6293 105.323 24.0453 105.217 24.504C105.11 24.9627 105.057 25.4213 105.057 25.88C105.057 26.7973 105.393 27.256 106.065 27.256ZM114.269 29.16C113.714 29.16 113.229 29.1173 112.813 29.032C112.397 28.9573 112.007 28.8293 111.645 28.648V26.712C112.039 26.936 112.445 27.112 112.861 27.24C113.277 27.3573 113.703 27.416 114.141 27.416C114.514 27.416 114.845 27.3413 115.133 27.192C115.421 27.032 115.565 26.792 115.565 26.472C115.565 26.2587 115.479 26.0667 115.309 25.896C115.138 25.7253 114.786 25.4907 114.253 25.192C113.709 24.8827 113.287 24.5627 112.989 24.232C112.701 23.8907 112.557 23.4427 112.557 22.888C112.557 21.9813 112.85 21.2933 113.437 20.824C114.034 20.344 114.85 20.104 115.885 20.104C116.386 20.104 116.871 20.1627 117.341 20.28C117.81 20.3867 118.269 20.5733 118.717 20.84L117.949 22.52C117.639 22.3387 117.309 22.184 116.957 22.056C116.615 21.928 116.274 21.864 115.933 21.864C115.677 21.864 115.447 21.928 115.245 22.056C115.042 22.1733 114.941 22.3547 114.941 22.6C114.941 22.8027 115.026 22.984 115.197 23.144C115.367 23.2933 115.677 23.4853 116.125 23.72C116.658 23.9867 117.095 24.3067 117.437 24.68C117.778 25.0427 117.949 25.5227 117.949 26.12C117.949 27.1227 117.613 27.88 116.941 28.392C116.279 28.904 115.389 29.16 114.269 29.16ZM122.231 29.16C121.549 29.16 120.999 29.016 120.583 28.728C120.167 28.4293 119.959 27.9013 119.959 27.144C119.959 26.8773 119.991 26.584 120.055 26.264L120.951 22.056H119.767L119.991 20.904L121.527 20.248L122.551 18.408H124.071L123.687 20.264H125.895L125.511 22.056H123.303L122.407 26.264C122.375 26.424 122.359 26.5627 122.359 26.68C122.359 26.8827 122.423 27.032 122.551 27.128C122.679 27.2133 122.845 27.256 123.047 27.256C123.261 27.256 123.463 27.2347 123.655 27.192C123.858 27.1387 124.077 27.0693 124.311 26.984V28.744C124.066 28.8613 123.767 28.9573 123.415 29.032C123.063 29.1173 122.669 29.16 122.231 29.16ZM125.882 29L127.738 20.264H129.53L129.37 21.88H129.45C129.802 21.3253 130.202 20.8933 130.65 20.584C131.098 20.264 131.604 20.104 132.17 20.104C132.298 20.104 132.431 20.1147 132.57 20.136C132.719 20.1467 132.836 20.1627 132.922 20.184L132.41 22.456C132.324 22.424 132.212 22.3973 132.074 22.376C131.935 22.344 131.786 22.328 131.626 22.328C131.039 22.328 130.511 22.5627 130.042 23.032C129.583 23.4907 129.258 24.1787 129.066 25.096L128.234 29H125.882ZM135.416 29.16C134.669 29.16 134.109 28.936 133.736 28.488C133.373 28.0293 133.192 27.416 133.192 26.648C133.192 26.456 133.208 26.2107 133.24 25.912C133.272 25.6027 133.32 25.2933 133.384 24.984L134.376 20.264H136.728L135.656 25.368C135.571 25.7413 135.528 26.0507 135.528 26.296C135.528 26.936 135.811 27.256 136.376 27.256C136.739 27.256 137.059 27.1067 137.336 26.808C137.624 26.4987 137.875 26.088 138.088 25.576C138.301 25.064 138.472 24.4987 138.6 23.88L139.368 20.264H141.72L139.864 29H138.072L138.232 27.384H138.152C137.821 27.9067 137.432 28.3333 136.984 28.664C136.547 28.9947 136.024 29.16 135.416 29.16ZM145.936 29.16C145.339 29.16 144.79 29.0533 144.288 28.84C143.798 28.616 143.408 28.2693 143.12 27.8C142.832 27.3307 142.688 26.712 142.688 25.944C142.688 25.1547 142.79 24.4133 142.992 23.72C143.195 23.016 143.494 22.392 143.888 21.848C144.283 21.304 144.768 20.8773 145.344 20.568C145.92 20.2587 146.576 20.104 147.312 20.104C147.835 20.104 148.299 20.152 148.704 20.248C149.12 20.344 149.51 20.4827 149.872 20.664L149.152 22.456C148.875 22.3387 148.598 22.2373 148.32 22.152C148.054 22.056 147.75 22.008 147.408 22.008C146.918 22.008 146.496 22.1947 146.144 22.568C145.792 22.9307 145.526 23.4 145.344 23.976C145.163 24.5413 145.072 25.1333 145.072 25.752C145.072 26.2427 145.19 26.616 145.424 26.872C145.659 27.128 145.99 27.256 146.416 27.256C146.811 27.256 147.174 27.1973 147.504 27.08C147.846 26.952 148.198 26.7973 148.56 26.616V28.536C148.198 28.728 147.803 28.8827 147.376 29C146.96 29.1067 146.48 29.16 145.936 29.16ZM152.919 29.16C152.236 29.16 151.687 29.016 151.271 28.728C150.855 28.4293 150.647 27.9013 150.647 27.144C150.647 26.8773 150.679 26.584 150.743 26.264L151.639 22.056H150.455L150.679 20.904L152.215 20.248L153.239 18.408H154.759L154.375 20.264H156.583L156.199 22.056H153.991L153.095 26.264C153.063 26.424 153.047 26.5627 153.047 26.68C153.047 26.8827 153.111 27.032 153.239 27.128C153.367 27.2133 153.532 27.256 153.735 27.256C153.948 27.256 154.151 27.2347 154.343 27.192C154.545 27.1387 154.764 27.0693 154.999 26.984V28.744C154.753 28.8613 154.455 28.9573 154.103 29.032C153.751 29.1173 153.356 29.16 152.919 29.16ZM159.369 29.16C158.623 29.16 158.063 28.936 157.689 28.488C157.327 28.0293 157.145 27.416 157.145 26.648C157.145 26.456 157.161 26.2107 157.193 25.912C157.225 25.6027 157.273 25.2933 157.337 24.984L158.329 20.264H160.681L159.609 25.368C159.524 25.7413 159.481 26.0507 159.481 26.296C159.481 26.936 159.764 27.256 160.329 27.256C160.692 27.256 161.012 27.1067 161.289 26.808C161.577 26.4987 161.828 26.088 162.041 25.576C162.255 25.064 162.425 24.4987 162.553 23.88L163.321 20.264H165.673L163.817 29H162.025L162.185 27.384H162.105C161.775 27.9067 161.385 28.3333 160.937 28.664C160.5 28.9947 159.977 29.16 159.369 29.16ZM166.226 29L168.082 20.264H169.874L169.714 21.88H169.794C170.146 21.3253 170.546 20.8933 170.994 20.584C171.442 20.264 171.948 20.104 172.514 20.104C172.642 20.104 172.775 20.1147 172.914 20.136C173.063 20.1467 173.18 20.1627 173.266 20.184L172.754 22.456C172.668 22.424 172.556 22.3973 172.418 22.376C172.279 22.344 172.13 22.328 171.97 22.328C171.383 22.328 170.855 22.5627 170.386 23.032C169.927 23.4907 169.602 24.1787 169.41 25.096L168.578 29H166.226ZM176.519 29.16C175.495 29.16 174.663 28.8827 174.023 28.328C173.383 27.7627 173.063 26.9147 173.063 25.784C173.063 25.048 173.165 24.344 173.367 23.672C173.581 22.9893 173.89 22.3813 174.295 21.848C174.711 21.3147 175.223 20.8933 175.831 20.584C176.439 20.264 177.143 20.104 177.943 20.104C178.925 20.104 179.655 20.328 180.135 20.776C180.626 21.224 180.871 21.7947 180.871 22.488C180.871 23.4053 180.455 24.1413 179.623 24.696C178.802 25.2507 177.543 25.528 175.847 25.528H175.447C175.437 25.592 175.431 25.6507 175.431 25.704C175.431 25.7467 175.431 25.7947 175.431 25.848C175.431 26.3173 175.565 26.6907 175.831 26.968C176.109 27.2453 176.493 27.384 176.983 27.384C177.442 27.384 177.858 27.3307 178.231 27.224C178.605 27.1173 179.047 26.9467 179.559 26.712V28.488C179.101 28.712 178.637 28.8827 178.167 29C177.698 29.1067 177.149 29.16 176.519 29.16ZM176.055 23.944C176.962 23.944 177.613 23.8053 178.007 23.528C178.413 23.24 178.615 22.9093 178.615 22.536C178.615 22.0453 178.343 21.8 177.799 21.8C177.511 21.8 177.223 21.8907 176.935 22.072C176.647 22.2533 176.391 22.504 176.167 22.824C175.954 23.144 175.799 23.5173 175.703 23.944H176.055Z" fill="black"/>
<path d="M17.732 38.42V47H23.444V45.788H19.16V38.42H17.732ZM28.0346 42.476C28.0346 43.064 27.4586 43.184 26.5106 43.364C24.9746 43.664 23.9786 44.084 23.9786 45.428C23.9786 46.46 24.7466 47.18 25.9946 47.18C26.9426 47.18 27.6386 46.808 28.0226 46.268H28.0466C28.1666 46.868 28.4786 47.108 29.1506 47.108C29.3906 47.108 29.5946 47.084 29.8826 46.976V46.376C29.3906 46.424 29.2946 46.196 29.2946 45.764V42.848C29.2946 41.216 28.2866 40.7 26.9306 40.7C25.0826 40.7 24.3266 41.624 24.2666 42.8H25.4906C25.5506 42.008 25.9226 41.696 26.9306 41.696C27.7706 41.696 28.0346 42.032 28.0346 42.476ZM26.2706 46.184C25.5866 46.184 25.2506 45.872 25.2506 45.308C25.2506 44.684 25.7066 44.384 26.7506 44.156C27.3386 44.036 27.8306 43.892 28.0346 43.748V44.672C28.0346 45.668 27.3146 46.184 26.2706 46.184ZM37.8127 44.312V38.42H36.3967V44.312C36.3967 45.272 36.2047 45.956 35.1367 45.956C34.0567 45.956 33.8887 45.272 33.8887 44.312V43.916H32.5327V44.312C32.5327 45.788 33.1087 47.18 35.1727 47.18C37.2367 47.18 37.8127 45.788 37.8127 44.312ZM41.8053 47.18C39.8853 47.18 38.7213 45.848 38.7213 43.94C38.7213 42.032 39.8853 40.7 41.8053 40.7C43.7253 40.7 44.8893 42.032 44.8893 43.94C44.8893 45.848 43.7253 47.18 41.8053 47.18ZM41.8053 46.148C43.0053 46.148 43.6293 45.2 43.6293 43.94C43.6293 42.668 43.0053 41.732 41.8053 41.732C40.6053 41.732 39.9813 42.668 39.9813 43.94C39.9813 45.2 40.6053 46.148 41.8053 46.148ZM45.7842 38.42V47H47.0562V38.42H45.7842ZM48.2099 38.42V47H49.4819V38.42H48.2099ZM54.4135 42.476C54.4135 43.064 53.8375 43.184 52.8895 43.364C51.3535 43.664 50.3575 44.084 50.3575 45.428C50.3575 46.46 51.1255 47.18 52.3735 47.18C53.3215 47.18 54.0175 46.808 54.4015 46.268H54.4255C54.5455 46.868 54.8575 47.108 55.5295 47.108C55.7695 47.108 55.9735 47.084 56.2615 46.976V46.376C55.7695 46.424 55.6735 46.196 55.6735 45.764V42.848C55.6735 41.216 54.6655 40.7 53.3095 40.7C51.4615 40.7 50.7055 41.624 50.6455 42.8H51.8695C51.9295 42.008 52.3015 41.696 53.3095 41.696C54.1495 41.696 54.4135 42.032 54.4135 42.476ZM52.6495 46.184C51.9655 46.184 51.6295 45.872 51.6295 45.308C51.6295 44.684 52.0855 44.384 53.1295 44.156C53.7175 44.036 54.2095 43.892 54.4135 43.748V44.672C54.4135 45.668 53.6935 46.184 52.6495 46.184ZM57.8828 47.084C57.8828 47.54 57.5948 47.912 57.1508 47.996V48.68C58.1948 48.512 58.6268 47.516 58.6268 46.64C58.6268 45.968 58.3508 45.536 57.8108 45.536C57.3788 45.536 57.0308 45.824 57.0308 46.34C57.0308 46.904 57.4148 47.168 57.8828 47.084ZM65.3746 41.888C64.1746 41.588 63.3706 41.42 63.3706 40.484C63.3706 39.848 63.9826 39.464 65.0026 39.464C66.1906 39.464 66.8146 39.992 66.9466 40.988H68.3746C68.2546 39.224 66.8866 38.24 65.0026 38.24C63.1306 38.24 61.9546 39.092 61.9546 40.616C61.9546 42.248 63.4066 42.764 64.7506 43.1C66.4426 43.52 67.1746 43.712 67.1746 44.732C67.1746 45.392 66.6826 45.956 65.4106 45.956C63.8746 45.956 63.1306 45.236 63.0586 44.144H61.6306C61.7146 46.088 63.3106 47.18 65.4106 47.18C67.5706 47.18 68.6026 46.04 68.6026 44.672C68.6026 42.752 67.2106 42.356 65.3746 41.888ZM73.2924 42.476C73.2924 43.064 72.7164 43.184 71.7684 43.364C70.2324 43.664 69.2364 44.084 69.2364 45.428C69.2364 46.46 70.0044 47.18 71.2524 47.18C72.2004 47.18 72.8964 46.808 73.2804 46.268H73.3044C73.4244 46.868 73.7364 47.108 74.4084 47.108C74.6484 47.108 74.8524 47.084 75.1404 46.976V46.376C74.6484 46.424 74.5524 46.196 74.5524 45.764V42.848C74.5524 41.216 73.5444 40.7 72.1884 40.7C70.3404 40.7 69.5844 41.624 69.5244 42.8H70.7484C70.8084 42.008 71.1804 41.696 72.1884 41.696C73.0284 41.696 73.2924 42.032 73.2924 42.476ZM71.5284 46.184C70.8444 46.184 70.5084 45.872 70.5084 45.308C70.5084 44.684 70.9644 44.384 72.0084 44.156C72.5964 44.036 73.0884 43.892 73.2924 43.748V44.672C73.2924 45.668 72.5724 46.184 71.5284 46.184ZM79.1773 40.7C78.1213 40.7 77.4853 41.18 77.1613 41.66H77.1373V40.868H75.8773V47H77.1373V43.268C77.1373 42.356 77.7613 41.768 78.7333 41.768C79.5973 41.768 79.9453 42.296 79.9453 43.124V47H81.2173V42.764C81.2173 41.36 80.3173 40.7 79.1773 40.7ZM84.7867 47H88.1587C90.5347 47 91.9387 45.476 91.9387 42.716C91.9387 39.956 90.4867 38.42 88.1227 38.42H84.7867V47ZM86.2147 39.632H88.0507C89.9707 39.632 90.5107 41.072 90.5107 42.716C90.5107 44.36 89.9707 45.788 88.0507 45.788H86.2147V39.632ZM93.6596 39.836C94.0316 39.836 94.3796 39.596 94.3796 39.164C94.3796 38.732 94.0316 38.504 93.6596 38.504C93.3116 38.504 92.9516 38.732 92.9516 39.164C92.9516 39.596 93.3116 39.836 93.6596 39.836ZM93.0356 40.868V47H94.2956V40.868H93.0356ZM98.2886 46.148C97.1726 46.148 96.5126 45.296 96.5126 44.264H101.217C101.217 42.08 100.245 40.7 98.2646 40.7C96.4166 40.7 95.2526 41.948 95.2526 43.94C95.2526 45.86 96.4166 47.18 98.3246 47.18C99.8966 47.18 100.809 46.292 101.121 45.128H99.8606C99.7526 45.5 99.3326 46.148 98.2886 46.148ZM98.2646 41.696C99.2846 41.696 99.9566 42.38 99.9566 43.328H96.5126C96.5126 42.38 97.2446 41.696 98.2646 41.696ZM106.328 40.868V41.588H106.304C105.98 41.156 105.416 40.7 104.444 40.7C102.908 40.7 101.756 41.756 101.756 43.7C101.756 45.632 102.908 46.7 104.444 46.7C105.416 46.7 105.98 46.244 106.304 45.788H106.328V46.532C106.328 47.636 105.788 48.116 104.732 48.116C103.736 48.116 103.304 47.708 103.184 47.168H101.912C102.044 48.2 103.016 49.124 104.78 49.124C106.52 49.124 107.588 48.344 107.588 46.58V40.868H106.328ZM104.684 45.668C103.58 45.668 103.016 44.828 103.016 43.7C103.016 42.56 103.58 41.732 104.684 41.732C105.704 41.732 106.316 42.404 106.316 43.7C106.316 44.996 105.704 45.668 104.684 45.668ZM111.544 47.18C109.624 47.18 108.46 45.848 108.46 43.94C108.46 42.032 109.624 40.7 111.544 40.7C113.464 40.7 114.628 42.032 114.628 43.94C114.628 45.848 113.464 47.18 111.544 47.18ZM111.544 46.148C112.744 46.148 113.368 45.2 113.368 43.94C113.368 42.668 112.744 41.732 111.544 41.732C110.344 41.732 109.72 42.668 109.72 43.94C109.72 45.2 110.344 46.148 111.544 46.148ZM115.961 47.084C115.961 47.54 115.673 47.912 115.229 47.996V48.68C116.273 48.512 116.705 47.516 116.705 46.64C116.705 45.968 116.429 45.536 115.889 45.536C115.457 45.536 115.109 45.824 115.109 46.34C115.109 46.904 115.493 47.168 115.961 47.084ZM126.849 44.072V38.42H125.433V44.072C125.433 45.368 124.785 45.956 123.465 45.956C122.157 45.956 121.509 45.368 121.509 44.072V38.42H120.081V44.072C120.081 45.944 121.077 47.18 123.465 47.18C125.853 47.18 126.849 45.944 126.849 44.072ZM131.55 41.888C130.35 41.588 129.546 41.42 129.546 40.484C129.546 39.848 130.158 39.464 131.178 39.464C132.366 39.464 132.99 39.992 133.122 40.988H134.55C134.43 39.224 133.062 38.24 131.178 38.24C129.306 38.24 128.13 39.092 128.13 40.616C128.13 42.248 129.582 42.764 130.926 43.1C132.618 43.52 133.35 43.712 133.35 44.732C133.35 45.392 132.858 45.956 131.586 45.956C130.05 45.956 129.306 45.236 129.234 44.144H127.806C127.89 46.088 129.486 47.18 131.586 47.18C133.746 47.18 134.778 46.04 134.778 44.672C134.778 42.752 133.386 42.356 131.55 41.888ZM140.79 44.972L141.486 47H142.938L139.794 38.42H138.294L135.138 47H136.59L137.286 44.972H140.79ZM137.682 43.784L139.038 39.728H139.062L140.406 43.784H137.682Z" fill="#133949"/>
<path d="M18.884 57.648C18.884 56.508 19.352 55.716 20.588 55.716C21.656 55.716 21.98 56.4 21.98 57.084C21.98 58.26 21.008 58.656 19.484 59.664C18.212 60.468 17.336 61.536 17.336 63H23.288V61.824H19.148V61.8C19.832 60.108 23.372 59.664 23.372 57.024C23.372 55.44 22.16 54.528 20.624 54.528C18.5 54.528 17.54 55.86 17.54 57.648H18.884ZM27.5889 63.18C29.9289 63.18 30.9249 61.212 30.9249 58.86C30.9249 56.508 29.9289 54.528 27.5889 54.528C25.2489 54.528 24.2529 56.508 24.2529 58.86C24.2529 61.212 25.2489 63.18 27.5889 63.18ZM27.5889 61.992C26.1249 61.992 25.6329 60.588 25.6329 58.86C25.6329 57.132 26.1249 55.716 27.5889 55.716C29.0529 55.716 29.5329 57.132 29.5329 58.86C29.5329 60.588 29.0529 61.992 27.5889 61.992ZM33.1692 57.648C33.1692 56.508 33.6372 55.716 34.8732 55.716C35.9412 55.716 36.2652 56.4 36.2652 57.084C36.2652 58.26 35.2932 58.656 33.7692 59.664C32.4972 60.468 31.6212 61.536 31.6212 63H37.5732V61.824H33.4332V61.8C34.1172 60.108 37.6572 59.664 37.6572 57.024C37.6572 55.44 36.4452 54.528 34.9092 54.528C32.7852 54.528 31.8252 55.86 31.8252 57.648H33.1692ZM40.4818 54.708C40.3978 55.728 39.9658 56.472 38.4658 56.472V57.468C39.1618 57.468 39.7138 57.468 40.2058 56.988V63H41.5978V54.708H40.4818ZM42.9086 59.364V60.54H46.1366V59.364H42.9086ZM50.3936 63.18C52.7336 63.18 53.7296 61.212 53.7296 58.86C53.7296 56.508 52.7336 54.528 50.3936 54.528C48.0536 54.528 47.0576 56.508 47.0576 58.86C47.0576 61.212 48.0536 63.18 50.3936 63.18ZM50.3936 61.992C48.9296 61.992 48.4376 60.588 48.4376 58.86C48.4376 57.132 48.9296 55.716 50.3936 55.716C51.8576 55.716 52.3376 57.132 52.3376 58.86C52.3376 60.588 51.8576 61.992 50.3936 61.992ZM59.7759 63V61.116H60.9399V59.94H59.7759V54.708H58.3839L54.4599 59.82V61.116H58.3839V63H59.7759ZM58.3839 56.436V59.94H55.6959L58.3839 56.436ZM61.6468 59.364V60.54H64.8748V59.364H61.6468ZM67.0807 57.216C67.0807 56.4 67.5007 55.716 68.8087 55.716C69.7927 55.716 70.2247 56.244 70.2247 56.928C70.2247 57.78 69.6487 58.14 68.7847 58.14H68.0887V59.244H68.8327C69.6847 59.244 70.5127 59.496 70.5127 60.636C70.5127 61.512 70.0327 61.992 68.7847 61.992C67.3687 61.992 66.8527 61.272 66.8527 60.156H65.5087C65.5087 62.064 66.6967 63.18 68.8807 63.18C70.6807 63.18 71.8927 62.304 71.8927 60.672C71.8927 59.688 71.4967 58.944 70.3687 58.62V58.596C71.1607 58.26 71.6167 57.708 71.6167 56.82C71.6167 55.356 70.3207 54.528 68.8567 54.528C66.7807 54.528 65.7247 55.668 65.7247 57.216H67.0807ZM76.0342 63.18C78.3742 63.18 79.3702 61.212 79.3702 58.86C79.3702 56.508 78.3742 54.528 76.0342 54.528C73.6942 54.528 72.6982 56.508 72.6982 58.86C72.6982 61.212 73.6942 63.18 76.0342 63.18ZM76.0342 61.992C74.5702 61.992 74.0782 60.588 74.0782 58.86C74.0782 57.132 74.5702 55.716 76.0342 55.716C77.4982 55.716 77.9782 57.132 77.9782 58.86C77.9782 60.588 77.4982 61.992 76.0342 61.992Z" fill="#133949"/>
<path d="M20.576 91H17.48V90.376L18.488 90.148V83.296L17.48 83.056V82.432H20.576V83.056L19.568 83.296V90.148L20.576 90.376V91ZM29.1424 84.448C29.8704 84.448 30.4144 84.636 30.7744 85.012C31.1344 85.38 31.3144 85.98 31.3144 86.812V91H30.2704V86.86C30.2704 85.844 29.8344 85.336 28.9624 85.336C28.3384 85.336 27.8904 85.516 27.6184 85.876C27.3544 86.236 27.2224 86.76 27.2224 87.448V91H26.1784V86.86C26.1784 85.844 25.7384 85.336 24.8584 85.336C24.2104 85.336 23.7624 85.536 23.5144 85.936C23.2664 86.336 23.1424 86.912 23.1424 87.664V91H22.0864V84.568H22.9384L23.0944 85.444H23.1544C23.3544 85.108 23.6224 84.86 23.9584 84.7C24.3024 84.532 24.6664 84.448 25.0504 84.448C26.0584 84.448 26.7144 84.808 27.0184 85.528H27.0784C27.2944 85.16 27.5864 84.888 27.9544 84.712C28.3304 84.536 28.7264 84.448 29.1424 84.448ZM36.3613 84.448C37.1533 84.448 37.7893 84.724 38.2693 85.276C38.7573 85.828 39.0013 86.66 39.0013 87.772C39.0013 88.868 38.7573 89.7 38.2693 90.268C37.7893 90.836 37.1493 91.12 36.3493 91.12C35.8533 91.12 35.4413 91.028 35.1133 90.844C34.7933 90.652 34.5413 90.432 34.3573 90.184H34.2853C34.3013 90.32 34.3173 90.492 34.3333 90.7C34.3493 90.908 34.3573 91.088 34.3573 91.24V93.88H33.3013V84.568H34.1653L34.3093 85.444H34.3573C34.5493 85.164 34.8013 84.928 35.1133 84.736C35.4253 84.544 35.8413 84.448 36.3613 84.448ZM36.1693 85.336C35.5133 85.336 35.0493 85.52 34.7773 85.888C34.5133 86.256 34.3733 86.816 34.3573 87.568V87.772C34.3573 88.564 34.4853 89.176 34.7413 89.608C35.0053 90.032 35.4893 90.244 36.1933 90.244C36.5853 90.244 36.9053 90.136 37.1533 89.92C37.4093 89.704 37.5973 89.412 37.7173 89.044C37.8453 88.668 37.9093 88.24 37.9093 87.76C37.9093 87.024 37.7653 86.436 37.4773 85.996C37.1973 85.556 36.7613 85.336 36.1693 85.336ZM43.1201 84.46C43.9041 84.46 44.4841 84.632 44.8601 84.976C45.2361 85.32 45.4241 85.868 45.4241 86.62V91H44.6561L44.4521 90.088H44.4041C44.1241 90.44 43.8281 90.7 43.5161 90.868C43.2121 91.036 42.7881 91.12 42.2441 91.12C41.6601 91.12 41.1761 90.968 40.7921 90.664C40.4081 90.352 40.2161 89.868 40.2161 89.212C40.2161 88.572 40.4681 88.08 40.9721 87.736C41.4761 87.384 42.2521 87.192 43.3001 87.16L44.3921 87.124V86.74C44.3921 86.204 44.2761 85.832 44.0441 85.624C43.8121 85.416 43.4841 85.312 43.0601 85.312C42.7241 85.312 42.4041 85.364 42.1001 85.468C41.7961 85.564 41.5121 85.676 41.2481 85.804L40.9241 85.012C41.2041 84.86 41.5361 84.732 41.9201 84.628C42.3041 84.516 42.7041 84.46 43.1201 84.46ZM43.4321 87.892C42.6321 87.924 42.0761 88.052 41.7641 88.276C41.4601 88.5 41.3081 88.816 41.3081 89.224C41.3081 89.584 41.4161 89.848 41.6321 90.016C41.8561 90.184 42.1401 90.268 42.4841 90.268C43.0281 90.268 43.4801 90.12 43.8401 89.824C44.2001 89.52 44.3801 89.056 44.3801 88.432V87.856L43.4321 87.892ZM49.9906 91.12C49.4226 91.12 48.9146 91.004 48.4666 90.772C48.0266 90.54 47.6786 90.18 47.4226 89.692C47.1746 89.204 47.0506 88.58 47.0506 87.82C47.0506 87.028 47.1826 86.384 47.4466 85.888C47.7106 85.392 48.0666 85.028 48.5146 84.796C48.9706 84.564 49.4866 84.448 50.0626 84.448C50.3906 84.448 50.7066 84.484 51.0106 84.556C51.3146 84.62 51.5626 84.7 51.7546 84.796L51.4306 85.672C51.2386 85.6 51.0146 85.532 50.7586 85.468C50.5026 85.404 50.2626 85.372 50.0386 85.372C48.7746 85.372 48.1426 86.184 48.1426 87.808C48.1426 88.584 48.2946 89.18 48.5986 89.596C48.9106 90.004 49.3706 90.208 49.9786 90.208C50.3306 90.208 50.6386 90.172 50.9026 90.1C51.1746 90.028 51.4226 89.94 51.6466 89.836V90.772C51.4306 90.884 51.1906 90.968 50.9266 91.024C50.6706 91.088 50.3586 91.12 49.9906 91.12ZM55.3242 90.256C55.4843 90.256 55.6483 90.244 55.8163 90.22C55.9843 90.188 56.1203 90.156 56.2243 90.124V90.928C56.1123 90.984 55.9523 91.028 55.7443 91.06C55.5363 91.1 55.3363 91.12 55.1443 91.12C54.8083 91.12 54.4963 91.064 54.2083 90.952C53.9283 90.832 53.7003 90.628 53.5243 90.34C53.3483 90.052 53.2603 89.648 53.2603 89.128V85.384H52.3483V84.88L53.2723 84.46L53.6923 83.092H54.3163V84.568H56.1763V85.384H54.3163V89.104C54.3163 89.496 54.4083 89.788 54.5923 89.98C54.7843 90.164 55.0283 90.256 55.3242 90.256ZM59.9962 84.448C60.5482 84.448 61.0202 84.568 61.4122 84.808C61.8122 85.048 62.1162 85.388 62.3242 85.828C62.5402 86.26 62.6482 86.768 62.6482 87.352V87.988H58.2442C58.2602 88.716 58.4442 89.272 58.7962 89.656C59.1562 90.032 59.6562 90.22 60.2962 90.22C60.7042 90.22 61.0642 90.184 61.3762 90.112C61.6962 90.032 62.0242 89.92 62.3602 89.776V90.7C62.0322 90.844 61.7082 90.948 61.3882 91.012C61.0682 91.084 60.6882 91.12 60.2482 91.12C59.6402 91.12 59.1002 90.996 58.6282 90.748C58.1642 90.5 57.8002 90.132 57.5362 89.644C57.2802 89.148 57.1522 88.544 57.1522 87.832C57.1522 87.128 57.2682 86.524 57.5002 86.02C57.7402 85.516 58.0722 85.128 58.4962 84.856C58.9282 84.584 59.4282 84.448 59.9962 84.448ZM59.9842 85.312C59.4802 85.312 59.0802 85.476 58.7842 85.804C58.4962 86.124 58.3242 86.572 58.2682 87.148H61.5442C61.5362 86.604 61.4082 86.164 61.1602 85.828C60.9122 85.484 60.5202 85.312 59.9842 85.312ZM66.5656 91.12C65.7656 91.12 65.1256 90.844 64.6456 90.292C64.1656 89.732 63.9256 88.9 63.9256 87.796C63.9256 86.692 64.1656 85.86 64.6456 85.3C65.1336 84.732 65.7776 84.448 66.5776 84.448C67.0736 84.448 67.4776 84.54 67.7896 84.724C68.1096 84.908 68.3696 85.132 68.5696 85.396H68.6416C68.6336 85.292 68.6176 85.14 68.5936 84.94C68.5776 84.732 68.5696 84.568 68.5696 84.448V81.88H69.6256V91H68.7736L68.6176 90.136H68.5696C68.3776 90.408 68.1216 90.64 67.8016 90.832C67.4816 91.024 67.0696 91.12 66.5656 91.12ZM66.7336 90.244C67.4136 90.244 67.8896 90.06 68.1616 89.692C68.4416 89.316 68.5816 88.752 68.5816 88V87.808C68.5816 87.008 68.4496 86.396 68.1856 85.972C67.9216 85.54 67.4336 85.324 66.7216 85.324C66.1536 85.324 65.7256 85.552 65.4376 86.008C65.1576 86.456 65.0176 87.06 65.0176 87.82C65.0176 88.588 65.1576 89.184 65.4376 89.608C65.7256 90.032 66.1576 90.244 66.7336 90.244ZM78.8564 89.224C78.8564 89.848 78.6244 90.32 78.1604 90.64C77.6964 90.96 77.0724 91.12 76.2884 91.12C75.8404 91.12 75.4524 91.084 75.1244 91.012C74.8044 90.94 74.5204 90.84 74.2724 90.712V89.752C74.5284 89.88 74.8364 90 75.1964 90.112C75.5644 90.216 75.9364 90.268 76.3124 90.268C76.8484 90.268 77.2364 90.184 77.4764 90.016C77.7164 89.84 77.8364 89.608 77.8364 89.32C77.8364 89.16 77.7924 89.016 77.7044 88.888C77.6164 88.76 77.4564 88.632 77.2244 88.504C77.0004 88.376 76.6764 88.232 76.2524 88.072C75.8364 87.912 75.4804 87.752 75.1844 87.592C74.8884 87.432 74.6604 87.24 74.5004 87.016C74.3404 86.792 74.2604 86.504 74.2604 86.152C74.2604 85.608 74.4804 85.188 74.9204 84.892C75.3684 84.596 75.9524 84.448 76.6724 84.448C77.0644 84.448 77.4284 84.488 77.7644 84.568C78.1084 84.64 78.4284 84.744 78.7244 84.88L78.3644 85.72C78.0924 85.608 77.8084 85.512 77.5124 85.432C77.2164 85.352 76.9124 85.312 76.6004 85.312C76.1684 85.312 75.8364 85.384 75.6044 85.528C75.3804 85.664 75.2684 85.852 75.2684 86.092C75.2684 86.268 75.3204 86.42 75.4244 86.548C75.5284 86.668 75.7004 86.788 75.9404 86.908C76.1884 87.02 76.5164 87.156 76.9244 87.316C77.3324 87.468 77.6804 87.624 77.9684 87.784C78.2564 87.944 78.4764 88.14 78.6284 88.372C78.7804 88.596 78.8564 88.88 78.8564 89.224ZM82.8946 84.448C83.4466 84.448 83.9186 84.568 84.3106 84.808C84.7106 85.048 85.0146 85.388 85.2226 85.828C85.4386 86.26 85.5466 86.768 85.5466 87.352V87.988H81.1426C81.1586 88.716 81.3426 89.272 81.6946 89.656C82.0546 90.032 82.5546 90.22 83.1946 90.22C83.6026 90.22 83.9626 90.184 84.2746 90.112C84.5946 90.032 84.9226 89.92 85.2586 89.776V90.7C84.9306 90.844 84.6066 90.948 84.2866 91.012C83.9666 91.084 83.5866 91.12 83.1466 91.12C82.5386 91.12 81.9986 90.996 81.5266 90.748C81.0626 90.5 80.6986 90.132 80.4346 89.644C80.1786 89.148 80.0506 88.544 80.0506 87.832C80.0506 87.128 80.1666 86.524 80.3986 86.02C80.6386 85.516 80.9706 85.128 81.3946 84.856C81.8266 84.584 82.3266 84.448 82.8946 84.448ZM82.8826 85.312C82.3786 85.312 81.9786 85.476 81.6826 85.804C81.3946 86.124 81.2226 86.572 81.1666 87.148H84.4426C84.4346 86.604 84.3066 86.164 84.0586 85.828C83.8106 85.484 83.4186 85.312 82.8826 85.312ZM91.1017 87.364C90.9977 87.036 90.9057 86.716 90.8257 86.404C90.7537 86.084 90.6977 85.836 90.6577 85.66H90.6097C90.5777 85.836 90.5257 86.084 90.4537 86.404C90.3817 86.716 90.2897 87.04 90.1777 87.376L89.0257 90.988H87.8257L86.0617 84.556H87.1537L88.0417 87.988C88.1297 88.332 88.2137 88.68 88.2937 89.032C88.3737 89.384 88.4297 89.676 88.4617 89.908H88.5097C88.5417 89.772 88.5777 89.604 88.6177 89.404C88.6657 89.204 88.7177 88.996 88.7737 88.78C88.8297 88.556 88.8857 88.356 88.9417 88.18L90.0817 84.556H91.2337L92.3377 88.18C92.4257 88.452 92.5097 88.748 92.5897 89.068C92.6777 89.388 92.7377 89.664 92.7697 89.896H92.8177C92.8417 89.696 92.8937 89.42 92.9737 89.068C93.0617 88.716 93.1537 88.356 93.2497 87.988L94.1497 84.556H95.2297L93.4417 90.988H92.2057L91.1017 87.364ZM98.8193 84.46C99.6033 84.46 100.183 84.632 100.559 84.976C100.935 85.32 101.123 85.868 101.123 86.62V91H100.355L100.151 90.088H100.103C99.8233 90.44 99.5273 90.7 99.2153 90.868C98.9113 91.036 98.4873 91.12 97.9433 91.12C97.3593 91.12 96.8753 90.968 96.4913 90.664C96.1073 90.352 95.9153 89.868 95.9153 89.212C95.9153 88.572 96.1673 88.08 96.6713 87.736C97.1753 87.384 97.9513 87.192 98.9993 87.16L100.091 87.124V86.74C100.091 86.204 99.9753 85.832 99.7433 85.624C99.5113 85.416 99.1833 85.312 98.7593 85.312C98.4233 85.312 98.1033 85.364 97.7993 85.468C97.4953 85.564 97.2113 85.676 96.9473 85.804L96.6233 85.012C96.9033 84.86 97.2353 84.732 97.6193 84.628C98.0033 84.516 98.4033 84.46 98.8193 84.46ZM99.1313 87.892C98.3313 87.924 97.7753 88.052 97.4633 88.276C97.1593 88.5 97.0073 88.816 97.0073 89.224C97.0073 89.584 97.1153 89.848 97.3313 90.016C97.5553 90.184 97.8393 90.268 98.1833 90.268C98.7273 90.268 99.1793 90.12 99.5393 89.824C99.8993 89.52 100.079 89.056 100.079 88.432V87.856L99.1313 87.892ZM105.39 84.448C105.814 84.448 106.194 84.528 106.53 84.688C106.874 84.848 107.166 85.092 107.406 85.42H107.466L107.61 84.568H108.45V91.108C108.45 92.028 108.214 92.72 107.742 93.184C107.278 93.648 106.554 93.88 105.57 93.88C104.626 93.88 103.854 93.744 103.254 93.472V92.5C103.886 92.836 104.678 93.004 105.63 93.004C106.182 93.004 106.614 92.84 106.926 92.512C107.246 92.192 107.406 91.752 107.406 91.192V90.94C107.406 90.844 107.41 90.708 107.418 90.532C107.426 90.348 107.434 90.22 107.442 90.148H107.394C106.962 90.796 106.298 91.12 105.402 91.12C104.57 91.12 103.918 90.828 103.446 90.244C102.982 89.66 102.75 88.844 102.75 87.796C102.75 86.772 102.982 85.96 103.446 85.36C103.918 84.752 104.566 84.448 105.39 84.448ZM105.534 85.336C104.998 85.336 104.582 85.552 104.286 85.984C103.99 86.408 103.842 87.016 103.842 87.808C103.842 88.6 103.986 89.208 104.274 89.632C104.57 90.048 104.998 90.256 105.558 90.256C106.206 90.256 106.678 90.084 106.974 89.74C107.27 89.388 107.418 88.824 107.418 88.048V87.796C107.418 86.916 107.266 86.288 106.962 85.912C106.658 85.528 106.182 85.336 105.534 85.336ZM112.977 84.448C113.529 84.448 114.001 84.568 114.393 84.808C114.793 85.048 115.097 85.388 115.305 85.828C115.521 86.26 115.629 86.768 115.629 87.352V87.988H111.225C111.241 88.716 111.425 89.272 111.777 89.656C112.137 90.032 112.637 90.22 113.277 90.22C113.685 90.22 114.045 90.184 114.357 90.112C114.677 90.032 115.005 89.92 115.341 89.776V90.7C115.013 90.844 114.689 90.948 114.369 91.012C114.049 91.084 113.669 91.12 113.229 91.12C112.621 91.12 112.081 90.996 111.609 90.748C111.145 90.5 110.781 90.132 110.517 89.644C110.261 89.148 110.133 88.544 110.133 87.832C110.133 87.128 110.249 86.524 110.481 86.02C110.721 85.516 111.053 85.128 111.477 84.856C111.909 84.584 112.409 84.448 112.977 84.448ZM112.965 85.312C112.461 85.312 112.061 85.476 111.765 85.804C111.477 86.124 111.305 86.572 111.249 87.148H114.525C114.517 86.604 114.389 86.164 114.141 85.828C113.893 85.484 113.501 85.312 112.965 85.312ZM123.326 84.448C124.118 84.448 124.754 84.724 125.234 85.276C125.722 85.828 125.966 86.66 125.966 87.772C125.966 88.868 125.722 89.7 125.234 90.268C124.754 90.836 124.114 91.12 123.314 91.12C122.818 91.12 122.406 91.028 122.078 90.844C121.758 90.652 121.506 90.432 121.322 90.184H121.25C121.266 90.32 121.282 90.492 121.298 90.7C121.314 90.908 121.322 91.088 121.322 91.24V93.88H120.266V84.568H121.13L121.274 85.444H121.322C121.514 85.164 121.766 84.928 122.078 84.736C122.39 84.544 122.806 84.448 123.326 84.448ZM123.134 85.336C122.478 85.336 122.014 85.52 121.742 85.888C121.478 86.256 121.338 86.816 121.322 87.568V87.772C121.322 88.564 121.45 89.176 121.706 89.608C121.97 90.032 122.454 90.244 123.158 90.244C123.55 90.244 123.87 90.136 124.118 89.92C124.374 89.704 124.562 89.412 124.682 89.044C124.81 88.668 124.874 88.24 124.874 87.76C124.874 87.024 124.73 86.436 124.442 85.996C124.162 85.556 123.726 85.336 123.134 85.336ZM128.189 82.156C128.349 82.156 128.489 82.212 128.609 82.324C128.737 82.428 128.801 82.596 128.801 82.828C128.801 83.052 128.737 83.22 128.609 83.332C128.489 83.444 128.349 83.5 128.189 83.5C128.013 83.5 127.865 83.444 127.745 83.332C127.625 83.22 127.565 83.052 127.565 82.828C127.565 82.596 127.625 82.428 127.745 82.324C127.865 82.212 128.013 82.156 128.189 82.156ZM128.705 84.568V91H127.649V84.568H128.705ZM133.803 84.448C134.595 84.448 135.231 84.724 135.711 85.276C136.199 85.828 136.443 86.66 136.443 87.772C136.443 88.868 136.199 89.7 135.711 90.268C135.231 90.836 134.591 91.12 133.791 91.12C133.295 91.12 132.883 91.028 132.555 90.844C132.235 90.652 131.983 90.432 131.799 90.184H131.727C131.743 90.32 131.759 90.492 131.775 90.7C131.791 90.908 131.799 91.088 131.799 91.24V93.88H130.743V84.568H131.607L131.751 85.444H131.799C131.991 85.164 132.243 84.928 132.555 84.736C132.867 84.544 133.283 84.448 133.803 84.448ZM133.611 85.336C132.955 85.336 132.491 85.52 132.219 85.888C131.955 86.256 131.815 86.816 131.799 87.568V87.772C131.799 88.564 131.927 89.176 132.183 89.608C132.447 90.032 132.931 90.244 133.635 90.244C134.027 90.244 134.347 90.136 134.595 89.92C134.851 89.704 135.039 89.412 135.159 89.044C135.287 88.668 135.351 88.24 135.351 87.76C135.351 87.024 135.207 86.436 134.919 85.996C134.639 85.556 134.203 85.336 133.611 85.336ZM140.609 84.448C141.161 84.448 141.633 84.568 142.025 84.808C142.425 85.048 142.729 85.388 142.937 85.828C143.153 86.26 143.261 86.768 143.261 87.352V87.988H138.857C138.873 88.716 139.057 89.272 139.409 89.656C139.769 90.032 140.269 90.22 140.909 90.22C141.317 90.22 141.677 90.184 141.989 90.112C142.309 90.032 142.637 89.92 142.973 89.776V90.7C142.645 90.844 142.321 90.948 142.001 91.012C141.681 91.084 141.301 91.12 140.861 91.12C140.253 91.12 139.713 90.996 139.241 90.748C138.777 90.5 138.413 90.132 138.149 89.644C137.893 89.148 137.765 88.544 137.765 87.832C137.765 87.128 137.881 86.524 138.113 86.02C138.353 85.516 138.685 85.128 139.109 84.856C139.541 84.584 140.041 84.448 140.609 84.448ZM140.597 85.312C140.093 85.312 139.693 85.476 139.397 85.804C139.109 86.124 138.937 86.572 138.881 87.148H142.157C142.149 86.604 142.021 86.164 141.773 85.828C141.525 85.484 141.133 85.312 140.597 85.312ZM150.863 85.384H149.243V91H148.187V85.384H147.059V84.892L148.187 84.532V84.16C148.187 83.328 148.371 82.732 148.739 82.372C149.107 82.004 149.619 81.82 150.275 81.82C150.531 81.82 150.763 81.844 150.971 81.892C151.187 81.932 151.371 81.98 151.523 82.036L151.247 82.864C151.119 82.824 150.971 82.784 150.803 82.744C150.635 82.704 150.463 82.684 150.287 82.684C149.935 82.684 149.671 82.804 149.495 83.044C149.327 83.276 149.243 83.644 149.243 84.148V84.568H150.863V85.384ZM157.616 87.772C157.616 88.836 157.344 89.66 156.8 90.244C156.264 90.828 155.536 91.12 154.616 91.12C154.048 91.12 153.54 90.992 153.092 90.736C152.652 90.472 152.304 90.092 152.048 89.596C151.792 89.092 151.664 88.484 151.664 87.772C151.664 86.708 151.932 85.888 152.468 85.312C153.004 84.736 153.732 84.448 154.652 84.448C155.236 84.448 155.748 84.58 156.188 84.844C156.636 85.1 156.984 85.476 157.232 85.972C157.488 86.46 157.616 87.06 157.616 87.772ZM152.756 87.772C152.756 88.532 152.904 89.136 153.2 89.584C153.504 90.024 153.984 90.244 154.64 90.244C155.288 90.244 155.764 90.024 156.068 89.584C156.372 89.136 156.524 88.532 156.524 87.772C156.524 87.012 156.372 86.416 156.068 85.984C155.764 85.552 155.284 85.336 154.628 85.336C153.972 85.336 153.496 85.552 153.2 85.984C152.904 86.416 152.756 87.012 152.756 87.772ZM164.666 84.568V91H163.802L163.646 90.148H163.598C163.39 90.484 163.102 90.732 162.734 90.892C162.366 91.044 161.974 91.12 161.558 91.12C160.782 91.12 160.198 90.936 159.806 90.568C159.414 90.192 159.218 89.596 159.218 88.78V84.568H160.286V88.708C160.286 89.732 160.762 90.244 161.714 90.244C162.426 90.244 162.918 90.044 163.19 89.644C163.47 89.244 163.61 88.668 163.61 87.916V84.568H164.666ZM169.804 84.448C170.572 84.448 171.152 84.636 171.544 85.012C171.936 85.38 172.132 85.98 172.132 86.812V91H171.088V86.884C171.088 85.852 170.608 85.336 169.648 85.336C168.936 85.336 168.444 85.536 168.172 85.936C167.9 86.336 167.764 86.912 167.764 87.664V91H166.708V84.568H167.56L167.716 85.444H167.776C167.984 85.108 168.272 84.86 168.64 84.7C169.008 84.532 169.396 84.448 169.804 84.448ZM176.405 91.12C175.605 91.12 174.965 90.844 174.485 90.292C174.005 89.732 173.765 88.9 173.765 87.796C173.765 86.692 174.005 85.86 174.485 85.3C174.973 84.732 175.617 84.448 176.417 84.448C176.913 84.448 177.317 84.54 177.629 84.724C177.949 84.908 178.209 85.132 178.409 85.396H178.481C178.473 85.292 178.457 85.14 178.433 84.94C178.417 84.732 178.409 84.568 178.409 84.448V81.88H179.465V91H178.613L178.457 90.136H178.409C178.217 90.408 177.961 90.64 177.641 90.832C177.321 91.024 176.909 91.12 176.405 91.12ZM176.573 90.244C177.253 90.244 177.729 90.06 178.001 89.692C178.281 89.316 178.421 88.752 178.421 88V87.808C178.421 87.008 178.289 86.396 178.025 85.972C177.761 85.54 177.273 85.324 176.561 85.324C175.993 85.324 175.565 85.552 175.277 86.008C174.997 86.456 174.857 87.06 174.857 87.82C174.857 88.588 174.997 89.184 175.277 89.608C175.565 90.032 175.997 90.244 176.573 90.244ZM185.048 82.156C185.208 82.156 185.348 82.212 185.468 82.324C185.596 82.428 185.66 82.596 185.66 82.828C185.66 83.052 185.596 83.22 185.468 83.332C185.348 83.444 185.208 83.5 185.048 83.5C184.872 83.5 184.724 83.444 184.604 83.332C184.484 83.22 184.424 83.052 184.424 82.828C184.424 82.596 184.484 82.428 184.604 82.324C184.724 82.212 184.872 82.156 185.048 82.156ZM185.564 84.568V91H184.508V84.568H185.564ZM190.698 84.448C191.466 84.448 192.046 84.636 192.438 85.012C192.83 85.38 193.026 85.98 193.026 86.812V91H191.982V86.884C191.982 85.852 191.502 85.336 190.542 85.336C189.83 85.336 189.338 85.536 189.066 85.936C188.794 86.336 188.658 86.912 188.658 87.664V91H187.602V84.568H188.454L188.61 85.444H188.67C188.878 85.108 189.166 84.86 189.534 84.7C189.902 84.532 190.29 84.448 190.698 84.448ZM200.6 91.12C200.032 91.12 199.524 91.004 199.076 90.772C198.636 90.54 198.288 90.18 198.032 89.692C197.784 89.204 197.66 88.58 197.66 87.82C197.66 87.028 197.792 86.384 198.056 85.888C198.32 85.392 198.676 85.028 199.124 84.796C199.58 84.564 200.096 84.448 200.672 84.448C201 84.448 201.316 84.484 201.62 84.556C201.924 84.62 202.172 84.7 202.364 84.796L202.04 85.672C201.848 85.6 201.624 85.532 201.368 85.468C201.112 85.404 200.872 85.372 200.648 85.372C199.384 85.372 198.752 86.184 198.752 87.808C198.752 88.584 198.904 89.18 199.208 89.596C199.52 90.004 199.98 90.208 200.588 90.208C200.94 90.208 201.248 90.172 201.512 90.1C201.784 90.028 202.032 89.94 202.256 89.836V90.772C202.04 90.884 201.8 90.968 201.536 91.024C201.28 91.088 200.968 91.12 200.6 91.12ZM206.27 84.448C206.822 84.448 207.294 84.568 207.686 84.808C208.086 85.048 208.39 85.388 208.598 85.828C208.814 86.26 208.922 86.768 208.922 87.352V87.988H204.518C204.534 88.716 204.718 89.272 205.07 89.656C205.43 90.032 205.93 90.22 206.57 90.22C206.978 90.22 207.338 90.184 207.65 90.112C207.97 90.032 208.298 89.92 208.634 89.776V90.7C208.306 90.844 207.982 90.948 207.662 91.012C207.342 91.084 206.962 91.12 206.522 91.12C205.914 91.12 205.374 90.996 204.902 90.748C204.438 90.5 204.074 90.132 203.81 89.644C203.554 89.148 203.426 88.544 203.426 87.832C203.426 87.128 203.542 86.524 203.774 86.02C204.014 85.516 204.346 85.128 204.77 84.856C205.202 84.584 205.702 84.448 206.27 84.448ZM206.258 85.312C205.754 85.312 205.354 85.476 205.058 85.804C204.77 86.124 204.598 86.572 204.542 87.148H207.818C207.81 86.604 207.682 86.164 207.434 85.828C207.186 85.484 206.794 85.312 206.258 85.312ZM213.655 84.448C214.423 84.448 215.003 84.636 215.395 85.012C215.787 85.38 215.983 85.98 215.983 86.812V91H214.939V86.884C214.939 85.852 214.459 85.336 213.499 85.336C212.787 85.336 212.295 85.536 212.023 85.936C211.751 86.336 211.615 86.912 211.615 87.664V91H210.559V84.568H211.411L211.567 85.444H211.627C211.835 85.108 212.123 84.86 212.491 84.7C212.859 84.532 213.247 84.448 213.655 84.448ZM220.125 90.256C220.285 90.256 220.449 90.244 220.617 90.22C220.785 90.188 220.921 90.156 221.025 90.124V90.928C220.913 90.984 220.753 91.028 220.545 91.06C220.337 91.1 220.137 91.12 219.945 91.12C219.609 91.12 219.297 91.064 219.009 90.952C218.729 90.832 218.501 90.628 218.325 90.34C218.149 90.052 218.061 89.648 218.061 89.128V85.384H217.149V84.88L218.073 84.46L218.493 83.092H219.117V84.568H220.977V85.384H219.117V89.104C219.117 89.496 219.209 89.788 219.393 89.98C219.585 90.164 219.829 90.256 220.125 90.256ZM225.313 84.448C225.433 84.448 225.561 84.456 225.697 84.472C225.841 84.48 225.965 84.496 226.069 84.52L225.937 85.492C225.833 85.468 225.717 85.448 225.589 85.432C225.469 85.416 225.353 85.408 225.241 85.408C224.913 85.408 224.605 85.5 224.317 85.684C224.029 85.86 223.797 86.112 223.621 86.44C223.453 86.76 223.369 87.136 223.369 87.568V91H222.313V84.568H223.177L223.297 85.744H223.345C223.553 85.392 223.821 85.088 224.149 84.832C224.477 84.576 224.865 84.448 225.313 84.448ZM229.472 84.46C230.256 84.46 230.836 84.632 231.212 84.976C231.588 85.32 231.776 85.868 231.776 86.62V91H231.008L230.804 90.088H230.756C230.476 90.44 230.18 90.7 229.868 90.868C229.564 91.036 229.14 91.12 228.596 91.12C228.012 91.12 227.528 90.968 227.144 90.664C226.76 90.352 226.568 89.868 226.568 89.212C226.568 88.572 226.82 88.08 227.324 87.736C227.828 87.384 228.604 87.192 229.652 87.16L230.744 87.124V86.74C230.744 86.204 230.628 85.832 230.396 85.624C230.164 85.416 229.836 85.312 229.412 85.312C229.076 85.312 228.756 85.364 228.452 85.468C228.148 85.564 227.864 85.676 227.6 85.804L227.276 85.012C227.556 84.86 227.888 84.732 228.272 84.628C228.656 84.516 229.056 84.46 229.472 84.46ZM229.784 87.892C228.984 87.924 228.428 88.052 228.116 88.276C227.812 88.5 227.66 88.816 227.66 89.224C227.66 89.584 227.768 89.848 227.984 90.016C228.208 90.184 228.492 90.268 228.836 90.268C229.38 90.268 229.832 90.12 230.192 89.824C230.552 89.52 230.732 89.056 230.732 88.432V87.856L229.784 87.892ZM234.818 91H233.762V81.88H234.818V91ZM240 91V82.432H241.08V90.04H244.824V91H240ZM248.585 84.46C249.369 84.46 249.949 84.632 250.325 84.976C250.701 85.32 250.889 85.868 250.889 86.62V91H250.121L249.917 90.088H249.869C249.589 90.44 249.293 90.7 248.981 90.868C248.677 91.036 248.253 91.12 247.709 91.12C247.125 91.12 246.641 90.968 246.257 90.664C245.873 90.352 245.681 89.868 245.681 89.212C245.681 88.572 245.933 88.08 246.437 87.736C246.941 87.384 247.717 87.192 248.765 87.16L249.857 87.124V86.74C249.857 86.204 249.741 85.832 249.509 85.624C249.277 85.416 248.949 85.312 248.525 85.312C248.189 85.312 247.869 85.364 247.565 85.468C247.261 85.564 246.977 85.676 246.713 85.804L246.389 85.012C246.669 84.86 247.001 84.732 247.385 84.628C247.769 84.516 248.169 84.46 248.585 84.46ZM248.897 87.892C248.097 87.924 247.541 88.052 247.229 88.276C246.925 88.5 246.773 88.816 246.773 89.224C246.773 89.584 246.881 89.848 247.097 90.016C247.321 90.184 247.605 90.268 247.949 90.268C248.493 90.268 248.945 90.12 249.305 89.824C249.665 89.52 249.845 89.056 249.845 88.432V87.856L248.897 87.892ZM254.807 93.28C254.615 93.28 254.447 93.264 254.303 93.232C254.159 93.208 254.031 93.172 253.919 93.124V92.212C254.047 92.244 254.183 92.272 254.327 92.296C254.471 92.32 254.623 92.332 254.783 92.332C254.983 92.332 255.171 92.292 255.347 92.212C255.531 92.132 255.679 91.992 255.791 91.792C255.903 91.592 255.959 91.312 255.959 90.952V82.432H257.039V90.868C257.039 91.692 256.835 92.3 256.427 92.692C256.019 93.084 255.479 93.28 254.807 93.28ZM264.749 87.772C264.749 88.836 264.477 89.66 263.933 90.244C263.397 90.828 262.669 91.12 261.749 91.12C261.181 91.12 260.673 90.992 260.225 90.736C259.785 90.472 259.437 90.092 259.181 89.596C258.925 89.092 258.797 88.484 258.797 87.772C258.797 86.708 259.065 85.888 259.601 85.312C260.137 84.736 260.865 84.448 261.785 84.448C262.369 84.448 262.881 84.58 263.321 84.844C263.769 85.1 264.117 85.476 264.365 85.972C264.621 86.46 264.749 87.06 264.749 87.772ZM259.889 87.772C259.889 88.532 260.037 89.136 260.333 89.584C260.637 90.024 261.117 90.244 261.773 90.244C262.421 90.244 262.897 90.024 263.201 89.584C263.505 89.136 263.657 88.532 263.657 87.772C263.657 87.012 263.505 86.416 263.201 85.984C262.897 85.552 262.417 85.336 261.761 85.336C261.105 85.336 260.629 85.552 260.333 85.984C260.037 86.416 259.889 87.012 259.889 87.772ZM267.478 91H266.422V81.88H267.478V91ZM270.572 91H269.516V81.88H270.572V91ZM275.046 84.46C275.83 84.46 276.41 84.632 276.786 84.976C277.162 85.32 277.35 85.868 277.35 86.62V91H276.582L276.378 90.088H276.33C276.05 90.44 275.754 90.7 275.442 90.868C275.138 91.036 274.714 91.12 274.17 91.12C273.586 91.12 273.102 90.968 272.718 90.664C272.334 90.352 272.142 89.868 272.142 89.212C272.142 88.572 272.394 88.08 272.898 87.736C273.402 87.384 274.178 87.192 275.226 87.16L276.318 87.124V86.74C276.318 86.204 276.202 85.832 275.97 85.624C275.738 85.416 275.41 85.312 274.986 85.312C274.65 85.312 274.33 85.364 274.026 85.468C273.722 85.564 273.438 85.676 273.174 85.804L272.85 85.012C273.13 84.86 273.462 84.732 273.846 84.628C274.23 84.516 274.63 84.46 275.046 84.46ZM275.358 87.892C274.558 87.924 274.002 88.052 273.69 88.276C273.386 88.5 273.234 88.816 273.234 89.224C273.234 89.584 273.342 89.848 273.558 90.016C273.782 90.184 274.066 90.268 274.41 90.268C274.954 90.268 275.406 90.12 275.766 89.824C276.126 89.52 276.306 89.056 276.306 88.432V87.856L275.358 87.892ZM279.43 89.834C279.555 89.834 279.666 89.8633 279.764 89.9219C279.861 89.9805 279.938 90.0586 279.992 90.1562C280.051 90.25 280.08 90.3594 280.08 90.4844C280.08 90.6094 280.051 90.7207 279.992 90.8184C279.934 90.9121 279.855 90.9883 279.758 91.0469C279.664 91.1055 279.555 91.1348 279.43 91.1348C279.277 91.1348 279.131 91.0781 278.99 90.9648C278.854 90.8477 278.785 90.6875 278.785 90.4844C278.785 90.3047 278.848 90.1523 278.973 90.0273C279.098 89.8984 279.25 89.834 279.43 89.834ZM289.579 88.708C289.579 89.468 289.303 90.06 288.751 90.484C288.199 90.908 287.455 91.12 286.519 91.12C286.039 91.12 285.595 91.084 285.187 91.012C284.779 90.94 284.439 90.84 284.167 90.712V89.68C284.455 89.808 284.811 89.924 285.235 90.028C285.667 90.132 286.111 90.184 286.567 90.184C287.207 90.184 287.687 90.06 288.007 89.812C288.335 89.564 288.499 89.228 288.499 88.804C288.499 88.524 288.439 88.288 288.319 88.096C288.199 87.904 287.991 87.728 287.695 87.568C287.407 87.4 287.003 87.224 286.483 87.04C285.755 86.776 285.203 86.452 284.827 86.068C284.459 85.684 284.275 85.16 284.275 84.496C284.275 84.04 284.391 83.652 284.623 83.332C284.855 83.004 285.175 82.752 285.583 82.576C285.999 82.4 286.475 82.312 287.011 82.312C287.483 82.312 287.915 82.356 288.307 82.444C288.699 82.532 289.055 82.648 289.375 82.792L289.039 83.716C288.743 83.588 288.419 83.48 288.067 83.392C287.723 83.304 287.363 83.26 286.987 83.26C286.451 83.26 286.047 83.376 285.775 83.608C285.503 83.832 285.367 84.132 285.367 84.508C285.367 84.796 285.427 85.036 285.547 85.228C285.667 85.42 285.863 85.592 286.135 85.744C286.407 85.896 286.775 86.06 287.239 86.236C287.743 86.42 288.167 86.62 288.511 86.836C288.863 87.044 289.127 87.296 289.303 87.592C289.487 87.888 289.579 88.26 289.579 88.708ZM293.645 84.448C294.197 84.448 294.669 84.568 295.061 84.808C295.461 85.048 295.765 85.388 295.973 85.828C296.189 86.26 296.297 86.768 296.297 87.352V87.988H291.893C291.909 88.716 292.093 89.272 292.445 89.656C292.805 90.032 293.305 90.22 293.945 90.22C294.353 90.22 294.713 90.184 295.025 90.112C295.345 90.032 295.673 89.92 296.009 89.776V90.7C295.681 90.844 295.357 90.948 295.037 91.012C294.717 91.084 294.337 91.12 293.897 91.12C293.289 91.12 292.749 90.996 292.277 90.748C291.813 90.5 291.449 90.132 291.185 89.644C290.929 89.148 290.801 88.544 290.801 87.832C290.801 87.128 290.917 86.524 291.149 86.02C291.389 85.516 291.721 85.128 292.145 84.856C292.577 84.584 293.077 84.448 293.645 84.448ZM293.633 85.312C293.129 85.312 292.729 85.476 292.433 85.804C292.145 86.124 291.973 86.572 291.917 87.148H295.193C295.185 86.604 295.057 86.164 294.809 85.828C294.561 85.484 294.169 85.312 293.633 85.312ZM301.852 87.364C301.748 87.036 301.656 86.716 301.576 86.404C301.504 86.084 301.448 85.836 301.408 85.66H301.36C301.328 85.836 301.276 86.084 301.204 86.404C301.132 86.716 301.04 87.04 300.928 87.376L299.776 90.988H298.576L296.812 84.556H297.904L298.792 87.988C298.88 88.332 298.964 88.68 299.044 89.032C299.124 89.384 299.18 89.676 299.212 89.908H299.26C299.292 89.772 299.328 89.604 299.368 89.404C299.416 89.204 299.468 88.996 299.524 88.78C299.58 88.556 299.636 88.356 299.692 88.18L300.832 84.556H301.984L303.088 88.18C303.176 88.452 303.26 88.748 303.34 89.068C303.428 89.388 303.488 89.664 303.52 89.896H303.568C303.592 89.696 303.644 89.42 303.724 89.068C303.812 88.716 303.904 88.356 304 87.988L304.9 84.556H305.98L304.192 90.988H302.956L301.852 87.364ZM309.569 84.46C310.353 84.46 310.933 84.632 311.309 84.976C311.685 85.32 311.873 85.868 311.873 86.62V91H311.105L310.901 90.088H310.853C310.573 90.44 310.277 90.7 309.965 90.868C309.661 91.036 309.237 91.12 308.693 91.12C308.109 91.12 307.625 90.968 307.241 90.664C306.857 90.352 306.665 89.868 306.665 89.212C306.665 88.572 306.917 88.08 307.421 87.736C307.925 87.384 308.701 87.192 309.749 87.16L310.841 87.124V86.74C310.841 86.204 310.725 85.832 310.493 85.624C310.261 85.416 309.933 85.312 309.509 85.312C309.173 85.312 308.853 85.364 308.549 85.468C308.245 85.564 307.961 85.676 307.697 85.804L307.373 85.012C307.653 84.86 307.985 84.732 308.369 84.628C308.753 84.516 309.153 84.46 309.569 84.46ZM309.881 87.892C309.081 87.924 308.525 88.052 308.213 88.276C307.909 88.5 307.757 88.816 307.757 89.224C307.757 89.584 307.865 89.848 308.081 90.016C308.305 90.184 308.589 90.268 308.933 90.268C309.477 90.268 309.929 90.12 310.289 89.824C310.649 89.52 310.829 89.056 310.829 88.432V87.856L309.881 87.892ZM316.14 84.448C316.564 84.448 316.944 84.528 317.28 84.688C317.624 84.848 317.916 85.092 318.156 85.42H318.216L318.36 84.568H319.2V91.108C319.2 92.028 318.964 92.72 318.492 93.184C318.028 93.648 317.304 93.88 316.32 93.88C315.376 93.88 314.604 93.744 314.004 93.472V92.5C314.636 92.836 315.428 93.004 316.38 93.004C316.932 93.004 317.364 92.84 317.676 92.512C317.996 92.192 318.156 91.752 318.156 91.192V90.94C318.156 90.844 318.16 90.708 318.168 90.532C318.176 90.348 318.184 90.22 318.192 90.148H318.144C317.712 90.796 317.048 91.12 316.152 91.12C315.32 91.12 314.668 90.828 314.196 90.244C313.732 89.66 313.5 88.844 313.5 87.796C313.5 86.772 313.732 85.96 314.196 85.36C314.668 84.752 315.316 84.448 316.14 84.448ZM316.284 85.336C315.748 85.336 315.332 85.552 315.036 85.984C314.74 86.408 314.592 87.016 314.592 87.808C314.592 88.6 314.736 89.208 315.024 89.632C315.32 90.048 315.748 90.256 316.308 90.256C316.956 90.256 317.428 90.084 317.724 89.74C318.02 89.388 318.168 88.824 318.168 88.048V87.796C318.168 86.916 318.016 86.288 317.712 85.912C317.408 85.528 316.932 85.336 316.284 85.336ZM323.727 84.448C324.279 84.448 324.751 84.568 325.143 84.808C325.543 85.048 325.847 85.388 326.055 85.828C326.271 86.26 326.379 86.768 326.379 87.352V87.988H321.975C321.991 88.716 322.175 89.272 322.527 89.656C322.887 90.032 323.387 90.22 324.027 90.22C324.435 90.22 324.795 90.184 325.107 90.112C325.427 90.032 325.755 89.92 326.091 89.776V90.7C325.763 90.844 325.439 90.948 325.119 91.012C324.799 91.084 324.419 91.12 323.979 91.12C323.371 91.12 322.831 90.996 322.359 90.748C321.895 90.5 321.531 90.132 321.267 89.644C321.011 89.148 320.883 88.544 320.883 87.832C320.883 87.128 320.999 86.524 321.231 86.02C321.471 85.516 321.803 85.128 322.227 84.856C322.659 84.584 323.159 84.448 323.727 84.448ZM323.715 85.312C323.211 85.312 322.811 85.476 322.515 85.804C322.227 86.124 322.055 86.572 321.999 87.148H325.275C325.267 86.604 325.139 86.164 324.891 85.828C324.643 85.484 324.251 85.312 323.715 85.312ZM331.556 82.156C331.716 82.156 331.856 82.212 331.976 82.324C332.104 82.428 332.168 82.596 332.168 82.828C332.168 83.052 332.104 83.22 331.976 83.332C331.856 83.444 331.716 83.5 331.556 83.5C331.38 83.5 331.232 83.444 331.112 83.332C330.992 83.22 330.932 83.052 330.932 82.828C330.932 82.596 330.992 82.428 331.112 82.324C331.232 82.212 331.38 82.156 331.556 82.156ZM332.072 84.568V91H331.016V84.568H332.072ZM338.298 89.224C338.298 89.848 338.066 90.32 337.602 90.64C337.138 90.96 336.514 91.12 335.73 91.12C335.282 91.12 334.894 91.084 334.566 91.012C334.246 90.94 333.962 90.84 333.714 90.712V89.752C333.97 89.88 334.278 90 334.638 90.112C335.006 90.216 335.378 90.268 335.754 90.268C336.29 90.268 336.678 90.184 336.918 90.016C337.158 89.84 337.278 89.608 337.278 89.32C337.278 89.16 337.234 89.016 337.146 88.888C337.058 88.76 336.898 88.632 336.666 88.504C336.442 88.376 336.118 88.232 335.694 88.072C335.278 87.912 334.922 87.752 334.626 87.592C334.33 87.432 334.102 87.24 333.942 87.016C333.782 86.792 333.702 86.504 333.702 86.152C333.702 85.608 333.922 85.188 334.362 84.892C334.81 84.596 335.394 84.448 336.114 84.448C336.506 84.448 336.87 84.488 337.206 84.568C337.55 84.64 337.87 84.744 338.166 84.88L337.806 85.72C337.534 85.608 337.25 85.512 336.954 85.432C336.658 85.352 336.354 85.312 336.042 85.312C335.61 85.312 335.278 85.384 335.046 85.528C334.822 85.664 334.71 85.852 334.71 86.092C334.71 86.268 334.762 86.42 334.866 86.548C334.97 86.668 335.142 86.788 335.382 86.908C335.63 87.02 335.958 87.156 336.366 87.316C336.774 87.468 337.122 87.624 337.41 87.784C337.698 87.944 337.918 88.14 338.07 88.372C338.222 88.596 338.298 88.88 338.298 89.224ZM343.908 91H342.852V81.88H343.908V91ZM348.43 84.448C348.982 84.448 349.454 84.568 349.846 84.808C350.246 85.048 350.55 85.388 350.758 85.828C350.974 86.26 351.082 86.768 351.082 87.352V87.988H346.678C346.694 88.716 346.878 89.272 347.23 89.656C347.59 90.032 348.09 90.22 348.73 90.22C349.138 90.22 349.498 90.184 349.81 90.112C350.13 90.032 350.458 89.92 350.794 89.776V90.7C350.466 90.844 350.142 90.948 349.822 91.012C349.502 91.084 349.122 91.12 348.682 91.12C348.074 91.12 347.534 90.996 347.062 90.748C346.598 90.5 346.234 90.132 345.97 89.644C345.714 89.148 345.586 88.544 345.586 87.832C345.586 87.128 345.702 86.524 345.934 86.02C346.174 85.516 346.506 85.128 346.93 84.856C347.362 84.584 347.862 84.448 348.43 84.448ZM348.418 85.312C347.914 85.312 347.514 85.476 347.218 85.804C346.93 86.124 346.758 86.572 346.702 87.148H349.978C349.97 86.604 349.842 86.164 349.594 85.828C349.346 85.484 348.954 85.312 348.418 85.312ZM355.155 84.46C355.939 84.46 356.519 84.632 356.895 84.976C357.271 85.32 357.459 85.868 357.459 86.62V91H356.691L356.487 90.088H356.439C356.159 90.44 355.863 90.7 355.551 90.868C355.247 91.036 354.823 91.12 354.279 91.12C353.695 91.12 353.211 90.968 352.827 90.664C352.443 90.352 352.251 89.868 352.251 89.212C352.251 88.572 352.503 88.08 353.007 87.736C353.511 87.384 354.287 87.192 355.335 87.16L356.427 87.124V86.74C356.427 86.204 356.311 85.832 356.079 85.624C355.847 85.416 355.519 85.312 355.095 85.312C354.759 85.312 354.439 85.364 354.135 85.468C353.831 85.564 353.547 85.676 353.283 85.804L352.959 85.012C353.239 84.86 353.571 84.732 353.955 84.628C354.339 84.516 354.739 84.46 355.155 84.46ZM355.467 87.892C354.667 87.924 354.111 88.052 353.799 88.276C353.495 88.5 353.343 88.816 353.343 89.224C353.343 89.584 353.451 89.848 353.667 90.016C353.891 90.184 354.175 90.268 354.519 90.268C355.063 90.268 355.515 90.12 355.875 89.824C356.235 89.52 356.415 89.056 356.415 88.432V87.856L355.467 87.892ZM360.49 86.644C360.49 86.772 360.482 86.94 360.466 87.148C360.458 87.356 360.45 87.536 360.442 87.688H360.49C360.538 87.624 360.61 87.532 360.706 87.412C360.802 87.292 360.898 87.172 360.994 87.052C361.098 86.924 361.186 86.82 361.258 86.74L363.31 84.568H364.546L361.942 87.316L364.726 91H363.454L361.222 88L360.49 88.636V91H359.446V81.88H360.49V86.644ZM366.396 82.156C366.556 82.156 366.696 82.212 366.816 82.324C366.944 82.428 367.008 82.596 367.008 82.828C367.008 83.052 366.944 83.22 366.816 83.332C366.696 83.444 366.556 83.5 366.396 83.5C366.22 83.5 366.072 83.444 365.952 83.332C365.832 83.22 365.772 83.052 365.772 82.828C365.772 82.596 365.832 82.428 365.952 82.324C366.072 82.212 366.22 82.156 366.396 82.156ZM366.912 84.568V91H365.856V84.568H366.912ZM372.046 84.448C372.814 84.448 373.394 84.636 373.786 85.012C374.178 85.38 374.374 85.98 374.374 86.812V91H373.33V86.884C373.33 85.852 372.85 85.336 371.89 85.336C371.178 85.336 370.686 85.536 370.414 85.936C370.142 86.336 370.006 86.912 370.006 87.664V91H368.95V84.568H369.802L369.958 85.444H370.018C370.226 85.108 370.514 84.86 370.882 84.7C371.25 84.532 371.638 84.448 372.046 84.448ZM378.648 84.448C379.072 84.448 379.452 84.528 379.788 84.688C380.132 84.848 380.424 85.092 380.664 85.42H380.724L380.868 84.568H381.708V91.108C381.708 92.028 381.472 92.72 381 93.184C380.536 93.648 379.812 93.88 378.828 93.88C377.884 93.88 377.112 93.744 376.512 93.472V92.5C377.144 92.836 377.936 93.004 378.888 93.004C379.44 93.004 379.872 92.84 380.184 92.512C380.504 92.192 380.664 91.752 380.664 91.192V90.94C380.664 90.844 380.668 90.708 380.676 90.532C380.684 90.348 380.692 90.22 380.7 90.148H380.652C380.22 90.796 379.556 91.12 378.66 91.12C377.828 91.12 377.176 90.828 376.704 90.244C376.24 89.66 376.008 88.844 376.008 87.796C376.008 86.772 376.24 85.96 376.704 85.36C377.176 84.752 377.824 84.448 378.648 84.448ZM378.792 85.336C378.256 85.336 377.84 85.552 377.544 85.984C377.248 86.408 377.1 87.016 377.1 87.808C377.1 88.6 377.244 89.208 377.532 89.632C377.828 90.048 378.256 90.256 378.816 90.256C379.464 90.256 379.936 90.084 380.232 89.74C380.528 89.388 380.676 88.824 380.676 88.048V87.796C380.676 86.916 380.524 86.288 380.22 85.912C379.916 85.528 379.44 85.336 378.792 85.336ZM20.168 102.256C20.328 102.256 20.492 102.244 20.66 102.22C20.828 102.188 20.964 102.156 21.068 102.124V102.928C20.956 102.984 20.796 103.028 20.588 103.06C20.38 103.1 20.18 103.12 19.988 103.12C19.652 103.12 19.34 103.064 19.052 102.952C18.772 102.832 18.544 102.628 18.368 102.34C18.192 102.052 18.104 101.648 18.104 101.128V97.384H17.192V96.88L18.116 96.46L18.536 95.092H19.16V96.568H21.02V97.384H19.16V101.104C19.16 101.496 19.252 101.788 19.436 101.98C19.628 102.164 19.872 102.256 20.168 102.256ZM27.9479 99.772C27.9479 100.836 27.6759 101.66 27.1319 102.244C26.5959 102.828 25.8679 103.12 24.9479 103.12C24.3799 103.12 23.8719 102.992 23.4239 102.736C22.9839 102.472 22.6359 102.092 22.3799 101.596C22.1239 101.092 21.9959 100.484 21.9959 99.772C21.9959 98.708 22.2639 97.888 22.7999 97.312C23.3359 96.736 24.0639 96.448 24.9839 96.448C25.5679 96.448 26.0799 96.58 26.5199 96.844C26.9679 97.1 27.3159 97.476 27.5639 97.972C27.8199 98.46 27.9479 99.06 27.9479 99.772ZM23.0879 99.772C23.0879 100.532 23.2359 101.136 23.5319 101.584C23.8359 102.024 24.3159 102.244 24.9719 102.244C25.6199 102.244 26.0959 102.024 26.3999 101.584C26.7039 101.136 26.8559 100.532 26.8559 99.772C26.8559 99.012 26.7039 98.416 26.3999 97.984C26.0959 97.552 25.6159 97.336 24.9599 97.336C24.3039 97.336 23.8279 97.552 23.5319 97.984C23.2359 98.416 23.0879 99.012 23.0879 99.772ZM33.5392 99.364C33.4352 99.036 33.3432 98.716 33.2632 98.404C33.1912 98.084 33.1352 97.836 33.0952 97.66H33.0472C33.0152 97.836 32.9632 98.084 32.8912 98.404C32.8192 98.716 32.7272 99.04 32.6152 99.376L31.4632 102.988H30.2632L28.4992 96.556H29.5912L30.4792 99.988C30.5672 100.332 30.6512 100.68 30.7312 101.032C30.8112 101.384 30.8672 101.676 30.8992 101.908H30.9472C30.9792 101.772 31.0152 101.604 31.0552 101.404C31.1032 101.204 31.1552 100.996 31.2112 100.78C31.2672 100.556 31.3232 100.356 31.3792 100.18L32.5192 96.556H33.6712L34.7752 100.18C34.8632 100.452 34.9472 100.748 35.0272 101.068C35.1152 101.388 35.1752 101.664 35.2072 101.896H35.2552C35.2792 101.696 35.3312 101.42 35.4112 101.068C35.4992 100.716 35.5912 100.356 35.6872 99.988L36.5872 96.556H37.6672L35.8792 102.988H34.6432L33.5392 99.364ZM41.2568 96.46C42.0408 96.46 42.6208 96.632 42.9968 96.976C43.3728 97.32 43.5608 97.868 43.5608 98.62V103H42.7928L42.5888 102.088H42.5408C42.2608 102.44 41.9648 102.7 41.6528 102.868C41.3488 103.036 40.9248 103.12 40.3808 103.12C39.7968 103.12 39.3128 102.968 38.9288 102.664C38.5448 102.352 38.3528 101.868 38.3528 101.212C38.3528 100.572 38.6048 100.08 39.1088 99.736C39.6128 99.384 40.3888 99.192 41.4368 99.16L42.5288 99.124V98.74C42.5288 98.204 42.4128 97.832 42.1808 97.624C41.9488 97.416 41.6208 97.312 41.1968 97.312C40.8608 97.312 40.5408 97.364 40.2368 97.468C39.9328 97.564 39.6488 97.676 39.3848 97.804L39.0608 97.012C39.3408 96.86 39.6728 96.732 40.0568 96.628C40.4408 96.516 40.8408 96.46 41.2568 96.46ZM41.5688 99.892C40.7688 99.924 40.2128 100.052 39.9008 100.276C39.5968 100.5 39.4448 100.816 39.4448 101.224C39.4448 101.584 39.5528 101.848 39.7688 102.016C39.9928 102.184 40.2768 102.268 40.6208 102.268C41.1648 102.268 41.6168 102.12 41.9768 101.824C42.3368 101.52 42.5168 101.056 42.5168 100.432V99.856L41.5688 99.892ZM48.5473 96.448C48.6673 96.448 48.7953 96.456 48.9313 96.472C49.0753 96.48 49.1993 96.496 49.3033 96.52L49.1713 97.492C49.0673 97.468 48.9513 97.448 48.8233 97.432C48.7033 97.416 48.5873 97.408 48.4753 97.408C48.1473 97.408 47.8393 97.5 47.5513 97.684C47.2633 97.86 47.0313 98.112 46.8553 98.44C46.6873 98.76 46.6033 99.136 46.6033 99.568V103H45.5473V96.568H46.4113L46.5313 97.744H46.5793C46.7873 97.392 47.0553 97.088 47.3833 96.832C47.7113 96.576 48.0993 96.448 48.5473 96.448ZM52.55 103.12C51.75 103.12 51.11 102.844 50.63 102.292C50.15 101.732 49.91 100.9 49.91 99.796C49.91 98.692 50.15 97.86 50.63 97.3C51.118 96.732 51.762 96.448 52.562 96.448C53.058 96.448 53.462 96.54 53.774 96.724C54.094 96.908 54.354 97.132 54.554 97.396H54.626C54.618 97.292 54.602 97.14 54.578 96.94C54.562 96.732 54.554 96.568 54.554 96.448V93.88H55.61V103H54.758L54.602 102.136H54.554C54.362 102.408 54.106 102.64 53.786 102.832C53.466 103.024 53.054 103.12 52.55 103.12ZM52.718 102.244C53.398 102.244 53.874 102.06 54.146 101.692C54.426 101.316 54.566 100.752 54.566 100V99.808C54.566 99.008 54.434 98.396 54.17 97.972C53.906 97.54 53.418 97.324 52.706 97.324C52.138 97.324 51.71 97.552 51.422 98.008C51.142 98.456 51.002 99.06 51.002 99.82C51.002 100.588 51.142 101.184 51.422 101.608C51.71 102.032 52.142 102.244 52.718 102.244ZM63.0888 96.46C63.8728 96.46 64.4528 96.632 64.8288 96.976C65.2048 97.32 65.3928 97.868 65.3928 98.62V103H64.6248L64.4208 102.088H64.3728C64.0928 102.44 63.7968 102.7 63.4848 102.868C63.1808 103.036 62.7568 103.12 62.2128 103.12C61.6288 103.12 61.1448 102.968 60.7608 102.664C60.3768 102.352 60.1848 101.868 60.1848 101.212C60.1848 100.572 60.4368 100.08 60.9408 99.736C61.4448 99.384 62.2208 99.192 63.2688 99.16L64.3608 99.124V98.74C64.3608 98.204 64.2448 97.832 64.0128 97.624C63.7808 97.416 63.4528 97.312 63.0288 97.312C62.6928 97.312 62.3728 97.364 62.0688 97.468C61.7648 97.564 61.4808 97.676 61.2168 97.804L60.8928 97.012C61.1728 96.86 61.5048 96.732 61.8888 96.628C62.2728 96.516 62.6728 96.46 63.0888 96.46ZM63.4008 99.892C62.6008 99.924 62.0448 100.052 61.7328 100.276C61.4288 100.5 61.2768 100.816 61.2768 101.224C61.2768 101.584 61.3848 101.848 61.6008 102.016C61.8248 102.184 62.1088 102.268 62.4528 102.268C62.9968 102.268 63.4488 102.12 63.8088 101.824C64.1688 101.52 64.3488 101.056 64.3488 100.432V99.856L63.4008 99.892ZM72.9594 103.12C72.3914 103.12 71.8834 103.004 71.4354 102.772C70.9954 102.54 70.6474 102.18 70.3914 101.692C70.1434 101.204 70.0194 100.58 70.0194 99.82C70.0194 99.028 70.1514 98.384 70.4154 97.888C70.6794 97.392 71.0354 97.028 71.4834 96.796C71.9394 96.564 72.4554 96.448 73.0314 96.448C73.3594 96.448 73.6754 96.484 73.9794 96.556C74.2834 96.62 74.5314 96.7 74.7234 96.796L74.3994 97.672C74.2074 97.6 73.9834 97.532 73.7274 97.468C73.4714 97.404 73.2314 97.372 73.0074 97.372C71.7434 97.372 71.1114 98.184 71.1114 99.808C71.1114 100.584 71.2634 101.18 71.5674 101.596C71.8794 102.004 72.3394 102.208 72.9474 102.208C73.2994 102.208 73.6074 102.172 73.8714 102.1C74.1434 102.028 74.3914 101.94 74.6154 101.836V102.772C74.3994 102.884 74.1594 102.968 73.8954 103.024C73.6394 103.088 73.3274 103.12 72.9594 103.12ZM81.737 99.772C81.737 100.836 81.465 101.66 80.921 102.244C80.385 102.828 79.657 103.12 78.737 103.12C78.169 103.12 77.661 102.992 77.213 102.736C76.773 102.472 76.425 102.092 76.169 101.596C75.913 101.092 75.785 100.484 75.785 99.772C75.785 98.708 76.053 97.888 76.589 97.312C77.125 96.736 77.853 96.448 78.773 96.448C79.357 96.448 79.869 96.58 80.309 96.844C80.757 97.1 81.105 97.476 81.353 97.972C81.609 98.46 81.737 99.06 81.737 99.772ZM76.877 99.772C76.877 100.532 77.025 101.136 77.321 101.584C77.625 102.024 78.105 102.244 78.761 102.244C79.409 102.244 79.885 102.024 80.189 101.584C80.493 101.136 80.645 100.532 80.645 99.772C80.645 99.012 80.493 98.416 80.189 97.984C79.885 97.552 79.405 97.336 78.749 97.336C78.093 97.336 77.617 97.552 77.321 97.984C77.025 98.416 76.877 99.012 76.877 99.772ZM87.5986 101.224C87.5986 101.848 87.3666 102.32 86.9026 102.64C86.4386 102.96 85.8146 103.12 85.0306 103.12C84.5826 103.12 84.1946 103.084 83.8666 103.012C83.5466 102.94 83.2626 102.84 83.0146 102.712V101.752C83.2706 101.88 83.5786 102 83.9386 102.112C84.3066 102.216 84.6786 102.268 85.0546 102.268C85.5906 102.268 85.9786 102.184 86.2186 102.016C86.4586 101.84 86.5786 101.608 86.5786 101.32C86.5786 101.16 86.5346 101.016 86.4466 100.888C86.3586 100.76 86.1986 100.632 85.9666 100.504C85.7426 100.376 85.4186 100.232 84.9946 100.072C84.5786 99.912 84.2226 99.752 83.9266 99.592C83.6306 99.432 83.4026 99.24 83.2426 99.016C83.0826 98.792 83.0026 98.504 83.0026 98.152C83.0026 97.608 83.2226 97.188 83.6626 96.892C84.1106 96.596 84.6946 96.448 85.4146 96.448C85.8066 96.448 86.1706 96.488 86.5066 96.568C86.8506 96.64 87.1706 96.744 87.4666 96.88L87.1066 97.72C86.8346 97.608 86.5506 97.512 86.2546 97.432C85.9586 97.352 85.6546 97.312 85.3426 97.312C84.9106 97.312 84.5786 97.384 84.3466 97.528C84.1226 97.664 84.0106 97.852 84.0106 98.092C84.0106 98.268 84.0626 98.42 84.1666 98.548C84.2706 98.668 84.4426 98.788 84.6826 98.908C84.9306 99.02 85.2586 99.156 85.6666 99.316C86.0746 99.468 86.4226 99.624 86.7106 99.784C86.9986 99.944 87.2186 100.14 87.3706 100.372C87.5226 100.596 87.5986 100.88 87.5986 101.224ZM91.3008 102.256C91.4608 102.256 91.6248 102.244 91.7928 102.22C91.9608 102.188 92.0968 102.156 92.2008 102.124V102.928C92.0888 102.984 91.9288 103.028 91.7208 103.06C91.5128 103.1 91.3128 103.12 91.1208 103.12C90.7848 103.12 90.4728 103.064 90.1848 102.952C89.9048 102.832 89.6768 102.628 89.5008 102.34C89.3248 102.052 89.2368 101.648 89.2368 101.128V97.384H88.3248V96.88L89.2488 96.46L89.6688 95.092H90.2928V96.568H92.1528V97.384H90.2928V101.104C90.2928 101.496 90.3848 101.788 90.5688 101.98C90.7608 102.164 91.0048 102.256 91.3008 102.256ZM95.9248 96.46C96.7088 96.46 97.2888 96.632 97.6648 96.976C98.0408 97.32 98.2288 97.868 98.2288 98.62V103H97.4608L97.2568 102.088H97.2088C96.9288 102.44 96.6328 102.7 96.3208 102.868C96.0168 103.036 95.5928 103.12 95.0488 103.12C94.4648 103.12 93.9808 102.968 93.5968 102.664C93.2128 102.352 93.0208 101.868 93.0208 101.212C93.0208 100.572 93.2728 100.08 93.7768 99.736C94.2808 99.384 95.0568 99.192 96.1048 99.16L97.1968 99.124V98.74C97.1968 98.204 97.0808 97.832 96.8488 97.624C96.6168 97.416 96.2888 97.312 95.8648 97.312C95.5288 97.312 95.2088 97.364 94.9048 97.468C94.6008 97.564 94.3168 97.676 94.0527 97.804L93.7288 97.012C94.0088 96.86 94.3408 96.732 94.7248 96.628C95.1088 96.516 95.5088 96.46 95.9248 96.46ZM96.2368 99.892C95.4368 99.924 94.8808 100.052 94.5688 100.276C94.2648 100.5 94.1128 100.816 94.1128 101.224C94.1128 101.584 94.2208 101.848 94.4368 102.016C94.6608 102.184 94.9448 102.268 95.2888 102.268C95.8328 102.268 96.2848 102.12 96.6448 101.824C97.0048 101.52 97.1848 101.056 97.1848 100.432V99.856L96.2368 99.892ZM101.271 103H100.215V93.88H101.271V103ZM109.309 96.448C109.429 96.448 109.557 96.456 109.693 96.472C109.837 96.48 109.961 96.496 110.065 96.52L109.933 97.492C109.829 97.468 109.713 97.448 109.585 97.432C109.465 97.416 109.349 97.408 109.237 97.408C108.909 97.408 108.601 97.5 108.313 97.684C108.025 97.86 107.793 98.112 107.617 98.44C107.449 98.76 107.365 99.136 107.365 99.568V103H106.309V96.568H107.173L107.293 97.744H107.341C107.549 97.392 107.817 97.088 108.145 96.832C108.473 96.576 108.861 96.448 109.309 96.448ZM116.624 99.772C116.624 100.836 116.352 101.66 115.808 102.244C115.272 102.828 114.544 103.12 113.624 103.12C113.056 103.12 112.548 102.992 112.1 102.736C111.66 102.472 111.312 102.092 111.056 101.596C110.8 101.092 110.672 100.484 110.672 99.772C110.672 98.708 110.94 97.888 111.476 97.312C112.012 96.736 112.74 96.448 113.66 96.448C114.244 96.448 114.756 96.58 115.196 96.844C115.644 97.1 115.992 97.476 116.24 97.972C116.496 98.46 116.624 99.06 116.624 99.772ZM111.764 99.772C111.764 100.532 111.912 101.136 112.208 101.584C112.512 102.024 112.992 102.244 113.648 102.244C114.296 102.244 114.772 102.024 115.076 101.584C115.38 101.136 115.532 100.532 115.532 99.772C115.532 99.012 115.38 98.416 115.076 97.984C114.772 97.552 114.292 97.336 113.636 97.336C112.98 97.336 112.504 97.552 112.208 97.984C111.912 98.416 111.764 99.012 111.764 99.772ZM120.733 96.46C121.517 96.46 122.097 96.632 122.473 96.976C122.849 97.32 123.037 97.868 123.037 98.62V103H122.269L122.065 102.088H122.017C121.737 102.44 121.441 102.7 121.129 102.868C120.825 103.036 120.401 103.12 119.857 103.12C119.273 103.12 118.789 102.968 118.405 102.664C118.021 102.352 117.829 101.868 117.829 101.212C117.829 100.572 118.081 100.08 118.585 99.736C119.089 99.384 119.865 99.192 120.913 99.16L122.005 99.124V98.74C122.005 98.204 121.889 97.832 121.657 97.624C121.425 97.416 121.097 97.312 120.673 97.312C120.337 97.312 120.017 97.364 119.713 97.468C119.409 97.564 119.125 97.676 118.861 97.804L118.537 97.012C118.817 96.86 119.149 96.732 119.533 96.628C119.917 96.516 120.317 96.46 120.733 96.46ZM121.045 99.892C120.245 99.924 119.689 100.052 119.377 100.276C119.073 100.5 118.921 100.816 118.921 101.224C118.921 101.584 119.029 101.848 119.245 102.016C119.469 102.184 119.753 102.268 120.097 102.268C120.641 102.268 121.093 102.12 121.453 101.824C121.813 101.52 121.993 101.056 121.993 100.432V99.856L121.045 99.892ZM127.304 103.12C126.504 103.12 125.864 102.844 125.384 102.292C124.904 101.732 124.664 100.9 124.664 99.796C124.664 98.692 124.904 97.86 125.384 97.3C125.872 96.732 126.516 96.448 127.316 96.448C127.812 96.448 128.216 96.54 128.528 96.724C128.848 96.908 129.108 97.132 129.308 97.396H129.38C129.372 97.292 129.356 97.14 129.332 96.94C129.316 96.732 129.308 96.568 129.308 96.448V93.88H130.364V103H129.512L129.356 102.136H129.308C129.116 102.408 128.86 102.64 128.54 102.832C128.22 103.024 127.808 103.12 127.304 103.12ZM127.472 102.244C128.152 102.244 128.628 102.06 128.9 101.692C129.18 101.316 129.32 100.752 129.32 100V99.808C129.32 99.008 129.188 98.396 128.924 97.972C128.66 97.54 128.172 97.324 127.46 97.324C126.892 97.324 126.464 97.552 126.176 98.008C125.896 98.456 125.756 99.06 125.756 99.82C125.756 100.588 125.896 101.184 126.176 101.608C126.464 102.032 126.896 102.244 127.472 102.244ZM132.5 101.834C132.625 101.834 132.736 101.863 132.834 101.922C132.932 101.98 133.008 102.059 133.062 102.156C133.121 102.25 133.15 102.359 133.15 102.484C133.15 102.609 133.121 102.721 133.062 102.818C133.004 102.912 132.926 102.988 132.828 103.047C132.734 103.105 132.625 103.135 132.5 103.135C132.348 103.135 132.201 103.078 132.061 102.965C131.924 102.848 131.855 102.688 131.855 102.484C131.855 102.305 131.918 102.152 132.043 102.027C132.168 101.898 132.32 101.834 132.5 101.834ZM140.201 103H137.105V102.376L138.113 102.148V95.296L137.105 95.056V94.432H140.201V95.056L139.193 95.296V102.148L140.201 102.376V103ZM148.767 96.448C149.495 96.448 150.039 96.636 150.399 97.012C150.759 97.38 150.939 97.98 150.939 98.812V103H149.895V98.86C149.895 97.844 149.459 97.336 148.587 97.336C147.963 97.336 147.515 97.516 147.243 97.876C146.979 98.236 146.847 98.76 146.847 99.448V103H145.803V98.86C145.803 97.844 145.363 97.336 144.483 97.336C143.835 97.336 143.387 97.536 143.139 97.936C142.891 98.336 142.767 98.912 142.767 99.664V103H141.711V96.568H142.563L142.719 97.444H142.779C142.979 97.108 143.247 96.86 143.583 96.7C143.927 96.532 144.291 96.448 144.675 96.448C145.683 96.448 146.339 96.808 146.643 97.528H146.703C146.919 97.16 147.211 96.888 147.579 96.712C147.955 96.536 148.351 96.448 148.767 96.448ZM159.982 96.448C160.71 96.448 161.254 96.636 161.614 97.012C161.974 97.38 162.154 97.98 162.154 98.812V103H161.11V98.86C161.11 97.844 160.674 97.336 159.802 97.336C159.178 97.336 158.73 97.516 158.458 97.876C158.194 98.236 158.062 98.76 158.062 99.448V103H157.018V98.86C157.018 97.844 156.578 97.336 155.698 97.336C155.05 97.336 154.602 97.536 154.354 97.936C154.106 98.336 153.982 98.912 153.982 99.664V103H152.926V96.568H153.778L153.934 97.444H153.994C154.194 97.108 154.462 96.86 154.798 96.7C155.142 96.532 155.506 96.448 155.89 96.448C156.898 96.448 157.554 96.808 157.858 97.528H157.918C158.134 97.16 158.426 96.888 158.794 96.712C159.17 96.536 159.566 96.448 159.982 96.448ZM166.625 96.448C167.177 96.448 167.649 96.568 168.041 96.808C168.441 97.048 168.745 97.388 168.953 97.828C169.169 98.26 169.277 98.768 169.277 99.352V99.988H164.873C164.889 100.716 165.073 101.272 165.425 101.656C165.785 102.032 166.285 102.22 166.925 102.22C167.333 102.22 167.693 102.184 168.005 102.112C168.325 102.032 168.653 101.92 168.989 101.776V102.7C168.661 102.844 168.337 102.948 168.017 103.012C167.697 103.084 167.317 103.12 166.877 103.12C166.269 103.12 165.729 102.996 165.257 102.748C164.793 102.5 164.429 102.132 164.165 101.644C163.909 101.148 163.781 100.544 163.781 99.832C163.781 99.128 163.897 98.524 164.129 98.02C164.369 97.516 164.701 97.128 165.125 96.856C165.557 96.584 166.057 96.448 166.625 96.448ZM166.613 97.312C166.109 97.312 165.709 97.476 165.413 97.804C165.125 98.124 164.953 98.572 164.897 99.148H168.173C168.165 98.604 168.037 98.164 167.789 97.828C167.541 97.484 167.149 97.312 166.613 97.312ZM173.195 103.12C172.395 103.12 171.755 102.844 171.275 102.292C170.795 101.732 170.555 100.9 170.555 99.796C170.555 98.692 170.795 97.86 171.275 97.3C171.763 96.732 172.407 96.448 173.207 96.448C173.703 96.448 174.107 96.54 174.419 96.724C174.739 96.908 174.999 97.132 175.199 97.396H175.271C175.263 97.292 175.247 97.14 175.223 96.94C175.207 96.732 175.199 96.568 175.199 96.448V93.88H176.255V103H175.403L175.247 102.136H175.199C175.007 102.408 174.751 102.64 174.431 102.832C174.111 103.024 173.699 103.12 173.195 103.12ZM173.363 102.244C174.043 102.244 174.519 102.06 174.791 101.692C175.071 101.316 175.211 100.752 175.211 100V99.808C175.211 99.008 175.079 98.396 174.815 97.972C174.551 97.54 174.063 97.324 173.351 97.324C172.783 97.324 172.355 97.552 172.067 98.008C171.787 98.456 171.647 99.06 171.647 99.82C171.647 100.588 171.787 101.184 172.067 101.608C172.355 102.032 172.787 102.244 173.363 102.244ZM178.837 94.156C178.997 94.156 179.137 94.212 179.257 94.324C179.385 94.428 179.449 94.596 179.449 94.828C179.449 95.052 179.385 95.22 179.257 95.332C179.137 95.444 178.997 95.5 178.837 95.5C178.661 95.5 178.513 95.444 178.393 95.332C178.273 95.22 178.213 95.052 178.213 94.828C178.213 94.596 178.273 94.428 178.393 94.324C178.513 94.212 178.661 94.156 178.837 94.156ZM179.353 96.568V103H178.297V96.568H179.353ZM183.827 96.46C184.611 96.46 185.191 96.632 185.567 96.976C185.943 97.32 186.131 97.868 186.131 98.62V103H185.363L185.159 102.088H185.111C184.831 102.44 184.535 102.7 184.223 102.868C183.919 103.036 183.495 103.12 182.951 103.12C182.367 103.12 181.883 102.968 181.499 102.664C181.115 102.352 180.923 101.868 180.923 101.212C180.923 100.572 181.175 100.08 181.679 99.736C182.183 99.384 182.959 99.192 184.007 99.16L185.099 99.124V98.74C185.099 98.204 184.983 97.832 184.751 97.624C184.519 97.416 184.191 97.312 183.767 97.312C183.431 97.312 183.111 97.364 182.807 97.468C182.503 97.564 182.219 97.676 181.955 97.804L181.631 97.012C181.911 96.86 182.243 96.732 182.627 96.628C183.011 96.516 183.411 96.46 183.827 96.46ZM184.139 99.892C183.339 99.924 182.783 100.052 182.471 100.276C182.167 100.5 182.015 100.816 182.015 101.224C182.015 101.584 182.123 101.848 182.339 102.016C182.563 102.184 182.847 102.268 183.191 102.268C183.735 102.268 184.187 102.12 184.547 101.824C184.907 101.52 185.087 101.056 185.087 100.432V99.856L184.139 99.892ZM190.266 102.256C190.426 102.256 190.59 102.244 190.758 102.22C190.926 102.188 191.062 102.156 191.166 102.124V102.928C191.054 102.984 190.894 103.028 190.686 103.06C190.478 103.1 190.278 103.12 190.086 103.12C189.75 103.12 189.438 103.064 189.15 102.952C188.87 102.832 188.642 102.628 188.466 102.34C188.29 102.052 188.202 101.648 188.202 101.128V97.384H187.29V96.88L188.214 96.46L188.634 95.092H189.258V96.568H191.118V97.384H189.258V101.104C189.258 101.496 189.35 101.788 189.534 101.98C189.726 102.164 189.97 102.256 190.266 102.256ZM194.938 96.448C195.49 96.448 195.962 96.568 196.354 96.808C196.754 97.048 197.058 97.388 197.266 97.828C197.482 98.26 197.59 98.768 197.59 99.352V99.988H193.186C193.202 100.716 193.386 101.272 193.738 101.656C194.098 102.032 194.598 102.22 195.238 102.22C195.646 102.22 196.006 102.184 196.318 102.112C196.638 102.032 196.966 101.92 197.302 101.776V102.7C196.974 102.844 196.65 102.948 196.33 103.012C196.01 103.084 195.63 103.12 195.19 103.12C194.582 103.12 194.042 102.996 193.57 102.748C193.106 102.5 192.742 102.132 192.478 101.644C192.222 101.148 192.094 100.544 192.094 99.832C192.094 99.128 192.21 98.524 192.442 98.02C192.682 97.516 193.014 97.128 193.438 96.856C193.87 96.584 194.37 96.448 194.938 96.448ZM194.926 97.312C194.422 97.312 194.022 97.476 193.726 97.804C193.438 98.124 193.266 98.572 193.21 99.148H196.486C196.478 98.604 196.35 98.164 196.102 97.828C195.854 97.484 195.462 97.312 194.926 97.312ZM204.663 96.46C205.447 96.46 206.027 96.632 206.403 96.976C206.779 97.32 206.967 97.868 206.967 98.62V103H206.199L205.995 102.088H205.947C205.667 102.44 205.371 102.7 205.059 102.868C204.755 103.036 204.331 103.12 203.787 103.12C203.203 103.12 202.719 102.968 202.335 102.664C201.951 102.352 201.759 101.868 201.759 101.212C201.759 100.572 202.011 100.08 202.515 99.736C203.019 99.384 203.795 99.192 204.843 99.16L205.935 99.124V98.74C205.935 98.204 205.819 97.832 205.587 97.624C205.355 97.416 205.027 97.312 204.603 97.312C204.267 97.312 203.947 97.364 203.643 97.468C203.339 97.564 203.055 97.676 202.791 97.804L202.467 97.012C202.747 96.86 203.079 96.732 203.463 96.628C203.847 96.516 204.247 96.46 204.663 96.46ZM204.975 99.892C204.175 99.924 203.619 100.052 203.307 100.276C203.003 100.5 202.851 100.816 202.851 101.224C202.851 101.584 202.959 101.848 203.175 102.016C203.399 102.184 203.683 102.268 204.027 102.268C204.571 102.268 205.023 102.12 205.383 101.824C205.743 101.52 205.923 101.056 205.923 100.432V99.856L204.975 99.892ZM211.102 102.256C211.262 102.256 211.426 102.244 211.594 102.22C211.762 102.188 211.898 102.156 212.002 102.124V102.928C211.89 102.984 211.73 103.028 211.522 103.06C211.314 103.1 211.114 103.12 210.922 103.12C210.586 103.12 210.274 103.064 209.986 102.952C209.706 102.832 209.478 102.628 209.302 102.34C209.126 102.052 209.038 101.648 209.038 101.128V97.384H208.126V96.88L209.05 96.46L209.47 95.092H210.094V96.568H211.954V97.384H210.094V101.104C210.094 101.496 210.186 101.788 210.37 101.98C210.562 102.164 210.806 102.256 211.102 102.256ZM215.438 102.256C215.598 102.256 215.762 102.244 215.93 102.22C216.098 102.188 216.234 102.156 216.338 102.124V102.928C216.226 102.984 216.066 103.028 215.858 103.06C215.65 103.1 215.45 103.12 215.258 103.12C214.922 103.12 214.61 103.064 214.322 102.952C214.042 102.832 213.814 102.628 213.638 102.34C213.462 102.052 213.374 101.648 213.374 101.128V97.384H212.462V96.88L213.386 96.46L213.806 95.092H214.43V96.568H216.29V97.384H214.43V101.104C214.43 101.496 214.522 101.788 214.706 101.98C214.898 102.164 215.142 102.256 215.438 102.256ZM220.109 96.448C220.661 96.448 221.133 96.568 221.525 96.808C221.925 97.048 222.229 97.388 222.437 97.828C222.653 98.26 222.761 98.768 222.761 99.352V99.988H218.357C218.373 100.716 218.557 101.272 218.909 101.656C219.269 102.032 219.769 102.22 220.409 102.22C220.817 102.22 221.177 102.184 221.489 102.112C221.809 102.032 222.137 101.92 222.473 101.776V102.7C222.145 102.844 221.821 102.948 221.501 103.012C221.181 103.084 220.801 103.12 220.361 103.12C219.753 103.12 219.213 102.996 218.741 102.748C218.277 102.5 217.913 102.132 217.649 101.644C217.393 101.148 217.265 100.544 217.265 99.832C217.265 99.128 217.381 98.524 217.613 98.02C217.853 97.516 218.185 97.128 218.609 96.856C219.041 96.584 219.541 96.448 220.109 96.448ZM220.097 97.312C219.593 97.312 219.193 97.476 218.897 97.804C218.609 98.124 218.437 98.572 218.381 99.148H221.657C221.649 98.604 221.521 98.164 221.273 97.828C221.025 97.484 220.633 97.312 220.097 97.312ZM227.495 96.448C228.263 96.448 228.843 96.636 229.235 97.012C229.627 97.38 229.823 97.98 229.823 98.812V103H228.779V98.884C228.779 97.852 228.299 97.336 227.339 97.336C226.627 97.336 226.135 97.536 225.863 97.936C225.591 98.336 225.455 98.912 225.455 99.664V103H224.399V96.568H225.251L225.407 97.444H225.467C225.675 97.108 225.963 96.86 226.331 96.7C226.699 96.532 227.087 96.448 227.495 96.448ZM233.965 102.256C234.125 102.256 234.289 102.244 234.457 102.22C234.625 102.188 234.761 102.156 234.865 102.124V102.928C234.753 102.984 234.593 103.028 234.385 103.06C234.177 103.1 233.977 103.12 233.785 103.12C233.449 103.12 233.137 103.064 232.849 102.952C232.569 102.832 232.341 102.628 232.165 102.34C231.989 102.052 231.901 101.648 231.901 101.128V97.384H230.989V96.88L231.913 96.46L232.333 95.092H232.957V96.568H234.817V97.384H232.957V101.104C232.957 101.496 233.049 101.788 233.233 101.98C233.425 102.164 233.669 102.256 233.965 102.256ZM236.693 94.156C236.853 94.156 236.993 94.212 237.113 94.324C237.241 94.428 237.305 94.596 237.305 94.828C237.305 95.052 237.241 95.22 237.113 95.332C236.993 95.444 236.853 95.5 236.693 95.5C236.517 95.5 236.369 95.444 236.249 95.332C236.129 95.22 236.069 95.052 236.069 94.828C236.069 94.596 236.129 94.428 236.249 94.324C236.369 94.212 236.517 94.156 236.693 94.156ZM237.209 96.568V103H236.153V96.568H237.209ZM244.839 99.772C244.839 100.836 244.567 101.66 244.023 102.244C243.487 102.828 242.759 103.12 241.839 103.12C241.271 103.12 240.763 102.992 240.315 102.736C239.875 102.472 239.527 102.092 239.271 101.596C239.015 101.092 238.887 100.484 238.887 99.772C238.887 98.708 239.155 97.888 239.691 97.312C240.227 96.736 240.955 96.448 241.875 96.448C242.459 96.448 242.971 96.58 243.411 96.844C243.859 97.1 244.207 97.476 244.455 97.972C244.711 98.46 244.839 99.06 244.839 99.772ZM239.979 99.772C239.979 100.532 240.127 101.136 240.423 101.584C240.727 102.024 241.207 102.244 241.863 102.244C242.511 102.244 242.987 102.024 243.291 101.584C243.595 101.136 243.747 100.532 243.747 99.772C243.747 99.012 243.595 98.416 243.291 97.984C242.987 97.552 242.507 97.336 241.851 97.336C241.195 97.336 240.719 97.552 240.423 97.984C240.127 98.416 239.979 99.012 239.979 99.772ZM249.608 96.448C250.376 96.448 250.956 96.636 251.348 97.012C251.74 97.38 251.936 97.98 251.936 98.812V103H250.892V98.884C250.892 97.852 250.412 97.336 249.452 97.336C248.74 97.336 248.248 97.536 247.976 97.936C247.704 98.336 247.568 98.912 247.568 99.664V103H246.512V96.568H247.364L247.52 97.444H247.58C247.788 97.108 248.076 96.86 248.444 96.7C248.812 96.532 249.2 96.448 249.608 96.448ZM257.47 94.156C257.63 94.156 257.77 94.212 257.89 94.324C258.018 94.428 258.082 94.596 258.082 94.828C258.082 95.052 258.018 95.22 257.89 95.332C257.77 95.444 257.63 95.5 257.47 95.5C257.294 95.5 257.146 95.444 257.026 95.332C256.906 95.22 256.846 95.052 256.846 94.828C256.846 94.596 256.906 94.428 257.026 94.324C257.146 94.212 257.294 94.156 257.47 94.156ZM257.986 96.568V103H256.93V96.568H257.986ZM264.212 101.224C264.212 101.848 263.98 102.32 263.516 102.64C263.052 102.96 262.428 103.12 261.644 103.12C261.196 103.12 260.808 103.084 260.48 103.012C260.16 102.94 259.876 102.84 259.628 102.712V101.752C259.884 101.88 260.192 102 260.552 102.112C260.92 102.216 261.292 102.268 261.668 102.268C262.204 102.268 262.592 102.184 262.832 102.016C263.072 101.84 263.192 101.608 263.192 101.32C263.192 101.16 263.148 101.016 263.06 100.888C262.972 100.76 262.812 100.632 262.58 100.504C262.356 100.376 262.032 100.232 261.608 100.072C261.192 99.912 260.836 99.752 260.54 99.592C260.244 99.432 260.016 99.24 259.856 99.016C259.696 98.792 259.616 98.504 259.616 98.152C259.616 97.608 259.836 97.188 260.276 96.892C260.724 96.596 261.308 96.448 262.028 96.448C262.42 96.448 262.784 96.488 263.12 96.568C263.464 96.64 263.784 96.744 264.08 96.88L263.72 97.72C263.448 97.608 263.164 97.512 262.868 97.432C262.572 97.352 262.268 97.312 261.956 97.312C261.524 97.312 261.192 97.384 260.96 97.528C260.736 97.664 260.624 97.852 260.624 98.092C260.624 98.268 260.676 98.42 260.78 98.548C260.884 98.668 261.056 98.788 261.296 98.908C261.544 99.02 261.872 99.156 262.28 99.316C262.688 99.468 263.036 99.624 263.324 99.784C263.612 99.944 263.832 100.14 263.984 100.372C264.136 100.596 264.212 100.88 264.212 101.224ZM271.862 96.448C272.63 96.448 273.21 96.636 273.602 97.012C273.994 97.38 274.19 97.98 274.19 98.812V103H273.146V98.884C273.146 97.852 272.666 97.336 271.706 97.336C270.994 97.336 270.502 97.536 270.23 97.936C269.958 98.336 269.822 98.912 269.822 99.664V103H268.766V96.568H269.618L269.774 97.444H269.834C270.042 97.108 270.33 96.86 270.698 96.7C271.066 96.532 271.454 96.448 271.862 96.448ZM278.668 96.448C279.22 96.448 279.692 96.568 280.084 96.808C280.484 97.048 280.788 97.388 280.996 97.828C281.212 98.26 281.32 98.768 281.32 99.352V99.988H276.916C276.932 100.716 277.116 101.272 277.468 101.656C277.828 102.032 278.328 102.22 278.968 102.22C279.376 102.22 279.736 102.184 280.048 102.112C280.368 102.032 280.696 101.92 281.032 101.776V102.7C280.704 102.844 280.38 102.948 280.06 103.012C279.74 103.084 279.36 103.12 278.92 103.12C278.312 103.12 277.772 102.996 277.3 102.748C276.836 102.5 276.472 102.132 276.208 101.644C275.952 101.148 275.824 100.544 275.824 99.832C275.824 99.128 275.94 98.524 276.172 98.02C276.412 97.516 276.744 97.128 277.168 96.856C277.6 96.584 278.1 96.448 278.668 96.448ZM278.656 97.312C278.152 97.312 277.752 97.476 277.456 97.804C277.168 98.124 276.996 98.572 276.94 99.148H280.216C280.208 98.604 280.08 98.164 279.832 97.828C279.584 97.484 279.192 97.312 278.656 97.312ZM285.442 96.448C285.994 96.448 286.466 96.568 286.858 96.808C287.258 97.048 287.562 97.388 287.77 97.828C287.986 98.26 288.094 98.768 288.094 99.352V99.988H283.69C283.706 100.716 283.89 101.272 284.242 101.656C284.602 102.032 285.102 102.22 285.742 102.22C286.15 102.22 286.51 102.184 286.822 102.112C287.142 102.032 287.47 101.92 287.806 101.776V102.7C287.478 102.844 287.154 102.948 286.834 103.012C286.514 103.084 286.134 103.12 285.694 103.12C285.086 103.12 284.546 102.996 284.074 102.748C283.61 102.5 283.246 102.132 282.982 101.644C282.726 101.148 282.598 100.544 282.598 99.832C282.598 99.128 282.714 98.524 282.946 98.02C283.186 97.516 283.518 97.128 283.942 96.856C284.374 96.584 284.874 96.448 285.442 96.448ZM285.43 97.312C284.926 97.312 284.526 97.476 284.23 97.804C283.942 98.124 283.77 98.572 283.714 99.148H286.99C286.982 98.604 286.854 98.164 286.606 97.828C286.358 97.484 285.966 97.312 285.43 97.312ZM292.011 103.12C291.211 103.12 290.571 102.844 290.091 102.292C289.611 101.732 289.371 100.9 289.371 99.796C289.371 98.692 289.611 97.86 290.091 97.3C290.579 96.732 291.223 96.448 292.023 96.448C292.519 96.448 292.923 96.54 293.235 96.724C293.555 96.908 293.815 97.132 294.015 97.396H294.087C294.079 97.292 294.063 97.14 294.039 96.94C294.023 96.732 294.015 96.568 294.015 96.448V93.88H295.071V103H294.219L294.063 102.136H294.015C293.823 102.408 293.567 102.64 293.247 102.832C292.927 103.024 292.515 103.12 292.011 103.12ZM292.179 102.244C292.859 102.244 293.335 102.06 293.607 101.692C293.887 101.316 294.027 100.752 294.027 100V99.808C294.027 99.008 293.895 98.396 293.631 97.972C293.367 97.54 292.879 97.324 292.167 97.324C291.599 97.324 291.171 97.552 290.883 98.008C290.603 98.456 290.463 99.06 290.463 99.82C290.463 100.588 290.603 101.184 290.883 101.608C291.171 102.032 291.603 102.244 292.179 102.244ZM299.598 96.448C300.15 96.448 300.622 96.568 301.014 96.808C301.414 97.048 301.718 97.388 301.926 97.828C302.142 98.26 302.25 98.768 302.25 99.352V99.988H297.846C297.862 100.716 298.046 101.272 298.398 101.656C298.758 102.032 299.258 102.22 299.898 102.22C300.306 102.22 300.666 102.184 300.978 102.112C301.298 102.032 301.626 101.92 301.962 101.776V102.7C301.634 102.844 301.31 102.948 300.99 103.012C300.67 103.084 300.29 103.12 299.85 103.12C299.242 103.12 298.702 102.996 298.23 102.748C297.766 102.5 297.402 102.132 297.138 101.644C296.882 101.148 296.754 100.544 296.754 99.832C296.754 99.128 296.87 98.524 297.102 98.02C297.342 97.516 297.674 97.128 298.098 96.856C298.53 96.584 299.03 96.448 299.598 96.448ZM299.586 97.312C299.082 97.312 298.682 97.476 298.386 97.804C298.098 98.124 297.926 98.572 297.87 99.148H301.146C301.138 98.604 301.01 98.164 300.762 97.828C300.514 97.484 300.122 97.312 299.586 97.312ZM306.167 103.12C305.367 103.12 304.727 102.844 304.247 102.292C303.767 101.732 303.527 100.9 303.527 99.796C303.527 98.692 303.767 97.86 304.247 97.3C304.735 96.732 305.379 96.448 306.179 96.448C306.675 96.448 307.079 96.54 307.391 96.724C307.711 96.908 307.971 97.132 308.171 97.396H308.243C308.235 97.292 308.219 97.14 308.195 96.94C308.179 96.732 308.171 96.568 308.171 96.448V93.88H309.227V103H308.375L308.219 102.136H308.171C307.979 102.408 307.723 102.64 307.403 102.832C307.083 103.024 306.671 103.12 306.167 103.12ZM306.335 102.244C307.015 102.244 307.491 102.06 307.763 101.692C308.043 101.316 308.183 100.752 308.183 100V99.808C308.183 99.008 308.051 98.396 307.787 97.972C307.523 97.54 307.035 97.324 306.323 97.324C305.755 97.324 305.327 97.552 305.039 98.008C304.759 98.456 304.619 99.06 304.619 99.82C304.619 100.588 304.759 101.184 305.039 101.608C305.327 102.032 305.759 102.244 306.335 102.244ZM311.363 101.834C311.488 101.834 311.6 101.863 311.697 101.922C311.795 101.98 311.871 102.059 311.926 102.156C311.984 102.25 312.014 102.359 312.014 102.484C312.014 102.609 311.984 102.721 311.926 102.818C311.867 102.912 311.789 102.988 311.691 103.047C311.598 103.105 311.488 103.135 311.363 103.135C311.211 103.135 311.064 103.078 310.924 102.965C310.787 102.848 310.719 102.688 310.719 102.484C310.719 102.305 310.781 102.152 310.906 102.027C311.031 101.898 311.184 101.834 311.363 101.834Z" fill="#757575"/>
<defs>
<clipPath id="clip0">
<rect width="29" height="23" fill="white" transform="translate(376 13)"/>
</clipPath>
</defs>
</svg>
